<?xml version="1.0" encoding="iso-8859-1"?>
<!-- Generator: Adobe Illustrator 16.0.0, SVG Export Plug-In . SVG Version: 6.00 Build 0)  -->
<!DOCTYPE svg PUBLIC "-//W3C//DTD SVG 1.1//EN" "http://www.w3.org/Graphics/SVG/1.1/DTD/svg11.dtd">
<svg version="1.1" id="Capa_1" xmlns="http://www.w3.org/2000/svg" xmlns:xlink="http://www.w3.org/1999/xlink" x="0px" y="0px"
	 width="941px" height="941px" viewBox="0 0 941 941" style="enable-background:new 0 0 941 941;" xml:space="preserve">
<g>
	<path d="M803.698,60.918c-1.788,0-3.589,0.174-5.354,0.517l-347.872,67.563c-7.34,1.427-13.687,5.625-17.867,11.823
		c-4.184,6.199-5.701,13.657-4.274,20.997l39.655,204.175l18.962,18.961l18.964,18.965l-47.75-245.854l343.935-66.8l108.554,558.917
		l-280.264,54.432l-18.964,18.965l-18.963,18.963L918.34,679.25c15.152-2.945,25.085-17.668,22.144-32.82L831.166,83.58
		C828.616,70.449,817.064,60.918,803.698,60.918z"/>
	<path d="M730.446,435.437L691.68,235.84c-1.267-6.517-7.575-10.774-14.093-9.508l-53.409,10.373
		c-6.517,1.266-10.773,7.575-9.509,14.092l38.767,199.597c1.266,6.517,7.574,10.774,14.093,9.508l53.409-10.373
		C727.454,448.264,731.711,441.955,730.446,435.437z"/>
	<circle cx="707.106" cy="520.994" r="39.225"/>
	<path d="M409.239,876.273c2.538,2.539,5.864,3.809,9.188,3.809c3.325,0,6.652-1.27,9.189-3.809l129.985-129.982l15.211-15.213
		l18.964-18.963l86.419-86.42c5.075-5.074,5.075-13.303,0-18.379L513.412,442.532l-18.964-18.964l-18.962-18.963L272.763,201.883
		c-2.538-2.538-5.864-3.807-9.189-3.807c-3.325,0-6.652,1.269-9.189,3.807L3.806,452.462c-5.075,5.074-5.075,13.304,0,18.379
		L409.239,876.273z M211.255,504.867c0-6.639,5.382-12.02,12.021-12.02h73.096v-73.096c0-6.64,5.382-12.021,12.021-12.021H362.8
		c6.64,0,12.021,5.382,12.021,12.021v73.096h73.095c6.639,0,12.021,5.381,12.021,12.02v54.408c0,6.639-5.383,12.021-12.021,12.021
		h-73.095v73.096c0,6.639-5.382,12.02-12.021,12.02h-54.406c-6.64,0-12.021-5.381-12.021-12.02v-73.096h-73.096
		c-6.639,0-12.021-5.383-12.021-12.021L211.255,504.867L211.255,504.867z"/>
</g>
<g>
</g>
<g>
</g>
<g>
</g>
<g>
</g>
<g>
</g>
<g>
</g>
<g>
</g>
<g>
</g>
<g>
</g>
<g>
</g>
<g>
</g>
<g>
</g>
<g>
</g>
<g>
</g>
<g>
</g>
</svg>
