<?xml version="1.0" encoding="iso-8859-1"?>
<!-- Generator: Adobe Illustrator 19.0.0, SVG Export Plug-In . SVG Version: 6.00 Build 0)  -->
<svg version="1.1" id="Capa_1" xmlns="http://www.w3.org/2000/svg" xmlns:xlink="http://www.w3.org/1999/xlink" x="0px" y="0px"
	 viewBox="0 0 512 512" style="enable-background:new 0 0 512 512;" xml:space="preserve">
<g>
	<g>
		<path d="M490.367,218.97l-17.61,20.042c-15.272,17.382-37.303,27.353-60.442,27.353c-23.14,0-45.172-9.969-60.445-27.353
			l-17.61-20.042c-13.136,10.03-21.633,25.843-21.633,43.609v119.455h54.514c12.006,0,21.774-9.768,21.774-21.775v-17.01
			l-21.39,21.39c-2.921,2.921-6.75,4.382-10.578,4.382s-7.657-1.461-10.578-4.382c-5.842-5.841-5.842-15.314,0-21.156l44.454-44.454
			c2.805-2.805,6.61-4.382,10.578-4.382c3.967,0,7.773,1.576,10.578,4.382l44.453,44.454c5.842,5.841,5.842,15.314,0,21.156
			c-5.841,5.841-15.314,5.843-21.156,0l-16.441-16.442v12.062c0,28.504-23.19,51.694-51.693,51.694h-54.514v54.589
			c-0.001,8.252,6.709,14.963,14.959,14.963H497.04c8.249,0,14.96-6.711,14.96-14.96V262.58
			C512,244.814,503.503,229.002,490.367,218.97z"/>
	</g>
</g>
<g>
	<g>
		<path d="M460.119,50.429c-12.068-12.854-28.423-19.935-46.054-19.935h-3.504c-17.632,0-33.987,7.08-46.054,19.935
			c-12.067,12.854-18.098,29.625-16.985,47.221l1.752,27.675c2.1,33.184,29.791,59.176,63.04,59.176s60.938-25.993,63.039-59.175
			l1.752-27.676C478.218,80.055,472.185,63.285,460.119,50.429z"/>
	</g>
</g>
<g>
	<g>
		<path d="M362.908,206.246L362.908,206.246l11.438,13.019c9.593,10.92,23.432,17.182,37.967,17.182s28.373-6.262,37.966-17.182
			l11.438-13.019H362.908z"/>
	</g>
</g>
<g>
	<g>
		<path d="M146.352,382.037h53.021V262.58c0-17.766-8.497-33.579-21.633-43.609l-17.61,20.042
			c-15.272,17.382-37.306,27.353-60.444,27.353c-0.001,0,0.001,0-0.001,0c-23.139,0-45.17-9.97-60.442-27.354l-17.61-20.042
			C8.497,229.002,0,244.814,0,262.58v203.965c0,8.249,6.711,14.96,14.96,14.96h169.453c8.249,0,14.96-6.711,14.96-14.96v-54.589
			h-53.021c-28.503,0-51.693-23.19-51.693-51.694v-17.066c0-8.262,6.698-14.96,14.96-14.96c8.262,0,14.96,6.698,14.96,14.96v17.066
			C124.578,372.269,134.346,382.037,146.352,382.037z"/>
	</g>
</g>
<g>
	<g>
		<path d="M147.493,50.429c-12.068-12.854-28.423-19.935-46.054-19.935h-3.504c-17.632,0-33.987,7.08-46.054,19.935
			C39.815,63.285,33.782,80.056,34.895,97.651l1.752,27.675c2.101,33.183,29.79,59.175,63.039,59.175s60.939-25.993,63.04-59.175
			l1.752-27.676C165.591,80.055,159.558,63.285,147.493,50.429z"/>
	</g>
</g>
<g>
	<g>
		<path d="M50.282,206.247l11.438,13.018c9.593,10.92,23.431,17.182,37.966,17.182s28.374-6.262,37.967-17.182l11.438-13.018H50.282
			z"/>
	</g>
</g>
<g>
	<g>
		<rect x="199.375" y="382.035" width="113.256" height="29.92"/>
	</g>
</g>
<g>
</g>
<g>
</g>
<g>
</g>
<g>
</g>
<g>
</g>
<g>
</g>
<g>
</g>
<g>
</g>
<g>
</g>
<g>
</g>
<g>
</g>
<g>
</g>
<g>
</g>
<g>
</g>
<g>
</g>
</svg>
