<?xml version="1.0" encoding="iso-8859-1"?>
<!-- Generator: Adobe Illustrator 19.0.0, SVG Export Plug-In . SVG Version: 6.00 Build 0)  -->
<svg version="1.1" id="Capa_1" xmlns="http://www.w3.org/2000/svg" xmlns:xlink="http://www.w3.org/1999/xlink" x="0px" y="0px"
	 viewBox="0 0 512 512" style="enable-background:new 0 0 512 512;" xml:space="preserve">
<g>
	<g>
		<path d="M497,196.665H330.391c-8.284,0-15,6.716-15,15v29.974h-44.826V181.01c0-8.284-6.716-15-15-15h-58.957v-28.829
			c0-8.284-6.716-15-15-15H15c-8.284,0-15,6.716-15,15v88.606c0,8.284,6.716,15,15,15h166.609c8.284,0,15-6.716,15-15V196.01h43.957
			v118.04h-43.957v-27.837c0-8.284-6.716-15-15-15H15c-8.284,0-15,6.716-15,15v88.606c0,8.284,6.716,15,15,15h166.609
			c8.284,0,15-6.716,15-15V344.05h58.957c8.284,0,15-6.716,15-15v-57.411h44.826v28.632c0,8.284,6.716,15,15,15H497
			c8.284,0,15-6.716,15-15v-88.606C512,203.381,505.284,196.665,497,196.665z M166.609,210.787H30v-58.606h136.609V210.787z
			 M166.609,359.819H30v-58.606h136.609V359.819z M482,285.271H345.391v-58.606H482V285.271z"/>
	</g>
</g>
<g>
</g>
<g>
</g>
<g>
</g>
<g>
</g>
<g>
</g>
<g>
</g>
<g>
</g>
<g>
</g>
<g>
</g>
<g>
</g>
<g>
</g>
<g>
</g>
<g>
</g>
<g>
</g>
<g>
</g>
</svg>
