<?xml version="1.0" encoding="iso-8859-1"?>
<!-- Generator: Adobe Illustrator 16.0.0, SVG Export Plug-In . SVG Version: 6.00 Build 0)  -->
<!DOCTYPE svg PUBLIC "-//W3C//DTD SVG 1.1//EN" "http://www.w3.org/Graphics/SVG/1.1/DTD/svg11.dtd">
<svg version="1.1" id="Capa_1" xmlns="http://www.w3.org/2000/svg" xmlns:xlink="http://www.w3.org/1999/xlink" x="0px" y="0px"
	 width="462.852px" height="462.852px" viewBox="0 0 462.852 462.852" style="enable-background:new 0 0 462.852 462.852;"
	 xml:space="preserve">
<g>
	<g>
		<path d="M250.173,209.472l-10.672-3.707l5.767,23.826c0.108,0.269,0.152,0.549,0.261,0.817L250.173,209.472z"/>
		<path d="M156.438,323.438c5.109,5.113,13.396,5.113,18.518,0l58.579-38.832l6.384-28.81c-12.602,13.713-40.337,22.83-74.22,22.83
			c-46.504,0-81.573-17.128-81.573-39.826c0-2.736,0.551-5.506,1.639-8.265L91.2,206.01l-55.116,19.139
			c-5.113,5.109-5.113,13.399,0,18.52L156.438,323.438z"/>
		<path d="M181.722,0h-36.856L99.906,202.986l-6.628,29.912c-0.824,1.916-1.311,3.887-1.311,5.902
			c0,17.661,33.011,31.976,73.723,31.976c40.713,0,73.719-14.322,73.719-31.976c0-2.271-0.565-4.482-1.591-6.608l-7.124-29.479
			L181.722,0z"/>
		<path d="M426.769,352.876l-55.788-19.372l5.751,23.824c1.334,3.005,2.008,6.087,2.008,9.201c0,22.698-35.073,39.833-81.579,39.833
			c-46.502,0-81.573-17.127-81.573-39.833c0-2.737,0.553-5.507,1.641-8.271l5.432-24.525l-55.118,19.144
			c-5.109,5.113-5.109,13.4,0,18.514l120.353,87.627c5.118,5.113,13.401,5.113,18.519,0l120.355-87.627
			C431.882,366.276,431.882,357.989,426.769,352.876z"/>
		<path d="M224.734,360.626c-0.824,1.916-1.311,3.879-1.311,5.903c0,17.664,33.005,31.983,73.724,31.983
			c40.716,0,73.725-14.319,73.725-31.983c0-2.269-0.564-4.477-1.606-6.608l-7.117-29.486l-48.979-202.71h-36.868l-18.667,84.338
			l-14.684,66.295l-11.589,52.345L224.734,360.626z"/>
	</g>
</g>
<g>
</g>
<g>
</g>
<g>
</g>
<g>
</g>
<g>
</g>
<g>
</g>
<g>
</g>
<g>
</g>
<g>
</g>
<g>
</g>
<g>
</g>
<g>
</g>
<g>
</g>
<g>
</g>
<g>
</g>
</svg>
