<?xml version="1.0" encoding="iso-8859-1"?>
<!-- Generator: Adobe Illustrator 16.0.0, SVG Export Plug-In . SVG Version: 6.00 Build 0)  -->
<!DOCTYPE svg PUBLIC "-//W3C//DTD SVG 1.1//EN" "http://www.w3.org/Graphics/SVG/1.1/DTD/svg11.dtd">
<svg version="1.1" id="Capa_1" xmlns="http://www.w3.org/2000/svg" xmlns:xlink="http://www.w3.org/1999/xlink" x="0px" y="0px"
	 width="468.683px" height="468.683px" viewBox="0 0 468.683 468.683" style="enable-background:new 0 0 468.683 468.683;"
	 xml:space="preserve">
<g>
	<g>
		<path d="M180.102,18.598c-0.008-0.008-0.008-0.016-0.016-0.03c-21.181,16.312-34.913,41.857-34.913,70.599
			c0,4.018,0.365,7.951,0.881,11.836c13.329,5.65,26.848,5.184,41.223,4.496c12.764-0.601,19.681,1.948,24.093-9.103
			c-1.09-0.717-1.934-1.806-1.821-3.228c0.541-7.079,0.763-10.017-4.256-14.523c-1.192,0.731-2.369,1.467-3.579,2.214
			c-1.132,0.699-2.833,0.751-3.965,0c0.353,0.135,0.705,0.265,1.058,0.393c-1.362,0.547-2.785-0.188-3.821-1.014
			c-5.887-4.665-3.61,0.495-12.922,0.495c-4.645,0-9.938-6.083-13.242-8.997c-1.058-0.936-1.327-2.511-1.012-3.821
			c2.481-10.335,3.851-13.788,10.472-16.246c-0.283-1.026-0.188-2.156,0.391-3.011c0.817-1.17,1.581-2.381,2.38-3.565
			c-2.33-0.737-3.661-3.236-2.38-5.596c3.026-5.566,5.953-11.171,8.762-16.839c-1.13-0.112-2.26-0.196-3.406-0.134
			C182.088,22.491,179.833,20.748,180.102,18.598z"/>
		<path d="M309.68,41.677c-0.031,0.533-0.063,1.062-0.084,1.595c1.379,2.376-0.34,6.202-3.398,5.903
			c-0.965-0.096-1.814-0.172-2.576-0.24c1.779,1.819,3.618,3.583,5.153,5.626c2.593,3.116,5.334,7.498,6.464,11.431
			c2.834,9.954,2.797,21.101-3.979,29.657c-8.908,11.227-16.899,6.659-18.578-3.446c-4.772,2.489-9.021,3.493-14.15,2.331
			c-2.168,14.589-6.18,36.718,12.03,39.176c0.773,0.098,1.318,0.405,1.768,0.786c4.271-1.806,8.58-3.865,12.844-6.284l12.274-6.953
			c3.855-9.97,6.063-20.772,6.063-32.091C323.51,71.707,318.389,55.446,309.68,41.677z"/>
		<path d="M234.341,0c-16.799,0-32.479,4.757-45.909,12.868c0.196,1.1-0.046,1.978-1.453,1.851c3.312,0.307,4.286,0.323,7.244,1.399
			c2.523,0.916,3.489,3.35,2.35,5.761c-2.418,5.117-5.025,10.128-7.67,15.112c2.645,0.312,4.781,3.218,3.094,5.819
			c-1.353,2.134-2.795,4.216-4.21,6.312l1.493,0.746c3.023,1.505,2.284,6.446-0.936,7.175c-17.749,4.027-11.059,18.292,5.114,12.058
			c1.695-0.651,3.514,0.449,4.434,1.806c0.877,1.311,0.99,1.852,0.916,2.07c0.216-0.008,0.553,0.028,1.234,0.214
			c1.006,0.276,7.396-4.945,9.986-6.987c0.008-0.008,0.016-0.016,0.016-0.016l0,0c0.321-0.261,0.613-0.479,0.793-0.621
			c3.799-2.839,7.432,3.001,4.757,6.165c-5.504,6.508,8.217,10.119-1.625,18c2.936-2.346,7.616-0.269,6.562,3.821
			c-1.663,6.44-4.09,11.902-6.939,17.947c-0.543,1.146-2.134,2.04-3.392,1.947c-21.312-1.709-42.306,2.897-62.474-3.502
			c0.974,4.052,2.208,8.003,3.715,11.818c2.331,0.793,5.047,2.25,9.111,4.719c29.753,18.045,62.226,19.44,71.471,19.44
			c1.212,0,1.901-0.022,1.974-0.03l0.353-0.014l0.338,0.014c0.084,0,0.757,0.03,1.94,0.03c6.245,0,23.786-0.681,43.875-7.071
			c-7.529-3.815-10.427-11.209-11.164-19.703c-0.297,0.068-0.558,0.181-0.902,0.181c-5.062,0-5.062-7.851,0-7.851
			c0.272,0,0.473,0.1,0.718,0.148c0.248-7.708,1.519-15.669,2.224-22.223c0.337-3.118,3.038-4.681,5.903-3.392
			c6.64,1.587,12.358,0.274,17.144-3.925c2.36-1.507,6.18,0.425,5.903,3.392c-1.896,3.893-0.882,6.428,3.021,7.604
			c7.313-9.325,8.11-19.013,2.368-29.06c-4.316-6.596-8.656-11.055-14.543-16c-1.274-1.076-1.519-3.392-0.613-4.757
			c0.337-0.487,0.657-0.979,0.979-1.475c1.073-1.603,2.592-2.106,4.447-1.805c1.267,0.165,2.529,0.329,3.804,0.493
			c-1.058-3.648-0.478-6.696,1.871-9.64C285.283,11.996,261.206,0,234.341,0z M271.529,65.118
			c-3.618,3.495-10.087,2.276-14.459,1.579c-1.21-0.196-2.528-1.539-2.736-2.741c-1.026-5.935-4.762-9.794-10.5-11.485
			c-1.45-0.425-2.216-1.42-2.541-2.532c-3.357-1.267-2.801-7.342,1.611-7.624c9.838-0.638,22.005,4.466,28.104,12.347
			C273.4,57.757,274.752,62.021,271.529,65.118z M267.911,41.228c-0.902-2.376-3.234-1.912-5.382-1.701
			c-1.211,0.126-2.116-0.26-2.741-0.89c-0.369,0.112-0.737,0.239-1.183,0.239c-5.062,0-5.062-7.851,0-7.851
			c1.15,0,1.992,0.433,2.613,1.05c0.4-0.18,0.805-0.353,1.311-0.399c6.171-0.613,10.703,1.557,12.943,7.46
			C277.272,43.885,269.682,45.917,267.911,41.228z"/>
		<path d="M234.341,468.675c0.926,0.008,1.585,0.008,1.852,0.008v-0.028c15.62-0.293,73.993-3.267,73.993-33.266
			c0,0-12.496-35.603-31.447-58.264c0,0-19.275,13.829-44.397,13.829c-26.668,0-44.395-13.829-44.395-13.829
			c-18.959,22.661-31.448,58.264-31.448,58.264c0,29.999,58.368,32.973,73.989,33.266v0.028
			C232.754,468.683,233.415,468.683,234.341,468.675z"/>
		<path d="M316.484,140.546c-5.133,5.559-9.817,11.494-14.149,17.711c-24.534,35.237-37.153,79.806-49.692,119.588
			c-10.335,32.772-25.565,74.462-57.318,90.769c6.608,4.212,20.464,11.269,39.017,11.269c26.413,0,43.34-14.335,43.34-14.335
			c0-129.9,24.064-196.466,39.858-226.189C317.178,139.747,316.846,140.159,316.484,140.546z"/>
		<path d="M148.724,134.689c0.135,0.276,0.329,0.637,0.479,0.936c0.479,0.932,0.928,1.835,1.549,2.99
			c15.573,29.03,39.62,94.431,40.207,222.179l0,0c37.706-18.213,50.3-77.475,60.963-113.31c7.338-24.62,16.695-50.275,29.667-73.661
			c1.351-2.434,2.854-4.765,4.28-7.153c1.924-3.208,3.907-6.376,5.979-9.472c5.241-7.805,10.892-15.289,17.188-22.165
			c-30.865,17.492-63.63,18.749-72.416,18.749c-1.477,0-2.271-0.042-2.271-0.042s-0.815,0.042-2.326,0.042
			c-9.097,0-43.356-1.36-74.881-20.208c-0.223-0.134-0.441-0.242-0.659-0.376c-2.375-1.437-4.256-2.531-5.717-3.258
			c-1.383-0.689-2.395-1.062-3.023-1.062c-1.327,0-0.996,1.657,0.651,5.122C148.505,134.227,148.598,134.467,148.724,134.689z"/>
	</g>
</g>
<g>
</g>
<g>
</g>
<g>
</g>
<g>
</g>
<g>
</g>
<g>
</g>
<g>
</g>
<g>
</g>
<g>
</g>
<g>
</g>
<g>
</g>
<g>
</g>
<g>
</g>
<g>
</g>
<g>
</g>
</svg>
