<?xml version="1.0" encoding="iso-8859-1"?>
<!-- Generator: Adobe Illustrator 16.0.0, SVG Export Plug-In . SVG Version: 6.00 Build 0)  -->
<!DOCTYPE svg PUBLIC "-//W3C//DTD SVG 1.1//EN" "http://www.w3.org/Graphics/SVG/1.1/DTD/svg11.dtd">
<svg version="1.1" id="Capa_1" xmlns="http://www.w3.org/2000/svg" xmlns:xlink="http://www.w3.org/1999/xlink" x="0px" y="0px"
	 width="475.615px" height="475.615px" viewBox="0 0 475.615 475.615" style="enable-background:new 0 0 475.615 475.615;"
	 xml:space="preserve">
<g>
	<g>
		<path d="M316.18,225.854c6.483,3.791,11.669,6.822,16.65,7.439c6.548,2.106,29.255,11.093,48.237,18.907
			c2.008,0.833,4.088,1.218,6.123,1.218c6.328,0,12.34-3.763,14.9-9.974c3.378-8.218-0.537-17.629-8.765-21.013
			c-31.791-13.094-46.675-19.067-54.886-20.953c-7.342-3.887-33.186-19.791-55.848-34.127c-1.442-0.908-2.989-1.491-4.561-1.898
			c-0.04-0.266-0.071-0.44-0.071-0.44s-15.377-2.126-38.514-3.737c-5.663,3.917-12.505,6.248-19.895,6.248
			c-8.359,0-15.95-3.058-21.981-7.965c-0.892-0.008-1.797-0.016-2.688-0.022l-55.034-57.67l-37.267-53.163h23.912V0H91.254v40.719
			c-4.073-0.731-8.423,0.096-12.083,2.661c-5.626,3.947-7.96,10.844-6.374,17.13c0.463,1.844,1.272,3.641,2.426,5.29l38.938,55.551
			c0.471,0.659,0.979,1.289,1.537,1.877l57.865,60.626c1.587,1.663,3.455,2.897,5.452,3.729c2.046,27.052,5.021,65.039,6.127,72.46
			L161.272,316.3c-0.549,1.286-0.958,2.629-1.223,4l-25.663,131.327c-2.128,10.899,4.983,21.479,15.889,23.611
			c1.302,0.261,2.597,0.377,3.879,0.377c9.425,0,17.849-6.664,19.725-16.263l25.257-129.263l27.146-63.959
			c6.428,0.177,13.052,0.276,19.442,0.288l23.929,58.657l26.289,124.018c2.007,9.47,10.362,15.954,19.66,15.954
			c1.383,0,2.793-0.145,4.195-0.438c10.872-2.312,17.817-13,15.509-23.872l-26.665-125.781c-0.253-1.174-0.598-2.315-1.05-3.426
			l-20.851-51.119c1.619-9.874-0.514-33.224-3.082-54.349c3.646,2.271,7.542,4.689,11.478,7.104
			C303.937,218.561,311.006,222.831,316.18,225.854z"/>
		<path d="M206.428,159.714c3.99,1.932,8.41,3.111,13.145,3.111c3.851,0,7.508-0.793,10.9-2.104
			c11.361-4.39,19.452-15.349,19.452-28.254c0-16.771-13.587-30.36-30.353-30.36c-16.771,0-30.36,13.589-30.36,30.36
			C189.212,144.503,196.269,154.799,206.428,159.714z"/>
	</g>
</g>
<g>
</g>
<g>
</g>
<g>
</g>
<g>
</g>
<g>
</g>
<g>
</g>
<g>
</g>
<g>
</g>
<g>
</g>
<g>
</g>
<g>
</g>
<g>
</g>
<g>
</g>
<g>
</g>
<g>
</g>
</svg>
