<?xml version="1.0" encoding="iso-8859-1"?>
<!-- Generator: Adobe Illustrator 16.0.0, SVG Export Plug-In . SVG Version: 6.00 Build 0)  -->
<!DOCTYPE svg PUBLIC "-//W3C//DTD SVG 1.1//EN" "http://www.w3.org/Graphics/SVG/1.1/DTD/svg11.dtd">
<svg version="1.1" id="Capa_1" xmlns="http://www.w3.org/2000/svg" xmlns:xlink="http://www.w3.org/1999/xlink" x="0px" y="0px"
	 width="469.779px" height="469.778px" viewBox="0 0 469.779 469.778" style="enable-background:new 0 0 469.779 469.778;"
	 xml:space="preserve">
<g>
	<g>
		<path d="M333.664,58.08c16.778,0,30.38,13.603,30.38,30.382c0,16.777-13.602,30.382-30.38,30.382
			c-16.783,0-30.385-13.605-30.385-30.382C303.279,71.683,316.88,58.08,333.664,58.08z"/>
		<path d="M36.08,241.251c16.779,0,30.382,13.609,30.382,30.385c0,16.771-13.603,30.38-30.382,30.38
			c-16.777,0-30.38-13.609-30.38-30.38C5.699,254.86,19.303,241.251,36.08,241.251z"/>
		<path d="M288.64,248.42c20.245-9.201,48.962-44.683,69.096-72.189c34.235,52.66,69.938,116.163,70.899,131.219
			c-0.77,11.133,7.489,20.887,18.65,21.897c0.638,0.06,1.267,0.092,1.888,0.092c10.516,0,19.488-8.035,20.462-18.707
			c1.062-11.714-2.945-32.428-40.731-97.284c-19.833-34.055-39.646-64.191-40.479-65.457c-3.591-5.454-9.345-8.556-15.388-9.087
			l-63.931-22.885l-4.208-1.511l-1.611-0.571l-0.26,0.281c-0.91-0.125-1.824-0.281-2.781-0.281h-88.26
			c-11.361,0-20.57,9.207-20.57,20.568c0,11.359,9.209,20.566,20.57,20.566h53.423l-50.379,54.717l0.038,0.054l-60.304,54.479
			c-5.504,4.974-7.734,12.487-6.155,19.657L9.412,373.856c-9.536,6.164-12.285,18.892-6.121,28.429
			c3.933,6.096,10.542,9.414,17.292,9.414c3.825,0,7.686-1.059,11.13-3.29l160.902-103.885l123.106,20.883
			c1.166,0.2,2.324,0.292,3.466,0.292c9.843,0,18.547-7.101,20.254-17.128c1.903-11.192-5.643-21.82-16.843-23.72l-78.818-13.373
			l31.426-20.281C279.715,251.241,284.215,250.428,288.64,248.42z"/>
	</g>
</g>
<g>
</g>
<g>
</g>
<g>
</g>
<g>
</g>
<g>
</g>
<g>
</g>
<g>
</g>
<g>
</g>
<g>
</g>
<g>
</g>
<g>
</g>
<g>
</g>
<g>
</g>
<g>
</g>
<g>
</g>
</svg>
