<?xml version="1.0" encoding="iso-8859-1"?>
<!-- Generator: Adobe Illustrator 16.0.0, SVG Export Plug-In . SVG Version: 6.00 Build 0)  -->
<!DOCTYPE svg PUBLIC "-//W3C//DTD SVG 1.1//EN" "http://www.w3.org/Graphics/SVG/1.1/DTD/svg11.dtd">
<svg version="1.1" id="Capa_1" xmlns="http://www.w3.org/2000/svg" xmlns:xlink="http://www.w3.org/1999/xlink" x="0px" y="0px"
	 width="321.035px" height="321.034px" viewBox="0 0 321.035 321.034" style="enable-background:new 0 0 321.035 321.034;"
	 xml:space="preserve">
<g>
	<g>
		<path d="M293.642,109.938c15.131,0,27.393,12.265,27.393,27.393s-12.262,27.392-27.393,27.392
			c-15.125,0-27.393-12.264-27.393-27.392S278.517,109.938,293.642,109.938z"/>
		<path d="M6.997,134.663c11.835,8.505,32.801,15.62,64.103,21.743c16.319,3.192,30.859,5.199,37.513,6.038l13.787,8.543
			l-13.854-7.099L11.781,222.22c-7.948,4.795-10.506,15.12-5.717,23.063c3.154,5.23,8.707,8.13,14.4,8.13
			c2.954,0,5.945-0.782,8.661-2.424l80.737-48.674l34.318,17.574l-0.652,0.829c28.573,19.045,70.904,10.231,100.911-1.077
			l-0.01,0.082l-49.156,37.687c-7.363,5.649-8.756,16.197-3.106,23.556c3.309,4.313,8.3,6.581,13.344,6.581
			c3.573,0,7.167-1.129,10.217-3.469l59.926-45.951l6.851-45.728c0.602-3.987-0.259-7.855-2.175-11.071
			c-5.09-12.856-19.313-24.062-36.749-16.596l-34.507-23.314c-7.689-5.196-18.139-3.177-23.327,4.513
			c-5.199,7.687-3.175,18.129,4.51,23.328l11.175,7.549c-3.755-0.466-7.006-1.336-9.673-2.289c-0.44-0.341-0.906-0.662-1.388-0.957
			l-70.41-43.623l-3.749-0.425c-50.873-5.769-81.959-16.646-89.605-22.137c-7.534-5.419-18.033-3.697-23.446,3.837
			C-2.256,118.746-0.538,129.244,6.997,134.663z"/>
		<circle cx="90.944" cy="60.88" r="27.392"/>
	</g>
</g>
<g>
</g>
<g>
</g>
<g>
</g>
<g>
</g>
<g>
</g>
<g>
</g>
<g>
</g>
<g>
</g>
<g>
</g>
<g>
</g>
<g>
</g>
<g>
</g>
<g>
</g>
<g>
</g>
<g>
</g>
</svg>
