<?xml version="1.0" encoding="iso-8859-1"?>
<!-- Generator: Adobe Illustrator 16.0.0, SVG Export Plug-In . SVG Version: 6.00 Build 0)  -->
<!DOCTYPE svg PUBLIC "-//W3C//DTD SVG 1.1//EN" "http://www.w3.org/Graphics/SVG/1.1/DTD/svg11.dtd">
<svg version="1.1" id="Capa_1" xmlns="http://www.w3.org/2000/svg" xmlns:xlink="http://www.w3.org/1999/xlink" x="0px" y="0px"
	 width="317.854px" height="317.854px" viewBox="0 0 317.854 317.854" style="enable-background:new 0 0 317.854 317.854;"
	 xml:space="preserve">
<g>
	<g>
		<path d="M300.282,146.817c-5.162-9.163-14.524-14.858-24.425-14.858c-4.246,0-8.42,1.087-12.07,3.146l-17.974,10.121
			c0.124,1.633,0.047,3.187-0.202,4.684c-0.352,2.104-1.107,4.039-2.216,5.81l24.301-13.686c2.553-1.442,5.349-2.121,8.166-2.121
			c6.768,0,13.634,3.951,17.497,10.807c5.463,9.704,8.59,21.702-0.124,26.61l-69.507,49.027c-0.476,7.627-1.739,16.414-4.691,22.814
			c-1.879-0.787-3.883-1.326-5.985-1.439l-38.96-2.175c-0.321,1.388-0.679,2.703-1.104,3.92c-0.207,0.595-0.461,1.129-0.693,1.693
			c1.103,0.673,2.087,1.512,2.998,2.423l37.318,2.082c0.508,0.031,0.989,0.135,1.471,0.232c1.502,0.306,2.89,0.917,4.06,1.797
			c1.072,0.813,1.963,1.833,2.641,2.993c0.964,1.646,1.477,3.583,1.357,5.634l-1.688,30.261c-0.306,5.375-4.759,9.538-10.082,9.538
			c-0.191,0-0.383-0.01-0.569-0.021l-27.848-1.554c-0.611,1.388-1.357,2.703-2.314,3.858c-1.243,1.496-2.75,2.749-4.454,3.733
			l34.176,1.905c0.337,0.021,0.679,0.031,1.015,0.031c9.569,0,17.487-7.487,18.021-17.057l1.688-30.261
			c0.27-4.744-1.325-9.306-4.447-12.879c2.94-5.706,4.856-13.364,5.747-23.192l66.161-46.66
			C306.195,178.872,311.363,166.486,300.282,146.817z"/>
		<path d="M236.001,124.016c0.812,1.03,1.46,2.032,2.17,3.045c1.408,1.999,2.63,3.956,3.65,5.88
			c0.342-6.628,0.834-13.894,1.584-21.717l0.917-9.603l-0.347,0.031l4.318-46.137c0.994-6.701-0.528-13.404-4.298-18.903
			c-3.909-5.701-9.761-9.427-16.461-10.493c-1.264-0.202-2.553-0.303-3.832-0.303c-4.898,0-9.497,1.426-13.396,3.935
			c-1.823-11.987-11.62-21.391-23.758-21.883c-0.331-0.015-0.668-0.021-0.994-0.021l0,0c-10.268,0-19.107,6.325-23.021,15.503
			c-0.238-0.197-0.508-0.339-0.741-0.526c0.989,2.413,1.518,4.995,1.735,7.653c0.052,0.673,0.191,1.326,0.196,2.004l2.165,34.258
			l2.443-33.544c0.399-9.75,8.037-17.401,17.213-17.401c0.223,0,0.45,0.005,0.673,0.016c9.476,0.386,16.823,8.797,16.414,18.781
			l-1.786,43.897l5.629-29.336c1.424-8.964,8.859-15.39,17.217-15.39c0.854,0,1.714,0.07,2.579,0.207
			c9.362,1.491,15.685,10.695,14.115,20.567l-5.235,55.952l0.326-0.031c-0.393,4.12-0.704,8.044-0.979,11.866
			C235.018,122.882,235.53,123.423,236.001,124.016z"/>
		<path d="M11.695,76.4l15.324,65.368c0.673,2.869,2.11,5.334,3.972,7.361c0.86,11.029,1.712,23.343,1.712,28.655
			c0,9.652,19.685,70.433,33.645,83.119c2.292-1.709,5.015-2.89,8.055-3.189l40.599-4.102l3.415-0.347l1.46-0.15l3.785-0.378
			l2.809-0.284l6.103-0.611l4.047-0.409l25.406-2.563l0.094-0.01c0.554-0.062,1.107-0.088,1.651-0.088l0,0
			c1.165,0,2.299,0.149,3.402,0.378c0.072,0.021,0.134,0.041,0.212,0.062c0.005-0.021,0.016-0.031,0.021-0.052
			c0.513-1.217,0.948-2.517,1.3-3.904c1.859-7.296,1.704-16.601,0.942-24.616l63.572-61.713l3.008-2.921
			c0.72-0.572,1.315-1.198,1.849-1.846c3.879-4.741,2.822-11.34-0.408-17.826c-1.036-2.069-2.289-4.12-3.667-6.097
			c-0.693-0.997-1.408-1.973-2.164-2.923c-4.599-5.811-11.241-8.907-17.663-8.907c-4.105,0-8.129,1.266-11.469,3.907l-33.834,26.771
			c-1.734-10.248-4.712-30.414-6.24-55.323l-0.347,0.088l-3.862-61.195c0-0.815-0.133-1.595-0.229-2.39
			c-0.254-2.206-0.82-4.285-1.701-6.206c-0.965-2.092-2.227-3.992-3.79-5.592c-3.368-3.436-7.928-5.572-12.981-5.58
			c-0.005,0-0.016,0-0.021,0c-10.336,0-18.717,8.824-18.729,19.727l-0.557,16.756l-0.132,4.003l-0.138,4.078l-0.259,7.736
			l-0.935-8.018l-0.466-4.023l-0.466-4.013l-3.668-31.561C113.179,7.475,104.971,0,95.542,0c-0.688,0-1.377,0.036-2.074,0.121
			C83.192,1.315,75.886,11.065,77.149,21.898l4.362,52.084l-8.267-41.534c-1.771-8.911-9.008-15.18-16.899-15.18
			c-0.963,0-1.939,0.096-2.916,0.288c-8.956,1.781-14.602,11.334-12.614,21.341l9.898,59.101l-6.827-29.143
			c-1.789-7.619-8.58-12.764-16.083-12.764c-1.25,0-2.519,0.145-3.785,0.44C15.131,58.611,9.611,67.509,11.695,76.4z"/>
		<path d="M178.048,296.882l-3.076-30.457l-0.243-2.435c-0.058-0.559-0.187-1.087-0.321-1.615c-0.398-1.585-1.129-3.014-2.112-4.226
			c-0.726-0.891-1.569-1.646-2.527-2.273c-0.761-0.502-1.59-0.891-2.465-1.186c-0.958-0.331-1.973-0.518-3.023-0.574
			c-0.166-0.011-0.332-0.047-0.503-0.047c-0.367,0-0.74,0.016-1.118,0.057l-11.472,1.155l-14.476,1.465l-12.179,1.228l-2.791,0.285
			l-4.171,0.419l-4.067,0.404l-38.574,3.894c-0.717,0.072-1.4,0.223-2.063,0.42c-1.463,0.439-2.793,1.165-3.92,2.117
			c-0.756,0.632-1.388,1.398-1.949,2.206c-1.432,2.076-2.201,4.619-1.926,7.322l3.319,32.901c0.575,5.676,5.362,9.911,10.957,9.911
			c0.37,0,0.74-0.011,1.119-0.052l69.943-7.063l17.782-1.796c1.253-0.13,2.408-0.498,3.49-1c1.807-0.834,3.324-2.128,4.432-3.738
			C177.551,302.144,178.322,299.596,178.048,296.882z M119.949,284.289c-1.417,0.481-2.789,0.963-4.062,1.444
			c-1.509,0.575-2.845,1.145-4.075,1.719c-2.535,1.176-4.44,2.325-5.199,3.402c-4.484,6.354,5.988,9.569,5.988,9.569
			c-10.563-1.941-21.507-6.855-13.188-18.729c2.216-3.164,7.112-5.059,13.062-6.183c1.297-0.243,2.628-0.461,4.018-0.632
			c1.315-0.16,2.646-0.305,4.008-0.419c15.366-1.212,32.998,0.922,32.998,0.922S133.907,279.598,119.949,284.289z"/>
	</g>
</g>
<g>
</g>
<g>
</g>
<g>
</g>
<g>
</g>
<g>
</g>
<g>
</g>
<g>
</g>
<g>
</g>
<g>
</g>
<g>
</g>
<g>
</g>
<g>
</g>
<g>
</g>
<g>
</g>
<g>
</g>
</svg>
