<?xml version="1.0" encoding="iso-8859-1"?>
<!-- Generator: Adobe Illustrator 16.0.0, SVG Export Plug-In . SVG Version: 6.00 Build 0)  -->
<!DOCTYPE svg PUBLIC "-//W3C//DTD SVG 1.1//EN" "http://www.w3.org/Graphics/SVG/1.1/DTD/svg11.dtd">
<svg version="1.1" id="Capa_1" xmlns="http://www.w3.org/2000/svg" xmlns:xlink="http://www.w3.org/1999/xlink" x="0px" y="0px"
	 width="275.055px" height="275.056px" viewBox="0 0 275.055 275.056" style="enable-background:new 0 0 275.055 275.056;"
	 xml:space="preserve">
<g>
	<g>
		<path d="M45.068,38.218c0.174,3.922,0.401,8.08,0.709,12.456c9.072,2.2,29.062,4.422,62.961-4.497
			c-0.355-4.119-0.821-8.096-1.421-11.876c-17.652,4.336-31.771,5.81-42.647,5.81C56.235,40.11,49.834,39.246,45.068,38.218z"/>
		<path d="M87.042,6.53H55.344c-5.859,0-10.76,4.746-10.76,10.6c0,2.879,0.039,6.32,0.117,10.118
			c8.241,2.185,27.472,4.792,60.485-3.369c-0.748-2.858-1.595-5.545-2.565-8.021C100.487,10.406,92.901,6.53,87.042,6.53z"/>
		<path d="M109.401,56.934c-18.62,4.746-33.438,6.343-44.731,6.343c-7.454,0-13.393-0.673-17.963-1.538
			c1.442,15.118,3.827,31.654,7.757,47.383c11.876,47.512,17.279,61.534,0,91.779c-17.282,30.245-59.388,45.355-53.99,58.311
			c5.398,12.956,44.731,11.868,65.019,0c20.285-11.868,20.011-38.333,35.398-39.949c15.387-1.62-2.429-31.581,0-51.02
			C102.524,155.143,111.13,100.77,109.401,56.934z"/>
		<path d="M166.317,46.177c33.896,8.919,53.889,6.697,62.96,4.497c0.312-4.371,0.539-8.526,0.715-12.456
			c-4.764,1.022-11.169,1.888-19.599,1.888c-10.875,0-24.995-1.468-42.647-5.811C167.14,38.081,166.673,42.058,166.317,46.177z"/>
		<path d="M230.468,17.13c0-5.854-4.898-10.6-10.761-10.6h-31.695c-5.855,0-13.447,3.881-15.58,9.333
			c-0.969,2.475-1.818,5.163-2.568,8.021c33.01,8.155,52.247,5.559,60.485,3.368C230.432,23.444,230.468,20.009,230.468,17.13z"/>
		<path d="M220.593,200.896c-17.279-30.24-11.878-44.263,0-91.78c3.931-15.729,6.317-32.265,7.757-47.382
			c-4.566,0.864-10.506,1.538-17.963,1.538c-11.293,0-26.107-1.597-44.738-6.338c-1.725,43.835,6.881,98.208,8.518,111.298
			c2.429,19.438-15.39,49.399,0,51.021c15.39,1.62,15.115,28.081,35.397,39.949c20.288,11.868,59.621,12.955,65.017,0
			C279.981,246.251,237.873,231.142,220.593,200.896z"/>
	</g>
</g>
<g>
</g>
<g>
</g>
<g>
</g>
<g>
</g>
<g>
</g>
<g>
</g>
<g>
</g>
<g>
</g>
<g>
</g>
<g>
</g>
<g>
</g>
<g>
</g>
<g>
</g>
<g>
</g>
<g>
</g>
</svg>
