<?xml version="1.0" encoding="iso-8859-1"?>
<!-- Generator: Adobe Illustrator 16.0.0, SVG Export Plug-In . SVG Version: 6.00 Build 0)  -->
<!DOCTYPE svg PUBLIC "-//W3C//DTD SVG 1.1//EN" "http://www.w3.org/Graphics/SVG/1.1/DTD/svg11.dtd">
<svg version="1.1" id="Capa_1" xmlns="http://www.w3.org/2000/svg" xmlns:xlink="http://www.w3.org/1999/xlink" x="0px" y="0px"
	 width="348.117px" height="348.117px" viewBox="0 0 348.117 348.117" style="enable-background:new 0 0 348.117 348.117;"
	 xml:space="preserve">
<g>
	<g>
		<path d="M236.17,3.274c-61.725,0-111.944,50.219-111.944,111.945c0,12.389,2.1,24.279,5.839,35.43l-63.337,96.064l54.123-35.682
			L0,344.843l161.838-146.159c4.699,4.192,9.748,7.995,15.11,11.354L85.052,322.602l121.006-98.803l-1.166-1.158
			c9.942,2.889,20.422,4.524,31.278,4.524c61.714,0,111.947-50.218,111.947-111.946C348.117,53.493,297.884,3.274,236.17,3.274z
			 M180.042,142.412c-9.505,0-17.867,4.649-23.145,11.73c-5.784-11.762-9.119-24.933-9.119-38.922
			c0-13.992,3.334-27.163,9.119-38.922c5.278,7.079,13.64,11.728,23.145,11.728c15.99,0,28.938-12.956,28.938-28.936
			c0-9.506-4.653-17.867-11.729-23.145c11.758-5.785,24.938-9.119,38.92-9.119c13.985,0,27.162,3.334,38.916,9.111
			c-7.085,5.277-11.729,13.639-11.729,23.153c0,15.979,12.956,28.936,28.949,28.936c9.506,0,17.861-4.649,23.135-11.736
			c5.791,11.76,9.125,24.93,9.125,38.922c0,13.99-3.334,27.168-9.125,38.922c-5.273-7.081-13.629-11.738-23.135-11.738
			c-15.993,0-28.949,12.952-28.949,28.938c0,9.51,4.645,17.873,11.729,23.155c-11.754,5.774-24.931,9.108-38.916,9.108
			c-13.982,0-27.162-3.334-38.92-9.124c7.076-5.274,11.729-13.63,11.729-23.14C208.979,155.368,196.031,142.412,180.042,142.412z"/>
		<path d="M236.17,86.282c15.978,0,28.934,12.956,28.934,28.938c0,15.979-12.956,28.936-28.934,28.936
			c-15.974,0-28.93-12.956-28.93-28.936C207.24,99.238,220.196,86.282,236.17,86.282z"/>
	</g>
</g>
<g>
</g>
<g>
</g>
<g>
</g>
<g>
</g>
<g>
</g>
<g>
</g>
<g>
</g>
<g>
</g>
<g>
</g>
<g>
</g>
<g>
</g>
<g>
</g>
<g>
</g>
<g>
</g>
<g>
</g>
</svg>
