<?xml version="1.0" encoding="iso-8859-1"?>
<!-- Generator: Adobe Illustrator 16.0.0, SVG Export Plug-In . SVG Version: 6.00 Build 0)  -->
<!DOCTYPE svg PUBLIC "-//W3C//DTD SVG 1.1//EN" "http://www.w3.org/Graphics/SVG/1.1/DTD/svg11.dtd">
<svg version="1.1" id="Capa_1" xmlns="http://www.w3.org/2000/svg" xmlns:xlink="http://www.w3.org/1999/xlink" x="0px" y="0px"
	 width="317.575px" height="317.574px" viewBox="0 0 317.575 317.574" style="enable-background:new 0 0 317.575 317.574;"
	 xml:space="preserve">
<g>
	<g>
		<circle cx="218.25" cy="159.751" r="25.361"/>
		<circle cx="197.961" cy="25.362" r="25.362"/>
		<path d="M23.687,194.646c-4.984-0.859-10.089,0.715-13.717,4.246c-3.627,3.541-5.333,8.596-4.596,13.607L18.9,304.09
			c1.157,7.845,7.896,13.484,15.589,13.484c0.769,0,1.543-0.052,2.322-0.171c8.622-1.274,14.582-9.295,13.311-17.917l-10.341-70.003
			l57.966,10.077c0.28,0.041,0.557,0.021,0.836,0.057c2.053,0.715,4.324,1.352,6.936,1.864c32.164,6.281,66.174-8.28,86.949-22.229
			l41.844,30.479c1.792,1.305,3.837,2.216,6.007,2.672l52.982,11.277c1.108,0.233,2.211,0.347,3.299,0.347
			c7.291,0,13.836-5.079,15.42-12.494c1.812-8.528-3.629-16.906-12.158-18.725l-49.684-10.573l-40.188-29.277
			c-4.36-5.841-14.151-11.475-24.172-14.063l-29.447-29.011l4.298-42.064c0.885-8.668-5.424-16.415-14.093-17.305
			c-8.696-0.88-16.417,5.424-17.308,14.092l-5.075,49.599c-0.487,4.764,1.214,9.491,4.624,12.852l13.655,13.443
			c-12.477-0.43-23.431-2.145-23.431-2.145c-0.019,0.011-0.039,0.021-0.055,0.031L46.738,11.757
			C43.271,3.759,33.976,0.09,25.979,3.56c-7.995,3.467-11.664,12.756-8.197,20.757l75.522,174.161
			c0.523,1.211,1.214,2.293,1.983,3.303c-1.199,1.554-2.341,3.128-3.395,4.729L23.687,194.646z"/>
	</g>
</g>
<g>
</g>
<g>
</g>
<g>
</g>
<g>
</g>
<g>
</g>
<g>
</g>
<g>
</g>
<g>
</g>
<g>
</g>
<g>
</g>
<g>
</g>
<g>
</g>
<g>
</g>
<g>
</g>
<g>
</g>
</svg>
