<?xml version="1.0" encoding="iso-8859-1"?>
<!-- Generator: Adobe Illustrator 16.0.0, SVG Export Plug-In . SVG Version: 6.00 Build 0)  -->
<!DOCTYPE svg PUBLIC "-//W3C//DTD SVG 1.1//EN" "http://www.w3.org/Graphics/SVG/1.1/DTD/svg11.dtd">
<svg version="1.1" id="Capa_1" xmlns="http://www.w3.org/2000/svg" xmlns:xlink="http://www.w3.org/1999/xlink" x="0px" y="0px"
	 width="478.519px" height="478.519px" viewBox="0 0 478.519 478.519" style="enable-background:new 0 0 478.519 478.519;"
	 xml:space="preserve">
<g>
	<g>
		<ellipse cx="372.853" cy="135.145" rx="26.337" ry="26.33"/>
		<path d="M26.331,275.496c14.543,0,26.329,11.79,26.329,26.329c0,14.543-11.786,26.325-26.329,26.325
			C11.792,328.15,0,316.368,0,301.825C0,287.286,11.792,275.496,26.331,275.496z"/>
		<path d="M408.503,199.496c-1.019-2.373-2.722-4.131-4.646-5.556l0.112-0.134l-2.016-1.289l-71.873-45.941l-2.833-1.805
			l-2.878-1.836l-0.496,0.673c-0.906-0.18-1.84-0.282-2.79-0.282h-61.057l-50.295-24.303c-7.121-3.438-15.723-0.457-19.181,6.685
			c-3.453,7.137-0.453,15.735,6.688,19.182l53.267,25.733c1.947,0.942,4.079,1.429,6.247,1.429h46.105l-58.797,79.558
			c-28.867,15.749-63.856,34.784-74.075,40.187c-2.028,0.705-4.038,1.835-6.111,3.39c-1.13,0.842-2.112,1.824-3.003,2.854
			l18.426-5.858l0.673-0.201l55.539-15.869c-0.022,0.309-0.084,0.585-0.084,0.89c0,0.766,0.1,1.551,0.276,2.333
			c0.227,1.01,0.625,1.991,1.104,2.941l-55.102,15.749c-0.188,0.044-0.369,0.104-0.549,0.16l-24.305,7.734l-82.828,26.389
			c-10.083,3.202-15.647,13.974-12.435,24.057c2.599,8.151,10.127,13.341,18.242,13.341c1.924,0,3.888-0.284,5.819-0.906
			l95.006-30.252l11.844-3.778l31.096-8.885l81.741-23.352c1.383-0.4,2.661-0.953,3.863-1.61l0.846,0.613l2.93-3.367l2.713-3.121
			l6.283-7.205l3.431-3.924l59.054-67.708l19.832,46.104c0.529,1.218,1.211,2.36,2.048,3.386l46.679,57.454
			c2.846,3.495,6.985,5.303,11.157,5.303c3.186,0,6.392-1.042,9.044-3.219c6.147-4.997,7.098-14.038,2.084-20.201l-45.416-55.911
			L408.503,199.496z"/>
		<path d="M228.73,330.932l-34.352,9.813l-8.337,2.661c5.147,4.661,10.63,9.742,15.605,14.475c3.705,3.543,8.456,5.274,13.197,5.274
			c5.063,0,10.112-1.992,13.879-5.951C235.779,349.814,235.661,338.285,228.73,330.932z"/>
	</g>
</g>
<g>
</g>
<g>
</g>
<g>
</g>
<g>
</g>
<g>
</g>
<g>
</g>
<g>
</g>
<g>
</g>
<g>
</g>
<g>
</g>
<g>
</g>
<g>
</g>
<g>
</g>
<g>
</g>
<g>
</g>
</svg>
