<?xml version="1.0" encoding="iso-8859-1"?>
<!-- Generator: Adobe Illustrator 16.0.0, SVG Export Plug-In . SVG Version: 6.00 Build 0)  -->
<!DOCTYPE svg PUBLIC "-//W3C//DTD SVG 1.1//EN" "http://www.w3.org/Graphics/SVG/1.1/DTD/svg11.dtd">
<svg version="1.1" id="Capa_1" xmlns="http://www.w3.org/2000/svg" xmlns:xlink="http://www.w3.org/1999/xlink" x="0px" y="0px"
	 width="325.91px" height="325.91px" viewBox="0 0 325.91 325.91" style="enable-background:new 0 0 325.91 325.91;"
	 xml:space="preserve">
<g>
	<g>
		<path d="M202.138,120.281c5.184-5.637,8.384-13.129,8.384-21.375c0-17.432-14.184-31.618-31.618-31.618
			s-31.617,14.186-31.617,31.618c0,2.535,0.334,4.992,0.896,7.35c1.595,6.659,5.277,12.508,10.346,16.793l1.504-1.802l3.935-4.71
			c3.547-4.246,8.759-6.685,14.299-6.685c3.029,0,5.976,0.784,8.632,2.177c1.16,0.611,2.284,1.299,3.304,2.154
			c3.382,2.825,5.525,6.695,6.297,10.98C198.581,123.766,200.451,122.109,202.138,120.281z"/>
		<path d="M311.206,205.097l-108.528-20.159c0.424-1.325,0.662-2.718,0.662-4.152V126.51c-2.056,1.826-4.292,3.449-6.721,4.78
			c-0.503,3.329-1.849,6.478-4.06,9.129l-27.664,33.111l4.27,5.396c-0.36-0.021-0.723-0.099-1.088-0.099h-7.604l-18.615,22.287
			c19.617,5.193,63.45,16.699,101.235,26.595c1.895,0.492,3.599,1.32,5.193,2.278l56.358,10.471c1.108,0.207,2.212,0.3,3.304,0.3
			c8.492,0,16.047-6.043,17.658-14.695C327.413,216.291,320.971,206.908,311.206,205.097z"/>
		<path d="M17.01,201.715c1.501-0.373,3.05-0.632,4.663-0.647c1.356-0.025,10.317-0.389,19.804-0.781
			c10.185-0.42,19.084-0.787,26.952-1.104c20.505-0.828,33.696-1.32,42.494-1.563c-0.818-1.605-1.417-3.34-1.74-5.173
			c-0.784-4.453-1.607-9.041-2.438-13.624H88.906c0.93-5.623,6.395-14.582,13.357-24.127c-2.809-14.737-5.282-26.89-6.467-31.26
			c-1.776-3.646-2.312-7.819-1.518-11.806c1.74-8.676,9.412-14.97,18.245-14.97c1.23,0,2.465,0.122,3.679,0.365
			c4.174,0.839,7.138,2.589,9.44,4.948c3.728,3.814,5.592,9.333,7.125,15.886c0.394,1.686,0.779,3.42,1.167,5.223
			c0.88,4.078,1.918,9.207,3.091,15.188l4.275,5.403l13.833-16.56c-7.674-6.48-12.643-16.019-13.072-26.725
			c-1.155-0.626-2.395-1.041-3.664-1.336c0.349-20.567-5.08-34.424-5.08-34.424C-12.518,46.355-2.793,180.401,2.377,216.405
			C4.158,209.202,9.81,203.522,17.01,201.715z"/>
		<path d="M42.955,236.212c19.042-0.782,69.623-2.88,79.976-2.885h0.282l0.274,0.083c9.976,2.713,47.146,12.489,110.491,29.075
			c8.398,2.19,17.191-3.045,19.366-11.33c2.211-8.456-2.869-17.134-11.335-19.351c-12.713-3.335-26.108-6.84-39.038-10.237
			c-27.356-7.172-52.61-13.814-64.923-17.088c-3.076,2.118-6.703,3.355-10.53,3.355c-1.613,0-3.229-0.212-4.8-0.626
			c-3.488-0.933-6.563-2.849-8.922-5.422c-9.875,0.238-26.263,0.86-55.082,2.035c-5.271,0.218-10.934,0.445-17.07,0.699
			c-9.522,0.394-18.524,0.767-19.915,0.798c-1.054,0.01-2.079,0.129-3.076,0.331c-7.231,1.491-12.689,7.901-12.689,15.523
			c0,1.083,0.111,2.139,0.318,3.164c1.471,7.234,7.881,12.697,15.542,12.697C22.944,237.035,26.831,236.874,42.955,236.212z"/>
		<path d="M180.691,114.295c-0.803-0.14-1.61-0.207-2.419-0.207c-4.116,0-8.201,1.756-11.045,5.16l-4.507,5.391l-0.762,0.914
			l-1.729,2.065l-1.708,2.043l-14.543,17.401l-7.811,9.349c-0.414-2.216-0.836-4.458-1.261-6.703
			c-1.385-7.291-2.604-13.515-3.677-18.771c-0.518-2.537-1.012-4.93-1.452-6.972c-0.168-0.785-0.329-1.494-0.492-2.242
			c-1.639-7.508-3.146-13.103-6.491-16.617c-1.817-1.916-4.145-3.272-7.438-3.93c-0.955-0.191-1.911-0.288-2.848-0.288
			c-6.713,0-12.715,4.726-14.084,11.561c-0.668,3.34-0.122,6.638,1.331,9.442c1.083,3.788,3.314,14.589,5.934,28.189
			c1.693,8.779,3.542,18.711,5.357,28.73c0.779,4.313,1.559,8.643,2.307,12.889c0.381,2.159,1.352,4.064,2.576,5.779
			c0.536,0.756,1.108,1.455,1.776,2.092c0.838,0.787,1.724,1.507,2.736,2.086c1.054,0.602,2.162,1.119,3.366,1.445
			c1.225,0.321,2.473,0.481,3.708,0.481c1.494,0,2.946-0.315,4.357-0.767c1.062-0.336,2.069-0.797,3.035-1.377
			c0.774-0.466,1.494-0.994,2.177-1.61c0.505-0.45,1.031-0.88,1.471-1.414l16.383-19.604l7.265-8.699l27.094-32.428
			c1.072-1.284,1.823-2.711,2.377-4.194c0.378-1.025,0.668-2.068,0.808-3.141c0.135-0.997,0.176-1.999,0.104-3
			c-0.29-3.728-2.009-7.342-5.105-9.932C185.465,115.748,183.12,114.709,180.691,114.295z"/>
	</g>
</g>
<g>
</g>
<g>
</g>
<g>
</g>
<g>
</g>
<g>
</g>
<g>
</g>
<g>
</g>
<g>
</g>
<g>
</g>
<g>
</g>
<g>
</g>
<g>
</g>
<g>
</g>
<g>
</g>
<g>
</g>
</svg>
