<?xml version="1.0" encoding="iso-8859-1"?>
<!-- Generator: Adobe Illustrator 16.0.0, SVG Export Plug-In . SVG Version: 6.00 Build 0)  -->
<!DOCTYPE svg PUBLIC "-//W3C//DTD SVG 1.1//EN" "http://www.w3.org/Graphics/SVG/1.1/DTD/svg11.dtd">
<svg version="1.1" id="Capa_1" xmlns="http://www.w3.org/2000/svg" xmlns:xlink="http://www.w3.org/1999/xlink" x="0px" y="0px"
	 width="316.942px" height="316.942px" viewBox="0 0 316.942 316.942" style="enable-background:new 0 0 316.942 316.942;"
	 xml:space="preserve">
<g>
	<g>
		<path d="M172.851,150.357l2.486-6.092c4.386-0.016,8.927-0.081,13.333-0.202l18.621,43.869l17.32,88.644
			c1.29,6.582,7.063,11.154,13.53,11.154c0.881,0,1.766-0.083,2.662-0.259c7.482-1.466,12.36-8.715,10.899-16.192l-17.601-90.062
			c-0.186-0.938-0.466-1.859-0.844-2.75l-16.373-38.577c0.072-0.486,0.16-1.204,0.254-2.05c-9.347-3.765-18.424-7.314-21.93-8.479
			c-4.033-0.627-7.876-2.869-12.303-5.463c-3.418-1.999-8.171-4.868-14.126-8.531c-0.078-0.047-0.15-0.096-0.233-0.143
			c1.383,13.085,1.781,22.323,1.207,27.545L172.851,150.357z"/>
		<path d="M311.48,132.169l-39.416-23.102L228.05,73.413c-1.651-1.336-3.573-2.087-5.525-2.338v-0.026c-0.057,0-0.108,0-0.16,0
			c-0.471-0.054-0.942-0.085-1.419-0.085c-0.337,0-0.679,0.016-1.015,0.055c-2.19-0.034-4.365-0.05-6.514-0.05
			c-30.132,0-55.469,3.151-59.541,3.682c3.86,0.43,6.136,0.73,6.216,0.741l3.112,0.43l0.147,0.922
			c0.536,0.251,1.038,0.52,1.525,0.829c16.202,10.25,31.633,19.692,36.573,22.393c3.801,0.938,9.253,2.926,18.387,6.579
			c0.285-3.604,0.564-7.216,0.829-10.683l38.147,30.895c0.43,0.35,0.891,0.668,1.366,0.95l40.142,23.527
			c1.19,0.699,2.465,1.149,3.754,1.362c0.601,0.101,1.212,0.153,1.817,0.153c3.79,0,7.482-1.955,9.533-5.46
			C318.507,142.023,316.742,135.255,311.48,132.169z"/>
		<path d="M127.408,280.476c6.377,0,12.109-4.448,13.489-10.941l13.17-62.122l-4.163-19.625l-11.071-27.139l-5.934,14.546
			c-0.306,0.756-0.552,1.548-0.72,2.351l-18.289,86.263c-1.58,7.451,3.182,14.783,10.638,16.362
			C125.493,280.383,126.458,280.476,127.408,280.476z"/>
		<path d="M78.338,135.351c1.401,0,2.827-0.264,4.2-0.836c3.07-1.263,6.283-2.573,9.46-3.854c-0.486-5.67-1.087-13.047-1.792-22.108
			l-22.579,18.294c0.135,0.557,0.272,1.119,0.5,1.665C69.877,132.775,73.996,135.351,78.338,135.351z"/>
		<circle cx="187.915" cy="41.631" r="20.817"/>
		<path d="M29.855,252.333c12.094,0,21.898,9.802,21.898,21.897c0,12.097-9.805,21.898-21.898,21.898
			c-12.096,0-21.901-9.802-21.901-21.898C7.954,262.135,17.759,252.333,29.855,252.333z"/>
		<path d="M43.73,113.049L5.319,135.563c-5.126,3.006-6.846,9.598-3.837,14.724c2.004,3.415,5.598,5.318,9.295,5.318
			c0.587,0,1.183-0.047,1.771-0.147c1.256-0.212,2.491-0.652,3.658-1.331l39.11-22.921c0.466-0.277,0.911-0.585,1.331-0.924
			l6.47-5.243l2.146-1.74l2.503-2.029l11.42-9.254l5.722-4.634l5.642-4.572l3.263-2.646c0.031,0.43,0.067,0.87,0.098,1.305
			c0.06,0.738,0.111,1.471,0.171,2.217c0.057,0.732,0.111,1.471,0.171,2.211c0.619,8.008,1.276,16.306,1.859,23.11
			c0.064,0.756,0.129,1.489,0.191,2.206c0.07,0.762,0.132,1.494,0.197,2.206c0.415,4.616,0.764,8.127,0.992,9.66l-15.956,37.596
			c-0.365,0.859-0.64,1.75-0.821,2.672l-17.147,87.759c-1.427,7.291,3.33,14.354,10.62,15.783c0.87,0.165,1.74,0.248,2.592,0.248
			c6.304,0,11.93-4.453,13.188-10.874l16.875-86.371l18.142-42.75c4.295,0.122,8.723,0.179,12.995,0.197l0.849,2.076l1.145,2.807
			l1.147,2.81l12.847,31.501l2.26,10.651l1.069,5.054l1.098,5.178l13.147,62.003c1.341,6.323,6.923,10.657,13.142,10.657
			c0.922,0,1.864-0.094,2.807-0.296c7.266-1.543,11.91-8.678,10.367-15.948l-17.823-84.057c-0.161-0.787-0.404-1.553-0.704-2.294
			l-6.488-15.907l-1.145-2.812l-1.149-2.801l-5.152-12.637c1.082-6.6-0.342-22.201-2.059-36.322
			c2.437,1.518,5.036,3.131,7.661,4.746c5.856,3.606,10.579,6.465,14.038,8.484c4.334,2.535,7.793,4.554,11.128,4.974
			c3.169,1.018,11.987,4.442,21.417,8.235c0.683,0.275,1.361,0.547,2.056,0.826c0.684,0.277,1.361,0.552,2.045,0.829
			c2.268,0.921,4.531,1.838,6.722,2.742c1.341,0.557,2.729,0.815,4.096,0.815c4.23,0,8.243-2.514,9.952-6.664
			c2.263-5.494-0.357-11.783-5.856-14.046c-4.93-2.032-9.191-3.782-12.997-5.325c-0.709-0.285-1.383-0.562-2.056-0.831
			c-0.72-0.293-1.383-0.557-2.061-0.834c-9.963-4.003-15.841-6.162-19.563-7.014c-4.903-2.6-22.173-13.225-37.318-22.807
			c-0.966-0.608-1.999-0.997-3.048-1.266c-0.028-0.176-0.049-0.298-0.049-0.298s-4.676-0.642-12.412-1.382
			c-1.098-0.106-2.255-0.212-3.469-0.318c-1.124-0.101-2.294-0.202-3.513-0.298c-1.025-0.085-2.063-0.166-3.151-0.249
			c-4.492,5.82-11.459,9.645-19.358,9.645c-8.536,0-16.049-4.396-20.445-11.03c-0.88,0.005-1.745,0.005-2.631,0.021
			c-0.329-0.036-0.663-0.052-0.991-0.052c-0.461,0-0.917,0.031-1.38,0.085c-0.052,0-0.098,0-0.153,0c0,0,0,0.021,0,0.026
			c-1.908,0.248-3.78,0.976-5.388,2.278L43.73,113.049z"/>
		<path d="M102.545,75.927c3.715,4.148,9.052,6.805,15.058,6.805c5.504,0,10.483-2.211,14.136-5.771
			c0.637-0.613,1.178-1.312,1.722-2.009c0.516-0.647,0.992-1.311,1.427-2.02c1.867-3.071,3.003-6.633,3.003-10.488
			c0-11.203-9.085-20.288-20.288-20.288c-11.206,0-20.288,9.085-20.288,20.288c0,3.345,0.885,6.454,2.322,9.237
			c0.368,0.715,0.702,1.447,1.147,2.11C101.303,74.565,101.929,75.244,102.545,75.927z"/>
	</g>
</g>
<g>
</g>
<g>
</g>
<g>
</g>
<g>
</g>
<g>
</g>
<g>
</g>
<g>
</g>
<g>
</g>
<g>
</g>
<g>
</g>
<g>
</g>
<g>
</g>
<g>
</g>
<g>
</g>
<g>
</g>
</svg>
