<?xml version="1.0" encoding="iso-8859-1"?>
<!-- Generator: Adobe Illustrator 16.0.0, SVG Export Plug-In . SVG Version: 6.00 Build 0)  -->
<!DOCTYPE svg PUBLIC "-//W3C//DTD SVG 1.1//EN" "http://www.w3.org/Graphics/SVG/1.1/DTD/svg11.dtd">
<svg version="1.1" id="Capa_1" xmlns="http://www.w3.org/2000/svg" xmlns:xlink="http://www.w3.org/1999/xlink" x="0px" y="0px"
	 width="469.865px" height="469.864px" viewBox="0 0 469.865 469.864" style="enable-background:new 0 0 469.865 469.864;"
	 xml:space="preserve">
<g>
	<g>
		<path d="M239.208,0c19.424,0,35.161,15.739,35.161,35.157s-15.737,35.166-35.161,35.166c-19.42,0-35.163-15.748-35.163-35.166
			S219.789,0,239.208,0z"/>
		<path d="M332.414,12.12c19.412,0,35.157,15.739,35.157,35.157c0,19.424-15.745,35.165-35.157,35.165
			c-19.429,0-35.165-15.741-35.165-35.165C297.249,27.859,312.985,12.12,332.414,12.12z"/>
		<path d="M193.191,68.759c0.232-1.163,0.375-2.38,0.463-3.635l-2.112,3.304L193.191,68.759z"/>
		<path d="M399.494,300.021c8.051-11.229,5.474-26.869-5.767-34.921l-128.121-91.775c-2.421-1.733-5.118-3.014-7.995-3.799
			l-95.902-26.159c0.207-4.065,1.499-9.736,3.519-16.122l-26.066-2.599c-10.542-0.15-20.195-5.953-25.275-15.226
			c-5.146-9.387-4.765-20.825,0.996-29.851l31.59-49.464c0.455-0.717,0.98-1.369,1.483-2.036
			c-12.826,4.208-23.866,10.652-23.866,10.652C49.331,96.707,64.356,177.384,73.121,206.785c0.391,2.981,1.274,5.957,2.817,8.75
			l0.257,0.471c0.5,1.327,0.823,2.09,0.823,2.09s0.096-0.062,0.238-0.164l54.317,98.905l48.171,136.329
			c3.633,10.282,13.289,16.698,23.596,16.698c2.765,0,5.582-0.461,8.337-1.435c13.03-4.601,19.869-18.903,15.26-31.939
			l-48.854-138.252c-0.451-1.274-1.004-2.517-1.663-3.703l-56.617-103.083c-0.471-0.856-1.076-1.587-1.625-2.363
			c2.404-1.759,4.815-3.534,7.199-5.315c2.276,1.579,4.795,2.889,7.625,3.661l107.102,29.208l124.477,89.154
			c4.417,3.174,9.506,4.692,14.552,4.692C386.918,310.481,394.6,306.847,399.494,300.021z"/>
		<path d="M182.718,27.805c-3.573-2.284-7.578-3.378-11.525-3.378c-0.604,0-1.192,0.172-1.798,0.221
			c-6.43,0.543-12.569,3.831-16.304,9.686l-31.593,49.467c-4.212,6.601-4.496,14.988-0.729,21.856
			c3.761,6.869,10.977,11.147,18.811,11.147l28.254,2.817l50.413,5.034c11.846,0,21.456-9.61,21.456-21.458
			c0-11.846-9.61-21.456-21.456-21.456l-27.835-5.53l-11.669-2.32l10.516-16.458c1.268-1.99,2.062-4.114,2.615-6.284
			C194.083,42.428,190.719,32.915,182.718,27.805z"/>
	</g>
</g>
<g>
</g>
<g>
</g>
<g>
</g>
<g>
</g>
<g>
</g>
<g>
</g>
<g>
</g>
<g>
</g>
<g>
</g>
<g>
</g>
<g>
</g>
<g>
</g>
<g>
</g>
<g>
</g>
<g>
</g>
</svg>
