<?xml version="1.0" encoding="iso-8859-1"?>
<!-- Generator: Adobe Illustrator 16.0.0, SVG Export Plug-In . SVG Version: 6.00 Build 0)  -->
<!DOCTYPE svg PUBLIC "-//W3C//DTD SVG 1.1//EN" "http://www.w3.org/Graphics/SVG/1.1/DTD/svg11.dtd">
<svg version="1.1" id="Capa_1" xmlns="http://www.w3.org/2000/svg" xmlns:xlink="http://www.w3.org/1999/xlink" x="0px" y="0px"
	 width="484.239px" height="484.239px" viewBox="0 0 484.239 484.239" style="enable-background:new 0 0 484.239 484.239;"
	 xml:space="preserve">
<g>
	<g>
		<circle cx="276.744" cy="31.643" r="31.643"/>
		<path d="M106.461,452.593c0,17.48,14.166,31.646,31.643,31.646c17.476,0,31.646-14.166,31.646-31.646
			c0-12.504-7.317-23.215-17.855-28.353c5.542-3.311,9.518-9.085,10.215-15.998l11.94-118.692l76.858-63.259l12.275,4.593v226.485
			c0,11.646,9.445,21.104,21.106,21.104c11.653,0,21.1-9.445,21.1-21.104V241.982l6.652-38.794c3.402-1.234,6.424-3.587,8.247-7.049
			c3.559-6.756,29.486-28.959,51.467-45.446c3.387-2.541,5.559-6.404,5.955-10.629c0.401-4.224-0.997-8.426-3.847-11.563
			l-37.682-41.441c-1.11-1.22-2.393-2.15-3.747-2.921l0.084-0.509c-0.998-0.285-1.972-0.487-2.97-0.756
			c-0.589-0.158-1.162-0.298-1.763-0.444c-44.907-11.558-83.631-3.819-97.143-0.285c-4.839,0.298-9.445,2.914-12.09,7.41
			l-27.876,47.47c-2.797,4.757-2.763,10.664,0.07,15.391l23.842,39.736c-3.526,7.834-6.494,13.409-7.842,15.835l-66.227,54.503
			c-4.3,3.542-7.027,8.64-7.582,14.174l-12.814,127.349c-0.751,7.466,2.521,14.374,8.015,18.683
			C115.571,426.901,106.461,438.622,106.461,452.593z M326.132,120.822l14.415,15.857c-6.063,4.799-13.125,10.553-19.949,16.51
			L326.132,120.822z M232.292,125.688c-0.539,10.129-2.322,20.129-4.703,29.543l-6.39-10.652L232.292,125.688z"/>
	</g>
</g>
<g>
</g>
<g>
</g>
<g>
</g>
<g>
</g>
<g>
</g>
<g>
</g>
<g>
</g>
<g>
</g>
<g>
</g>
<g>
</g>
<g>
</g>
<g>
</g>
<g>
</g>
<g>
</g>
<g>
</g>
</svg>
