<?xml version="1.0" encoding="iso-8859-1"?>
<!-- Generator: Adobe Illustrator 16.0.0, SVG Export Plug-In . SVG Version: 6.00 Build 0)  -->
<!DOCTYPE svg PUBLIC "-//W3C//DTD SVG 1.1//EN" "http://www.w3.org/Graphics/SVG/1.1/DTD/svg11.dtd">
<svg version="1.1" id="Capa_1" xmlns="http://www.w3.org/2000/svg" xmlns:xlink="http://www.w3.org/1999/xlink" x="0px" y="0px"
	 width="289.866px" height="289.866px" viewBox="0 0 289.866 289.866" style="enable-background:new 0 0 289.866 289.866;"
	 xml:space="preserve">
<g>
	<g>
		<path d="M243.027,289.866v-11.521h8.27c14.562,0,26.367-10.092,26.367-22.54V73.959c0-12.451-11.806-22.54-26.367-22.54h-24.306
			c0.062-0.347,0.129-0.691,0.129-1.046c0-5.657-8.321-10.525-20.323-12.785V7.954c0-4.396-3.562-7.954-7.954-7.954
			c-4.391,0-7.954,3.558-7.954,7.954v24.575l-43.31-15.286c-4.129-1.447-8.686,0.709-10.144,4.857
			c-1.463,4.143,0.712,8.686,4.852,10.149l23.84,8.415c-6.001,2.534-9.709,5.949-9.709,9.714c0,0.35,0.068,0.694,0.13,1.046H38.572
			c-14.566,0-26.37,10.09-26.37,22.54V255.81c0,12.448,11.809,22.54,26.37,22.54h10.033v11.517h35.351v-11.521h123.721v11.521
			H243.027z M62.555,252.76c-11.278,0-20.425-7.814-20.425-17.461V94.462c0-9.639,9.142-17.461,20.425-17.461h164.752
			c11.278,0,20.428,7.816,20.428,17.461v140.837c0,9.637-9.145,17.461-20.428,17.461H62.555z"/>
		<polygon points="177.587,124 151.276,99.456 114.849,112.56 116.083,147.333 155.988,154.914 		"/>
		<polygon points="140.346,212.784 160.535,233.823 194.721,219.221 200.448,188.256 165.91,184.01 		"/>
		<path d="M229.694,171.665L229,171.023c0.13-1.906,0.29-3.816,0.29-5.764c0-44.879-36.382-81.26-81.26-81.26
			c-44.879,0-81.261,36.381-81.261,81.26s36.382,81.26,81.261,81.26c42.429,0,77.221-32.539,80.893-74.006L229.694,171.665z
			 M209.312,125.147c-0.072,0.005-0.134,0.041-0.207,0.052l-0.466-1.119C208.878,124.43,209.085,124.798,209.312,125.147z
			 M148.035,238.566c-18.812,0-35.939-7.188-48.931-18.88l14.52-12.701l-12.446-37.454l-23.925-6.855l-1.414,14.851
			c-0.676-3.997-1.11-8.083-1.11-12.267c0-8.15,1.396-15.964,3.86-23.299c0.657-0.081,1.294-0.36,1.745-0.917l19.899-24.72
			l6.146-9.846c0.334-0.536,0.419-1.145,0.344-1.729c10.954-7.503,24.052-12.036,38.163-12.64c0.295,0.513,0.74,0.953,1.347,1.175
			l10.609,3.904l20.76,2.682c0.113,0.011,0.223,0.021,0.331,0.021c0.663,0,1.273-0.244,1.75-0.658
			c10.211,4.922,19.112,12.106,26.036,20.945l-2.61-0.88l-5.085,17.269l16.109,35.388l6.736,1.325
			C216.853,209.941,185.731,238.566,148.035,238.566z"/>
	</g>
</g>
<g>
</g>
<g>
</g>
<g>
</g>
<g>
</g>
<g>
</g>
<g>
</g>
<g>
</g>
<g>
</g>
<g>
</g>
<g>
</g>
<g>
</g>
<g>
</g>
<g>
</g>
<g>
</g>
<g>
</g>
</svg>
