<?xml version="1.0" encoding="iso-8859-1"?>
<!-- Generator: Adobe Illustrator 16.0.0, SVG Export Plug-In . SVG Version: 6.00 Build 0)  -->
<!DOCTYPE svg PUBLIC "-//W3C//DTD SVG 1.1//EN" "http://www.w3.org/Graphics/SVG/1.1/DTD/svg11.dtd">
<svg version="1.1" id="Capa_1" xmlns="http://www.w3.org/2000/svg" xmlns:xlink="http://www.w3.org/1999/xlink" x="0px" y="0px"
	 width="956px" height="956px" viewBox="0 0 956 956" style="enable-background:new 0 0 956 956;" xml:space="preserve">
<g>
	<g>
		<path d="M24.708,800.859l86.354-73.326h733.875l86.354,73.325c4.455,3.784,10.703,4.634,16.01,2.18
			c5.305-2.455,8.699-7.768,8.699-13.613v-541.45c0-8.284-6.717-15-15-15H15c-8.284,0-15,6.716-15,15v541.45
			c0,5.846,3.396,11.158,8.7,13.613c2.014,0.933,4.162,1.387,6.297,1.387C18.488,804.425,21.944,803.207,24.708,800.859z
			 M926,757.01l-60.541-51.406c0.309-108.871,8.082-257.802,42.408-363.418c6.211-19.108,12.438-34.106,18.133-45.759V757.01z
			 M910.104,262.975c-8.547,13.886-18.645,34.201-28.58,63.362c-13.453,39.49-24.148,87.893-31.791,143.865
			c-8.957,65.622-13.742,142.035-14.242,227.332H120.508c-0.499-85.297-5.285-161.71-14.243-227.332
			c-7.641-55.972-18.337-104.375-31.791-143.865c-9.935-29.161-20.032-49.476-28.58-63.362H910.104z M29.999,296.425
			c5.694,11.653,11.921,26.652,18.132,45.76c34.328,105.616,42.1,254.546,42.41,363.418L29.999,757.01V296.425z"/>
		<path d="M785.777,749.053l-15.656,0.148l-15.646,0.265c-5.215,0.075-10.424,0.239-15.635,0.354
			c-5.211,0.13-10.424,0.239-15.629,0.418l-15.623,0.489c-5.209,0.146-10.41,0.37-15.615,0.562l-15.611,0.599
			c-4.18,0.157-7.82,3.226-8.539,7.513l-0.207,1.231c-0.859,5.138-1.635,10.282-2.457,15.424l-2.434,15.425l-1.203,7.714
			l-1.16,7.718l-2.32,15.438c-0.762,5.146-1.572,10.289-2.295,15.438l-2.207,15.448l-1.268,8.86c-0.02,0.01-0.025,0.014-0.045,0.022
			l-9.037-4.429c-4.66-2.305-9.357-4.526-14.039-6.788l-14.053-6.759l-14.051-6.759c-4.678-2.268-9.381-4.479-14.082-6.694
			l-28.199-13.305c-7.773-3.674-17.322-1.517-22.678,5.633l-0.412,0.55l-9.348,12.474l-9.295,12.513l-18.52,25.075L480.1,898.783
			l-2.067,2.85c-0.021,0-0.029,0-0.051,0l-2.072-2.858l-18.405-25.158l-18.513-25.081c-6.209-8.333-12.366-16.703-18.635-24.993
			l-0.47-0.628c-5.174-6.85-14.604-9.379-22.676-5.569l-28.198,13.308c-4.695,2.23-9.412,4.41-14.087,6.681l-14.051,6.762
			l-14.051,6.761l-14.043,6.778l-8.964,4.396c-0.02-0.01-0.025-0.014-0.045-0.023l-1.257-8.777l-2.212-15.448
			c-0.72-5.151-1.521-10.294-2.291-15.44l-2.326-15.436c-0.78-5.145-1.53-10.293-2.359-15.433l-2.438-15.425l-2.457-15.424
			l-0.184-1.165c-0.665-4.186-4.21-7.459-8.607-7.625l-15.612-0.592c-5.205-0.188-10.405-0.419-15.615-0.561l-15.623-0.482
			l-7.813-0.227l-7.817-0.187c-5.212-0.113-10.42-0.271-15.636-0.349l-15.646-0.258l-15.657-0.142
			c-5.123-0.031-10.249-0.023-15.378,0.012c-0.004,0.037-0.003,0.025-0.006,0.062c5.018,1.062,10.039,2.098,15.063,3.093l15.368,3
			l15.38,2.884c5.125,0.97,10.259,1.858,15.389,2.792l7.696,1.384l7.7,1.343l15.402,2.659c5.132,0.904,10.273,1.72,15.411,2.579
			l6.922,1.145c0.01,0.011,0.016,0.019,0.026,0.029l0.359,8.187l0.703,15.601c0.217,5.202,0.515,10.396,0.78,15.593l0.815,15.589
			c0.279,5.196,0.523,10.396,0.85,15.586l0.929,15.578l0.928,15.578c0.292,5.194,0.667,10.38,1.007,15.57
			c0.111,1.582,0.473,3.241,1.105,4.79c3.2,7.832,12.144,11.586,19.975,8.386l1.009-0.412l28.876-11.799l14.397-5.988l14.392-6.005
			l14.391-6.005c4.805-1.984,9.568-4.06,14.354-6.085l14.149-6.03c0.014,0.004,0.023,0.007,0.038,0.011
			c3.075,4.38,6.157,8.755,9.227,13.14l17.996,25.452l18.104,25.377l18.21,25.299l0.053,0.082c1.198,1.648,2.67,3.14,4.406,4.402
			c8.932,6.502,21.824,4.051,28.273-4.92l17.885-24.873l18.096-25.382l17.99-25.458l8.957-12.755l0.303-0.435l14.199,6.052
			c4.779,2.039,9.557,4.084,14.359,6.072l14.389,6.008l14.391,6.008c4.799,1.994,9.582,4.027,14.402,5.978l28.873,11.806
			l1.031,0.426c2.02,0.815,4.262,1.214,6.629,1.085c7.766-0.423,13.854-6.882,14.379-14.641c0.344-5.053,0.684-10.104,0.973-15.161
			l0.932-15.577l0.936-15.572c0.322-5.191,0.561-10.391,0.846-15.586l0.82-15.589l0.408-7.794l0.369-7.799l0.707-15.601
			c0.119-2.742,0.25-5.481,0.375-8.224c0.01-0.011,0.016-0.019,0.025-0.029l6.953-1.146c5.139-0.854,10.277-1.678,15.412-2.577
			l15.402-2.652c5.135-0.868,10.266-1.806,15.396-2.723c5.129-0.933,10.264-1.814,15.389-2.786l15.381-2.876l15.369-2.992
			c5.023-0.992,10.045-2.025,15.062-3.083c-0.004-0.037-0.002-0.026-0.008-0.062C796.023,749.023,790.898,749.018,785.777,749.053z"
			/>
		<path d="M170.223,207.124l15.657-0.141l15.646-0.258c5.216-0.077,10.424-0.235,15.636-0.349l7.817-0.186l7.813-0.227l15.623-0.482
			c5.209-0.143,10.41-0.374,15.615-0.561l15.612-0.592c4.236-0.158,7.914-3.285,8.605-7.629l0.185-1.161l2.457-15.423l2.438-15.425
			c0.829-5.14,1.578-10.288,2.359-15.433l2.326-15.436c0.769-5.146,1.571-10.289,2.291-15.44l2.212-15.448l1.257-8.778
			c0.02-0.01,0.025-0.014,0.044-0.023l8.964,4.396l14.043,6.778l14.052,6.761l14.051,6.761c4.676,2.271,9.393,4.451,14.087,6.681
			l28.198,13.308c7.761,3.668,17.296,1.539,22.678-5.579l0.468-0.618c6.269-8.29,12.425-16.66,18.634-24.993l18.514-25.081
			l18.404-25.158l2.073-2.858c0.021,0,0.029,0,0.05,0l2.068,2.849l18.414,25.152l18.52,25.076l9.295,12.512l9.348,12.474
			l0.414,0.559c5.152,6.884,14.598,9.435,22.676,5.623l28.201-13.305c4.699-2.216,9.402-4.426,14.08-6.694l14.053-6.759
			l14.053-6.759c4.68-2.262,9.377-4.483,14.039-6.788l9.037-4.429c0.018,0.01,0.025,0.014,0.043,0.023l1.268,8.86l2.207,15.448
			c0.723,5.151,1.533,10.293,2.297,15.439l2.32,15.437l1.16,7.718l1.203,7.714l2.432,15.425c0.822,5.141,1.598,10.286,2.457,15.423
			l0.207,1.237c0.688,4.126,4.195,7.342,8.539,7.508l15.611,0.598c5.205,0.194,10.406,0.417,15.615,0.563l15.623,0.489
			c5.205,0.179,10.418,0.288,15.629,0.418c5.213,0.115,10.42,0.28,15.637,0.354l15.645,0.265l15.656,0.149
			c5.123,0.035,10.248,0.029,15.375-0.001c0.004-0.037,0.002-0.026,0.006-0.063c-5.018-1.058-10.037-2.091-15.061-3.083
			l-15.369-2.992l-15.381-2.876c-5.125-0.972-10.26-1.855-15.391-2.786c-5.131-0.917-10.26-1.855-15.395-2.723l-15.404-2.652
			c-5.131-0.901-10.271-1.724-15.41-2.577l-6.953-1.147c-0.01-0.011-0.016-0.018-0.025-0.029c-0.125-2.741-0.256-5.482-0.375-8.224
			l-0.707-15.6l-0.369-7.799l-0.41-7.794l-0.82-15.589c-0.283-5.195-0.52-10.395-0.846-15.586l-0.932-15.577l-0.934-15.577
			c-0.295-5.194-0.646-10.382-1-15.57c-0.113-1.57-0.473-3.215-1.102-4.751c-3.195-7.816-12.123-11.562-19.939-8.366l-0.971,0.397
			l-28.873,11.805c-4.82,1.951-9.602,3.984-14.4,5.978l-14.391,6.008l-14.389,6.008c-4.803,1.988-9.582,4.033-14.361,6.072
			l-14.197,6.052l-0.303-0.435l-8.959-12.755l-17.99-25.458l-18.094-25.382L494.209,8.729c-1.219-1.679-2.77-3.27-4.545-4.548
			c-8.949-6.442-21.425-4.409-27.868,4.54l-0.006,0.008l-18.21,25.299l-18.104,25.376l-17.996,25.453
			c-3.07,4.384-6.152,8.759-9.228,13.139c-0.014,0.004-0.023,0.007-0.037,0.011l-14.15-6.03c-4.786-2.026-9.55-4.101-14.354-6.085
			l-14.391-6.005l-14.391-6.005l-14.398-5.988l-28.876-11.799l-1.068-0.441c-2.033-0.82-4.293-1.22-6.676-1.084
			c-7.774,0.442-13.857,6.921-14.37,14.691c-0.333,5.055-0.696,10.108-0.981,15.168l-0.928,15.578l-0.929,15.578
			c-0.327,5.191-0.571,10.39-0.85,15.586l-0.815,15.589c-0.265,5.197-0.563,10.391-0.78,15.593l-0.703,15.601l-0.359,8.187
			c-0.01,0.011-0.016,0.018-0.026,0.029l-6.922,1.145c-5.137,0.859-10.278,1.675-15.411,2.579l-15.402,2.659l-7.7,1.343
			l-7.696,1.384c-5.129,0.933-10.263,1.822-15.389,2.792l-15.38,2.883l-15.368,3c-5.025,0.996-10.045,2.031-15.063,3.093
			c0.003,0.037,0.002,0.026,0.006,0.063C159.974,207.148,165.1,207.156,170.223,207.124z"/>
		<path d="M478,638.538c81.373,0,147.337-65.965,147.337-147.338c0-81.374-65.965-147.338-147.337-147.338
			c-81.373,0-147.338,65.965-147.338,147.338C330.663,572.573,396.627,638.538,478,638.538z M360.677,489.941l27.185-25.017
			c1.435-1.318,2.292-3.938,1.916-5.851l-7.132-36.287c3.696-5.129,7.825-10,12.383-14.558
			c13.547-13.547,29.825-23.365,47.59-28.958l32.303,18.089c1.7,0.952,4.458,0.952,6.157,0l32.303-18.089
			c17.764,5.593,34.043,15.411,47.588,28.958c4.559,4.558,8.688,9.429,12.385,14.558l-7.133,36.286
			c-0.375,1.912,0.482,4.532,1.916,5.851l27.186,25.017c0.004,0.42,0.016,0.838,0.016,1.259c0,24.266-7.322,47.405-20.912,66.903
			l-36.586,5.445c-1.928,0.287-4.109,1.974-4.871,3.767l-14.49,34.077c-12.793,4.69-26.447,7.145-40.478,7.145
			c-14.032,0-27.688-2.454-40.48-7.145l-14.49-34.077c-0.762-1.793-2.942-3.479-4.87-3.767l-36.587-5.445
			c-13.589-19.498-20.911-42.638-20.911-66.903C360.663,490.78,360.673,490.361,360.677,489.941z"/>
		<path d="M441.837,536.876c0.602,1.854,2.67,3.356,4.619,3.356h63.088c1.947,0,4.016-1.502,4.619-3.356l19.494-60.001
			c0.604-1.853-0.188-4.284-1.764-5.429l-51.041-37.082c-1.576-1.146-4.131-1.146-5.708,0l-51.04,37.082
			c-1.577,1.145-2.366,3.576-1.764,5.429L441.837,536.876z"/>
	</g>
</g>
<g>
</g>
<g>
</g>
<g>
</g>
<g>
</g>
<g>
</g>
<g>
</g>
<g>
</g>
<g>
</g>
<g>
</g>
<g>
</g>
<g>
</g>
<g>
</g>
<g>
</g>
<g>
</g>
<g>
</g>
</svg>
