<?xml version="1.0" encoding="iso-8859-1"?>
<!-- Generator: Adobe Illustrator 16.0.0, SVG Export Plug-In . SVG Version: 6.00 Build 0)  -->
<!DOCTYPE svg PUBLIC "-//W3C//DTD SVG 1.1//EN" "http://www.w3.org/Graphics/SVG/1.1/DTD/svg11.dtd">
<svg version="1.1" id="Capa_1" xmlns="http://www.w3.org/2000/svg" xmlns:xlink="http://www.w3.org/1999/xlink" x="0px" y="0px"
	 width="923.578px" height="923.578px" viewBox="0 0 923.578 923.578" style="enable-background:new 0 0 923.578 923.578;"
	 xml:space="preserve">
<g>
	<g>
		<path d="M91.187,337.086h741.205l34.937-100.805c1.81-5.218-1.139-10.2-6.583-11.126l-125.998-21.44
			c-5.443-0.926-10.712-6.071-11.767-11.494L698.595,66.78c-1.055-5.421-6.112-8.276-11.299-6.377l-120.005,43.955
			c-5.186,1.898-12.302,0.039-15.894-4.157L468.294,3.146c-3.592-4.195-9.416-4.195-13.008,0l-83.103,97.055
			c-3.592,4.195-10.708,6.056-15.895,4.157L236.283,60.403c-5.186-1.899-10.245,0.956-11.298,6.377l-24.387,125.44
			c-1.054,5.422-6.322,10.567-11.767,11.494l-125.998,21.44c-5.445,0.926-8.393,5.908-6.584,11.126L91.187,337.086z"/>
		<path d="M62.833,698.423l125.998,21.44c5.444,0.926,10.712,6.072,11.767,11.494l24.386,125.44
			c1.054,5.422,6.112,8.276,11.298,6.378l120.005-43.955c5.187-1.899,12.302-0.038,15.895,4.156l83.103,97.056
			c3.592,4.194,9.416,4.194,13.008,0l83.104-97.056c3.592-4.194,10.708-6.056,15.894-4.156l120.005,43.955
			c5.187,1.898,10.245-0.956,11.298-6.378l24.388-125.44c1.054-5.421,6.322-10.567,11.767-11.494l125.998-21.44
			c5.445-0.926,8.393-5.907,6.584-11.125l-34.938-100.805H91.187L56.25,687.297C54.441,692.517,57.388,697.497,62.833,698.423z"/>
		<path d="M207.086,408.748c8.962,0,16.438,2.189,22.425,6.565c5.986,4.377,10.065,10.345,12.236,17.908l30.879-5.777
			c-3.081-14.143-9.995-25.224-20.743-33.242c-10.75-8.017-25.681-12.025-44.797-12.025c-14.704,0-26.993,2.557-36.866,7.667
			c-12.955,6.652-22.792,16.211-29.514,28.674c-6.722,12.465-10.083,26.714-10.083,42.748c0,14.774,3.009,28.446,9.033,41.015
			c6.021,12.569,15.019,22.232,26.994,28.989c11.973,6.758,26.011,10.135,42.118,10.135c12.672,0,25.189-2.399,37.548-7.195
			c12.358-4.795,21.794-10.345,28.306-16.646v-61.339h-67.01v25.942h35.606v19.536c-4.692,3.643-10.312,6.741-16.857,9.295
			c-6.548,2.558-13.077,3.834-19.588,3.834c-13.166,0-23.809-4.568-31.93-13.707c-8.124-9.138-12.184-22.844-12.184-41.12
			c0-16.944,4.007-29.724,12.026-38.337C182.701,413.056,193.502,408.748,207.086,408.748z"/>
		<path d="M500.65,503.803h61.549l13.443,34.975h33.82L547.81,384.802h-32.875l-59.974,153.976h32.98L500.65,503.803z
			 M531.004,420.722l21.218,57.137h-42.014L531.004,420.722z"/>
		<polygon points="626.793,386.062 626.793,538.777 735.187,538.777 735.187,512.835 657.882,512.835 657.882,386.062 		"/>
		<polygon points="792.954,384.802 761.024,384.802 761.024,420.933 768.691,499.075 785.392,499.075 792.954,420.933 		"/>
		<rect x="762.284" y="509.264" width="29.514" height="29.514"/>
		<path d="M376.421,379.471c-45.501,0-82.519,37.018-82.519,82.519s37.018,82.52,82.519,82.52s82.521-37.019,82.521-82.52
			S421.922,379.471,376.421,379.471z M430.102,493.993l-24.228,3.606c-0.947,0.141-2.021,0.971-2.396,1.854l-9.59,22.555
			c-5.548,1.616-11.403,2.501-17.467,2.501c-6.062,0-11.918-0.885-17.465-2.501l-9.59-22.555c-0.375-0.883-1.449-1.713-2.396-1.854
			l-24.228-3.606c-5.016-8.382-8.124-18.026-8.723-28.337l18.038-16.599c0.706-0.649,1.128-1.939,0.942-2.88l-4.722-24.026
			c6.684-8.064,15.357-14.412,25.251-18.321l21.378,11.973c0.837,0.469,2.193,0.469,3.03,0l21.378-11.973
			c9.895,3.909,18.566,10.257,25.251,18.321l-4.722,24.026c-0.186,0.94,0.236,2.229,0.942,2.88l18.038,16.599
			C438.225,475.966,435.117,485.611,430.102,493.993z"/>
		<path d="M402.947,452.267l-25.122-18.252c-0.776-0.564-2.034-0.564-2.81,0l-25.122,18.252c-0.776,0.563-1.165,1.76-0.868,2.672
			l9.595,29.532c0.296,0.911,1.314,1.651,2.273,1.651h31.052c0.959,0,1.977-0.74,2.272-1.651l9.596-29.532
			C404.112,454.026,403.724,452.83,402.947,452.267z"/>
	</g>
</g>
<g>
</g>
<g>
</g>
<g>
</g>
<g>
</g>
<g>
</g>
<g>
</g>
<g>
</g>
<g>
</g>
<g>
</g>
<g>
</g>
<g>
</g>
<g>
</g>
<g>
</g>
<g>
</g>
<g>
</g>
</svg>
