<?xml version="1.0" encoding="iso-8859-1"?>
<!-- Generator: Adobe Illustrator 16.0.0, SVG Export Plug-In . SVG Version: 6.00 Build 0)  -->
<!DOCTYPE svg PUBLIC "-//W3C//DTD SVG 1.1//EN" "http://www.w3.org/Graphics/SVG/1.1/DTD/svg11.dtd">
<svg version="1.1" id="Capa_1" xmlns="http://www.w3.org/2000/svg" xmlns:xlink="http://www.w3.org/1999/xlink" x="0px" y="0px"
	 width="488.975px" height="488.976px" viewBox="0 0 488.975 488.976" style="enable-background:new 0 0 488.975 488.976;"
	 xml:space="preserve">
<g>
	<g>
		<path d="M165.675,180.711c14.543,0,26.329,11.788,26.329,26.331c0,14.539-11.786,26.327-26.329,26.327
			c-14.545,0-26.331-11.788-26.331-26.327C139.344,192.499,151.13,180.711,165.675,180.711z"/>
		<circle cx="26.331" cy="189.926" r="26.331"/>
		<path d="M321.513,251.146l-72.195-51.295l104.567-51.886c6.725-3.334,9.47-11.491,6.144-18.211
			c-3.342-6.721-11.485-9.476-18.218-6.137l-112.107,55.627c-3.362,1.665-5.723,4.534-6.839,7.828l-43.557,53.371l-61.492,7.875
			l-67.172-27.513c-6.949-2.854-14.892,0.487-17.729,7.423c-2.847,6.943,0.479,14.876,7.43,17.729l70.489,28.869
			c1.641,0.669,3.388,1.014,5.147,1.014c0.583,0,1.154-0.04,1.729-0.108l66.547-8.516l117.973,63.791
			c1.223,1.006,2.541,1.919,4.056,2.576l3.559,1.543l1.896,1.025l0.02-0.2l52.998,22.923c1.788,0.773,3.688,1.227,5.619,1.351
			l98.774,6.516c0.385,0.024,0.754,0.04,1.135,0.04c8.864,0,16.33-6.885,16.927-15.865c0.613-9.365-6.468-17.456-15.829-18.069
			l-95.821-6.332l-55.783-24.133c-1.135-0.484-2.301-0.829-3.455-1.058l2.137-16.307l151.168,21.228
			c0.797,0.116,1.595,0.169,2.376,0.169c8.34,0,15.609-6.14,16.804-14.627c1.302-9.286-5.166-17.886-14.467-19.18L321.513,251.146z"
			/>
	</g>
</g>
<g>
</g>
<g>
</g>
<g>
</g>
<g>
</g>
<g>
</g>
<g>
</g>
<g>
</g>
<g>
</g>
<g>
</g>
<g>
</g>
<g>
</g>
<g>
</g>
<g>
</g>
<g>
</g>
<g>
</g>
</svg>
