<?xml version="1.0" encoding="iso-8859-1"?>
<!-- Generator: Adobe Illustrator 16.0.0, SVG Export Plug-In . SVG Version: 6.00 Build 0)  -->
<!DOCTYPE svg PUBLIC "-//W3C//DTD SVG 1.1//EN" "http://www.w3.org/Graphics/SVG/1.1/DTD/svg11.dtd">
<svg version="1.1" id="Capa_1" xmlns="http://www.w3.org/2000/svg" xmlns:xlink="http://www.w3.org/1999/xlink" x="0px" y="0px"
	 width="462.376px" height="462.376px" viewBox="0 0 462.376 462.376" style="enable-background:new 0 0 462.376 462.376;"
	 xml:space="preserve">
<g>
	<g>
		<path d="M377.571,94.278H46.938c-0.291-0.21-0.583-0.42-0.958-0.593c-3.723-1.699-7.388-3.513-11.062-5.294
			c-2.901-1.411-5.839-2.775-8.736-4.214c-4.606-2.284-9.207-4.576-13.85-6.798c-5.881-2.819-11.357,5.324-6.891,8.88
			c-1.934,2.415-2.174,6.121,1.248,7.927c0.697,0.369,1.403,0.713,2.112,1.074c-0.103-0.03-0.215-0.062-0.315-0.092
			c-6.785-1.909-9.892,8.794-3.116,10.692c5.448,1.533,10.802,3.338,16.146,5.173c-4.098-0.9-8.181-1.881-12.237-2.959
			c-5.865-1.563-8.973,6.153-5.362,9.483c-2.396,2.879-2.246,7.843,2.338,8.736c3.46,0.675,6.923,1.342,10.396,1.962
			c-4.278-0.084-8.566-0.291-12.846-0.689c-4.967-0.463-5.115,10.613-0.194,11.07c1.13,0.1,2.271,0.181,3.4,0.257
			c-0.269,0.214-0.495,0.449-0.725,0.701c-1.294,1.09-1.806,2.683-1.609,4.324c0.018,1.657,0.731,3.148,2.154,3.988
			c0.248,0.214,0.509,0.402,0.801,0.559c-1.108,0.285-2.224,0.563-3.332,0.878c-4.803,1.353-3.234,12.263,1.619,10.906
			c4.178-1.17,8.381-2.15,12.599-3.014c-3.35,1.238-6.69,2.526-10.017,3.829c-4.412,1.717-3.933,6.65-1.192,9.059
			c-3.144,3.939,0.916,11.009,6.512,8.394c3.874-1.809,7.783-3.526,11.716-5.159c-5.049,2.787-10.105,5.552-15.292,8.055
			c-6.454,3.116-2.02,13.12,4.444,10c0.098-0.046,0.194-0.1,0.299-0.146c-0.651,0.467-1.314,0.939-1.948,1.426
			c-3.152,2.411-2.435,6.029-0.223,8.065c-3.963,4.324,2.499,11.373,7.947,7.52c5.55-3.933,11.042-7.945,16.555-11.924
			c2.757-1.998,5.55-3.933,8.337-5.889c2.098-1.475,4.152-2.994,6.272-4.426c0.643-0.441,1.084-0.936,1.444-1.453h282.062
			l31.852-50.542c1.735-2.747,5.374-3.581,8.11-1.839c2.634,1.655,3.435,5.025,2.004,7.728c-0.067,0.123-0.067,0.271-0.148,0.391
			l-27.887,44.262l-3.72,5.887l-3.711,5.889l-53.311,84.588c-0.484,0.116-0.981,0.293-1.503,0.554
			c-2.777,1.442-5.614,2.761-8.411,4.147c-3.126,1.539-6.224,3.122-9.369,4.616c-6.477,3.102-12.956,6.155-19.396,9.329
			c-6.476,3.19-3.042,13.325,3.114,11.851c0.813,3.266,3.903,5.951,7.811,4.204c0.805-0.354,1.587-0.738,2.384-1.099
			c-0.096,0.068-0.196,0.132-0.296,0.208c-6.288,4.569,0.997,14.367,7.273,9.799c5.045-3.667,10.267-7.077,15.509-10.451
			c-3.571,2.921-7.206,5.79-10.917,8.563c-5.365,4.016-0.689,11.822,4.677,10.933c0.906,3.987,5.366,7.161,9.27,3.811
			c2.945-2.524,5.871-5.069,8.776-7.643c-2.981,3.631-6.063,7.174-9.321,10.601c-3.779,3.963,5.843,11.477,9.586,7.546
			c0.865-0.898,1.69-1.836,2.544-2.754c0.009,0.369,0.053,0.722,0.121,1.082c0.084,1.832,1.134,3.351,2.713,4.269
			c1.467,1.09,3.262,1.475,4.961,0.813c0.353-0.076,0.697-0.177,1.034-0.32c-0.505,1.149-1.011,2.3-1.495,3.454
			c-2.076,5.037,8.58,10.956,10.672,5.875c1.819-4.38,3.811-8.656,5.911-12.856c-1.187,3.711-2.32,7.435-3.442,11.169
			c-1.487,4.945,3.166,7.811,7.137,7.062c1.326,5.325,10.291,6.532,11.802-0.032c1.05-4.536,2.192-9.037,3.435-13.513
			c-0.974,6.199-1.995,12.395-3.322,18.525c-1.646,7.631,10.151,10.476,11.807,2.838c0.023-0.12,0.048-0.244,0.071-0.369
			c-0.016,0.882-0.048,1.764-0.056,2.637c-0.024,4.324,3.635,6.12,6.933,5.566c1.103,6.288,11.682,5.431,12.003-1.831
			c0.276-6.416,0.452-12.823,0.66-19.243c0.117-3.731,0.321-7.467,0.478-11.201c0.16-3.739,0.261-7.474,0.497-11.205
			c0.023-0.368-0.032-0.693-0.061-1.029l83.6-140.501l3.506-5.889l3.058-5.144l-1.395-0.743h0.204L377.571,94.278z M129.615,114.668
			h-13.044c-2.448,0-4.434,1.759-4.434,3.925v48.642c0,2.166-1.99,3.925-4.438,3.925h-0.495c-2.451,0-4.435-1.759-4.435-3.925
			v-48.642c0-2.166-1.985-3.925-4.436-3.925H85.397c-2.45,0-4.436-1.561-4.436-3.484c0-1.926,1.986-3.489,4.436-3.489h44.218
			c2.451,0,4.44,1.563,4.44,3.489C134.056,113.107,132.066,114.668,129.615,114.668z M177.953,171.161h-31.454
			c-2.451,0-4.44-1.759-4.44-3.925v-55.603c0-2.17,1.99-3.925,4.44-3.925h29.859c2.451,0,4.437,1.537,4.437,3.438
			c0,1.897-1.986,3.438-4.437,3.438H155.76c-2.45,0-4.436,1.755-4.436,3.926v12.204c0,2.166,1.986,3.926,4.436,3.926h19.003
			c2.451,0,4.44,1.513,4.44,3.392c0,1.877-1.989,3.392-4.44,3.392H155.76c-2.45,0-4.436,1.759-4.436,3.925v15.034
			c0,2.166,1.986,3.926,4.436,3.926h22.193c2.448,0,4.434,1.537,4.434,3.438C182.387,169.644,180.401,171.161,177.953,171.161z
			 M244.589,171.161h-1.026c-2.446,0-5.067-1.667-5.861-3.713l-4.811-12.531c-0.785-2.048-3.416-3.711-5.865-3.711h-16.557
			c-2.449,0-5.055,1.671-5.827,3.725l-4.669,12.509c-0.769,2.054-3.376,3.729-5.825,3.729h-0.699c-2.449,0-3.801-1.667-3.007-3.715
			l21.512-56.03c0.785-2.046,3.414-3.711,5.865-3.711h2.306c2.451,0,5.08,1.665,5.865,3.711l21.612,56.03
			C248.384,169.494,247.041,171.161,244.589,171.161z M326.016,171.161h-0.168c-2.457,0-4.557-1.759-4.686-3.917l-1.559-23.954
			c-0.453-7.448-0.974-16.18-1.058-23.461c-0.028-2.166-0.621-2.262-1.395-0.205c-2.377,6.348-4.953,13.068-7.967,20.378
			l-11.146,27.1c-0.845,2.04-3.089,3.689-5.029,3.689c-1.931,0-4.139-1.666-4.937-3.711l-10.175-26.511
			c-2.833-7.46-5.311-14.389-7.222-20.86c-0.621-2.096-1.166-2.058-1.278,0.112c-0.385,7.306-0.854,16.122-1.387,24.137
			l-1.643,23.295c-0.145,2.166-2.252,3.917-4.693,3.917c-2.444,0-4.275-1.751-4.107-3.917l4.393-55.631
			c0.168-2.158,2.292-3.913,4.736-3.913h2.938c2.453,0,5.098,1.655,5.911,3.703l10.756,26.988c2.408,6.33,4.477,12.099,6.132,17.564
			c0.637,2.092,1.667,2.12,2.38,0.046c1.859-5.362,4.016-11.146,6.593-17.616l11.229-27.006c0.854-2.032,3.519-3.679,5.975-3.679
			h2.934c2.449,0,4.564,1.747,4.709,3.913l3.915,55.623C330.331,169.401,328.468,171.161,326.016,171.161z"/>
		<path d="M222.538,126.532c-1.062-2.733-1.879-5.302-2.615-7.782c-0.629-2.096-1.683-2.112-2.358-0.03
			c-0.832,2.553-1.655,5.132-2.583,7.716l-5.604,14.643c-0.786,2.054,0.567,3.717,3.018,3.717h12.721
			c2.451,0,3.803-1.663,3.01-3.711L222.538,126.532z"/>
	</g>
</g>
<g>
</g>
<g>
</g>
<g>
</g>
<g>
</g>
<g>
</g>
<g>
</g>
<g>
</g>
<g>
</g>
<g>
</g>
<g>
</g>
<g>
</g>
<g>
</g>
<g>
</g>
<g>
</g>
<g>
</g>
</svg>
