<?xml version="1.0" encoding="iso-8859-1"?>
<!-- Generator: Adobe Illustrator 19.0.0, SVG Export Plug-In . SVG Version: 6.00 Build 0)  -->
<svg version="1.1" id="Capa_1" xmlns="http://www.w3.org/2000/svg" xmlns:xlink="http://www.w3.org/1999/xlink" x="0px" y="0px"
	 viewBox="0 0 512.001 512.001" style="enable-background:new 0 0 512.001 512.001;" xml:space="preserve">
<g>
	<g>
		<path d="M256.001,365.54c-28.419,0-51.54,23.121-51.54,51.54s23.121,51.54,51.54,51.54s51.54-23.121,51.54-51.54
			C307.541,388.66,284.42,365.54,256.001,365.54z"/>
	</g>
</g>
<g>
	<g>
		<path d="M497.095,296.34h-10.964V83.983c0-22.388-18.214-40.602-40.602-40.602H66.47c-22.388,0-40.602,18.214-40.602,40.602
			V296.34H14.905C6.673,296.34,0,303.012,0,311.244s6.673,14.905,14.905,14.905h482.191c8.232,0,14.905-6.673,14.905-14.905
			S505.327,296.34,497.095,296.34z M250.298,296.34H220.49v-71.342l-31.031-24.676c-6.443-5.123-7.512-14.499-2.389-20.942
			c5.122-6.444,14.5-7.512,20.942-2.389l36.658,29.151c3.556,2.828,5.628,7.122,5.628,11.666V296.34z M234.851,171.47
			c0-11.681,9.469-21.15,21.15-21.15c11.681,0,21.15,9.469,21.15,21.15c0,11.681-9.469,21.15-21.15,21.15
			C244.321,192.618,234.851,183.15,234.851,171.47z M322.541,200.322l-31.03,24.676v71.342h-29.809v-78.532h-0.001
			c0-4.543,2.072-8.838,5.628-11.666l36.659-29.151c6.442-5.123,15.819-4.053,20.942,2.389
			C330.053,185.822,328.984,195.199,322.541,200.322z M445.267,296.34h-0.001h-29.809V111.527H96.543V296.34H66.734V96.621
			c0-8.232,6.673-14.905,14.905-14.905h348.723c8.232,0,14.905,6.673,14.905,14.905V296.34z"/>
	</g>
</g>
<g>
</g>
<g>
</g>
<g>
</g>
<g>
</g>
<g>
</g>
<g>
</g>
<g>
</g>
<g>
</g>
<g>
</g>
<g>
</g>
<g>
</g>
<g>
</g>
<g>
</g>
<g>
</g>
<g>
</g>
</svg>
