<?xml version="1.0" encoding="iso-8859-1"?>
<!-- Generator: Adobe Illustrator 16.0.0, SVG Export Plug-In . SVG Version: 6.00 Build 0)  -->
<!DOCTYPE svg PUBLIC "-//W3C//DTD SVG 1.1//EN" "http://www.w3.org/Graphics/SVG/1.1/DTD/svg11.dtd">
<svg version="1.1" id="Capa_1" xmlns="http://www.w3.org/2000/svg" xmlns:xlink="http://www.w3.org/1999/xlink" x="0px" y="0px"
	 width="319.925px" height="319.925px" viewBox="0 0 319.925 319.925" style="enable-background:new 0 0 319.925 319.925;"
	 xml:space="preserve">
<g>
	<g>
		<path d="M195.622,272.938c12.65,0,22.903,10.253,22.903,22.908c0,12.645-10.253,22.897-22.903,22.897
			s-22.902-10.253-22.902-22.897C172.719,283.191,182.971,272.938,195.622,272.938z"/>
		<path d="M181.206,0c12.153,0,22.008,9.856,22.008,22.012c0,12.156-9.854,22.01-22.008,22.01c-12.158,0-22.012-9.854-22.012-22.01
			C159.194,9.856,169.047,0,181.206,0z"/>
		<path d="M242.826,152.291c2.563,2.565,5.924,3.85,9.289,3.85c3.361,0,6.722-1.284,9.29-3.85
			c9.507-9.507,15.523-25.06,18.895-36.428c2.071-6.972,6.598-24.099,3.972-32.488c-1.698-5.45-3.63-11.622-59.678-33.544
			c-0.886-0.344-1.781-0.577-2.683-0.725l0.037-0.182H143.47c0.005,0.021,0.005,0.044,0.019,0.07
			c-1.37-0.039-2.752,0.08-4.138,0.492c-4.246,1.278-19.524,8.15-37.715,42.929c-16.808,32.138-24.78,47.043-24.853,47.191
			c-3.42,6.4-1.007,14.359,5.394,17.779c1.97,1.057,4.093,1.554,6.183,1.554c4.691,0,9.229-2.519,11.594-6.946
			c0.08-0.147,8.093-15.139,24.964-47.403c10.193-19.48,18.188-26.861,21.417-29.27c-0.583,27.134-11.33,50.58-18.225,62.87
			l-61.161,85.121c-0.785,1.093-1.442,2.263-1.962,3.5l-28.729,68.315c-3.824,9.098,0.451,19.567,9.543,23.399
			c2.265,0.948,4.608,1.398,6.92,1.398c6.978,0,13.605-4.111,16.479-10.946l27.949-66.456l62.78-87.373l5.924,1.229l-8.006,54.806
			l-27.716,10.62c-9.217,3.531-13.823,13.861-10.294,23.079c2.727,7.104,9.504,11.475,16.689,11.475
			c2.125,0,4.283-0.378,6.387-1.187l37.489-14.363c6.033-2.315,10.352-7.7,11.289-14.101l11.211-76.724
			c0.062-0.424,0.025-0.836,0.057-1.255l14.017-73.646c15.778,6.237,33.73,14.1,41.56,18.462
			c-1.449,10.19-7.721,32.188-15.705,40.172C237.689,138.843,237.689,147.159,242.826,152.291z"/>
	</g>
</g>
<g>
</g>
<g>
</g>
<g>
</g>
<g>
</g>
<g>
</g>
<g>
</g>
<g>
</g>
<g>
</g>
<g>
</g>
<g>
</g>
<g>
</g>
<g>
</g>
<g>
</g>
<g>
</g>
<g>
</g>
</svg>
