<?xml version="1.0" encoding="iso-8859-1"?>
<!-- Generator: Adobe Illustrator 16.0.0, SVG Export Plug-In . SVG Version: 6.00 Build 0)  -->
<!DOCTYPE svg PUBLIC "-//W3C//DTD SVG 1.1//EN" "http://www.w3.org/Graphics/SVG/1.1/DTD/svg11.dtd">
<svg version="1.1" id="Capa_1" xmlns="http://www.w3.org/2000/svg" xmlns:xlink="http://www.w3.org/1999/xlink" x="0px" y="0px"
	 width="321.018px" height="321.018px" viewBox="0 0 321.018 321.018" style="enable-background:new 0 0 321.018 321.018;"
	 xml:space="preserve">
<g>
	<g>
		<path d="M85.921,55.015c0,30.276,24.544,54.815,54.815,54.815s54.821-24.539,54.821-54.815S171.013,0.199,140.742,0.199
			C110.471,0.199,85.921,24.738,85.921,55.015z M184.953,55.015c0,24.381-19.832,44.211-44.21,44.211
			c-24.376,0-44.211-19.835-44.211-44.211s19.834-44.211,44.211-44.211C165.121,10.804,184.953,30.634,184.953,55.015z"/>
		<path d="M64.722,299.122c-2.545,0-4.619-2.071-4.619-4.619V185.048c0-6.711-4.878-11.765-11.348-11.765
			c-1.043,0-2.121,0.135-3.185,0.398l-22.817,5.66c-2.449,0.621-5.038-0.933-5.662-3.376l-7.858-30.805
			c-0.303-1.188-0.125-2.423,0.502-3.467c0.626-1.051,1.628-1.787,2.822-2.084l72.08-17.896c3.601-0.919,7.301-1.385,11.312-1.385
			l10.074-0.031c5.069,14.634,18.796,24.565,34.551,24.565c15.752,0,29.486-9.937,34.551-24.565l10.662,0.031
			c3.738,0,7.451,0.466,11.076,1.396l72.059,17.885c1.19,0.297,2.195,1.033,2.822,2.084c0.626,1.043,0.803,2.279,0.502,3.467
			l-7.86,30.794c-0.621,2.444-3.2,4.008-5.66,3.387l-22.706-5.634c-1.066-0.265-2.133-0.404-3.184-0.404
			c-6.468,0-11.346,5.064-11.346,11.765v12.666c2.91-1.781,5.913-3.418,9.082-4.774v-7.892c0-0.999,0.295-2.683,2.264-2.683
			c0.315,0,0.642,0.042,0.988,0.135l20.164,5.008c1.413-0.088,2.816-0.218,4.256-0.218c2.19,0,4.35,0.13,6.488,0.326
			c4.096-1.554,7.327-5.002,8.456-9.444l7.855-30.795c0.911-3.547,0.367-7.236-1.507-10.377c-1.875-3.138-4.873-5.359-8.43-6.239
			l-72.028-17.875c-4.329-1.108-8.803-1.67-13.308-1.67l-17.632-0.026l-0.839,3.482c-2.977,12.415-13.97,21.083-26.734,21.083
			c-12.756,0-23.75-8.668-26.734-21.083l-0.836-3.482H96.461l-0.836,0.031c-4.451,0-8.904,0.557-13.214,1.66l-72.043,17.885
			c-3.557,0.886-6.553,3.102-8.43,6.242c-1.877,3.144-2.413,6.827-1.507,10.382l7.858,30.792c1.559,6.11,7.042,10.367,13.336,10.367
			c1.113,0,2.232-0.13,3.319-0.404l22.81-5.665c0.35-0.083,0.684-0.124,0.997-0.124c1.968,0,2.26,1.672,2.26,2.672v109.45
			c0,7.555,6.149,13.706,13.707,13.706h143.734c-2.812-2.796-5.344-5.852-7.663-9.088H64.722V299.122z"/>
		<path d="M124.895,251.731v-77.133h-12.663c0,0.673-0.197,1.703-0.583,3.086c-0.673,2.31-1.66,4.152-2.97,5.53
			c-1.903,2.02-4.391,3.366-7.428,4.039c-1.911,0.425-5.25,0.751-10.027,0.963v10.314h18.139v53.2H124.895z"/>
		<path d="M174.255,174.07c-9.818,0-16.71,3.459-20.667,10.372c-3.954,6.912-5.932,16.74-5.932,29.469
			c0,12.732,1.978,22.535,5.932,29.422c3.956,6.876,10.848,10.314,20.667,10.314c5.499,0,10.04-1.118,13.701-3.272
			c1.336-12.345,5.893-23.716,12.769-33.337c0.031-1.057,0.13-2.02,0.13-3.127c0-12.729-1.979-22.557-5.929-29.469
			C190.97,177.529,184.083,174.07,174.255,174.07z M183.12,234.261c-1.397,4.701-4.354,7.053-8.854,7.053
			c-4.505,0-7.482-2.352-8.938-7.053c-1.452-4.696-2.178-11.475-2.178-20.34c0-9.295,0.726-16.176,2.178-20.645
			c1.455-4.469,4.433-6.706,8.938-6.706c4.5,0,7.457,2.237,8.854,6.706c1.398,4.469,2.103,11.345,2.103,20.645
			C185.222,222.775,184.518,229.559,183.12,234.261z"/>
		<path d="M258.25,195.274c-9.947,0-19.32,2.377-27.678,6.499c-3.189,1.573-6.224,3.396-9.082,5.468
			c-15.741,11.402-26.015,29.888-26.015,50.808c0,15.726,5.819,30.06,15.379,41.073c2.771,3.189,5.856,6.089,9.212,8.668
			c10.584,8.14,23.799,13.028,38.184,13.028c34.667,0,62.769-28.102,62.769-62.77C321.018,223.376,292.917,195.274,258.25,195.274z
			 M290.089,267.463h-59.518h-4.163c-1.822,0-3.511-0.549-4.919-1.481c-2.434-1.604-4.039-4.35-4.039-7.472s1.605-5.867,4.039-7.472
			c1.408-0.933,3.097-1.481,4.919-1.481h4.163h59.518c4.95,0,8.958,4.008,8.958,8.953S295.029,267.463,290.089,267.463z"/>
	</g>
</g>
<g>
</g>
<g>
</g>
<g>
</g>
<g>
</g>
<g>
</g>
<g>
</g>
<g>
</g>
<g>
</g>
<g>
</g>
<g>
</g>
<g>
</g>
<g>
</g>
<g>
</g>
<g>
</g>
<g>
</g>
</svg>
