<?xml version="1.0" encoding="iso-8859-1"?>
<!-- Generator: Adobe Illustrator 16.0.0, SVG Export Plug-In . SVG Version: 6.00 Build 0)  -->
<!DOCTYPE svg PUBLIC "-//W3C//DTD SVG 1.1//EN" "http://www.w3.org/Graphics/SVG/1.1/DTD/svg11.dtd">
<svg version="1.1" id="Capa_1" xmlns="http://www.w3.org/2000/svg" xmlns:xlink="http://www.w3.org/1999/xlink" x="0px" y="0px"
	 width="465.067px" height="465.067px" viewBox="0 0 465.067 465.067" style="enable-background:new 0 0 465.067 465.067;"
	 xml:space="preserve">
<g>
	<g>
		<path d="M373.903,165.776c12.551,0,22.726,10.173,22.726,22.718c0,12.547-10.175,22.72-22.726,22.72
			c-12.547,0-22.714-10.173-22.714-22.72C351.189,175.949,361.356,165.776,373.903,165.776z"/>
		<path d="M249.548,380.113c6.056-6.372,5.979-16.27,0.06-22.626l-29.675,8.479l-7.153,2.276c4.424,4.02,9.131,8.372,13.401,12.443
			c3.204,3.046,7.305,4.553,11.393,4.553C241.942,385.247,246.298,383.523,249.548,380.113z"/>
		<path d="M318.961,331.531l0.717,0.529l2.533-2.897l2.344-2.701l5.475-6.271l2.981-3.419l50.882-58.323l17.111,39.777
			c0.453,1.054,1.043,2.032,1.764,2.922l40.279,49.571c2.452,3.021,6.026,4.585,9.629,4.585c2.745,0,5.511-0.922,7.811-2.781
			c5.314-4.316,6.12-12.123,1.804-17.444l-39.2-48.233l-18.423-42.836c-0.882-2.035-2.344-3.562-4.007-4.788l0.1-0.125l-1.739-1.109
			l-62.03-39.64l-2.429-1.553l-2.493-1.587l-0.429,0.591c-0.781-0.158-1.587-0.247-2.416-0.247H276.55l-43.4-20.967
			c-0.13-0.062-0.269-0.084-0.391-0.142c1.709-7.386,3.166-16.571,1.486-21.965c-1.603-5.117-3.412-10.92-56.042-31.504
			c-0.835-0.323-1.671-0.541-2.521-0.683l0.03-0.172h-73.705c0.008,0.024,0.008,0.038,0.014,0.062
			c-1.278-0.038-2.583,0.072-3.885,0.463c-3.987,1.204-18.338,7.656-35.419,40.323c-15.793,30.182-23.268,44.18-23.352,44.322
			c-3.212,6.012-0.944,13.485,5.067,16.697c1.848,0.99,3.849,1.461,5.811,1.461c4.4,0,8.662-2.365,10.887-6.524
			c0.068-0.14,7.598-14.216,23.451-44.519c9.652-18.456,17.134-25.271,20.109-27.469c-0.559,25.473-10.648,47.486-17.12,59.021
			l-57.437,79.936c-0.735,1.019-1.349,2.124-1.848,3.291l-26.97,64.166c-3.597,8.54,0.42,18.37,8.962,21.973
			c2.13,0.891,4.33,1.319,6.5,1.319c6.556,0,12.78-3.863,15.479-10.292l26.243-62.419l58.961-82.056l5.566,1.154l-7.522,51.479
			l-26.026,9.975c-8.656,3.311-12.986,13.024-9.667,21.672c2.561,6.685,8.924,10.78,15.679,10.78c1.992,0,4.023-0.36,5.995-1.118
			l35.211-13.493c5.665-2.172,9.728-7.237,10.596-13.24l10.525-72.062c0.06-0.397,0.03-0.786,0.06-1.176l13.165-69.17
			c14.817,5.857,31.685,13.245,39.028,17.342c-1.365,9.572-7.251,30.232-14.75,37.73c-4.823,4.819-4.823,12.629,0,17.448
			c2.406,2.411,5.566,3.615,8.724,3.615c3.152,0,6.318-1.21,8.716-3.615c5.1-5.093,9.093-12.032,12.205-19.043l43.362,20.953
			c1.68,0.81,3.527,1.234,5.398,1.234h39.773l-50.737,68.651c-24.9,13.586-55.099,30.008-63.915,34.677
			c-1.747,0.604-3.48,1.587-5.268,2.921c-0.942,0.714-1.77,1.52-2.515,2.369l15.817-5.038l0.559-0.168l48.047-13.729
			c-0.024,0.305-0.173,0.545-0.173,0.865c0,0.657,0.08,1.327,0.217,1.984c0.2,0.881,0.545,1.743,0.966,2.584l-47.546,13.578
			c-0.168,0.052-0.323,0.1-0.483,0.144l-20.969,6.681l-29.775,9.481c0.345-1.026,0.659-2.067,0.852-3.158
			c0.168-0.966,0.267-1.963,0.299-2.974c0.006-0.248,0.068-0.477,0.068-0.729c0-11.874-9.636-21.504-21.504-21.504
			c-11.876,0-21.512,9.638-21.512,21.504c0,4.896,1.709,9.361,4.47,12.988c0.597,0.781,1.194,1.57,1.894,2.275
			c0.773,0.766,1.639,1.435,2.529,2.084l-8.792,2.806c-8.702,2.769-13.509,12.066-10.734,20.763
			c2.238,7.021,8.74,11.513,15.739,11.513c1.657,0,3.35-0.244,5.013-0.781l81.978-26.104l10.219-3.258l26.833-7.666l70.539-20.153
			C316.805,332.581,317.915,332.088,318.961,331.531z"/>
		<circle cx="137.442" cy="94.833" r="20.67"/>
	</g>
</g>
<g>
</g>
<g>
</g>
<g>
</g>
<g>
</g>
<g>
</g>
<g>
</g>
<g>
</g>
<g>
</g>
<g>
</g>
<g>
</g>
<g>
</g>
<g>
</g>
<g>
</g>
<g>
</g>
<g>
</g>
</svg>
