<?xml version="1.0" encoding="iso-8859-1"?>
<!-- Generator: Adobe Illustrator 16.0.0, SVG Export Plug-In . SVG Version: 6.00 Build 0)  -->
<!DOCTYPE svg PUBLIC "-//W3C//DTD SVG 1.1//EN" "http://www.w3.org/Graphics/SVG/1.1/DTD/svg11.dtd">
<svg version="1.1" id="Capa_1" xmlns="http://www.w3.org/2000/svg" xmlns:xlink="http://www.w3.org/1999/xlink" x="0px" y="0px"
	 width="978.312px" height="978.312px" viewBox="0 0 978.312 978.312" style="enable-background:new 0 0 978.312 978.312;"
	 xml:space="preserve">
<g>
	<g>
		<path d="M341.857,253.312c-5.801-0.1-11.601,1.6-16,5.1c-15.801,12.4-12.301,32.4-5.5,48.1c4.399,10.2,9.199,20.4,13.8,30.5
			c3.6,7.9,6.7,16.7,12.7,23.4c4.3,4.7,10.899,8.1,17.6,9c0.4,1.3,0.8,2.5,1,3.8c4.1,24.4,17.7,50.3,35.3,68.9
			c9.2,9.7,25.5,21,24.3,35.8c-0.6,6.801-2.899,15.2-10.6,17.2c-5.6,1.5-11.7,0.8-17.3,2.2c0,0.3-3.101,18.8-3.601,22.9
			c-0.8,5.899-1,11.899,0.301,17.699c1.899,8.801,9.199,16.4,14.899,23.2c5.7,6.7,11.7,13.2,18,19.4c16.3,16,34.5,30.1,53.7,42.399
			c2.7,1.801,5.4,3.5,8.2,5.101c0.2,0.1,0.3,0.2,0.5,0.3c33.4-20.3,66-46,89.5-77.6c7-9.4,8.301-19.101,6.801-30.601
			c-0.5-4.1-1.301-8.399-2.201-13c-0.398-2.1-1.398-9.5-1.398-9.7c-5.9-1.6-12.102-0.8-18-2.399c-7.602-2-10-10.5-10.602-17.2
			c-1.199-14.8,15.102-26.1,24.301-35.8c17.5-18.5,31.199-44.5,35.301-68.9c0.199-1.3,0.6-2.5,1-3.8c6.699-0.9,13.398-4.3,17.6-9
			c6.1-6.7,9.1-15.5,12.699-23.4c4.6-10.2,9.4-20.3,13.801-30.5c6.799-15.8,10.299-35.8-5.5-48.1c-4.4-3.5-10.301-5.1-16-5.1
			c-4.1,0.1-8.9-32.5-9.6-35.7c-4.201-21.6-3.801-41.1-2.301-63c0.1-1.6-1.801-2.2-3.199-1.7l-10,4.1
			c-6.4-22.3-12.701-44.7-19.102-67c-0.299-1.1-2-1.9-3.1-1.2c-5.199,3.6-10.5,7.1-15.699,10.7c-9.5-20.6-18.9-41.3-28.4-61.9
			c-0.6-1.3-3-1.3-3.6,0c-3.6,7.3-7.1,14.7-10.701,22c-19.299-15.3-33-35.3-39.6-58.1c-0.299-1-1.299-1.4-2.2-1.4
			c-1-0.1-2,0.4-2.2,1.4c-6.5,22.8-20.3,42.8-39.6,58.1c-3.601-7.3-7.101-14.7-10.7-22c-0.601-1.3-3-1.3-3.601,0
			c-9.5,20.6-18.899,41.3-28.399,61.9c-5.2-3.6-10.5-7.1-15.7-10.7c-1.1-0.8-2.8,0-3.1,1.2c-6.4,22.3-12.7,44.7-19.101,67l-10-4.1
			c-1.3-0.5-3.3,0.1-3.2,1.7c1.5,21.9,1.9,41.4-2.3,63C350.756,220.812,345.957,253.413,341.857,253.312z"/>
		<path d="M203.057,672.112v104.2c0,8.3,6.7,15,15,15c8.3,0,15-6.7,15-15v-104.2c0-52.2,43.5-94.7,97-94.7h4.601h0.2
			c0.1,0,0.199,0,0.399,0c0.2-0.899,0.4-1.899,0.5-2.8c0.7-3.899,4.101-22,5.101-27.2h-10.9
			C260.057,547.412,203.057,603.412,203.057,672.112z"/>
		<path d="M205.657,550.312c-16.3,16.3-29.1,35.3-38.1,56.4c-9.3,21.899-14,45.199-14,69.1v270.5c0,17.6,14.4,32,32,32h607.199
			c17.602,0,32-14.4,32-32v-270.5c0-24-4.699-47.2-14-69.1c-8.898-21.2-21.699-40.101-38.1-56.4c-16.299-16.3-35.299-29.1-56.4-38.1
			c-21.898-9.301-45.199-14-69.1-14h-24.699c3.6,7.199,6.5,14.6,8.799,22h15.9c85.9,0,155.6,69.699,155.6,155.6v270.5
			c0,5.5-4.5,10-10,10H185.657c-5.5,0-10-4.5-10-10v-270.5c0-85.9,69.7-155.6,155.6-155.6h16.5c2.3-7.4,5.2-14.801,8.8-22h-25.3
			c-24,0-47.2,4.699-69.1,14C240.957,521.213,221.957,534.013,205.657,550.312z"/>
		<path d="M760.457,791.312c8.299,0,15-6.7,15-15v-104.2c0-68.7-57-124.7-127-124.7h-10.301c1,5.2,4.701,25.2,5.6,30h4.602
			c53.5,0,97,42.5,97,94.7v104.2C745.457,784.513,752.156,791.312,760.457,791.312z"/>
		<path d="M631.857,823.912c24.199,0,43.799-23,43.799-47.3v-33.6h-87.699v33.6C588.057,800.912,607.656,823.912,631.857,823.912z"
			/>
		<path d="M562.357,737.312v37.5c0,39.9,32.5,74.8,69.5,74.8s69.5-35,69.5-74.8v-37.5c0-9.6-7.9-17.5-17.5-17.5h-104
			C570.256,719.812,562.357,727.612,562.357,737.312z M686.357,737.312v37.5c0,14.8-5.9,29.9-16.201,41.5
			c-10.6,11.8-24.1,18.3-38.199,18.3s-27.701-6.5-38.201-18.3c-10.299-11.5-16.199-26.7-16.199-41.5v-37.5c0-1.4,1.1-2.5,2.5-2.5
			h104C685.256,734.812,686.357,735.912,686.357,737.312z"/>
		<path d="M382.857,498.412v-0.1c0.399-2.8-1.801-4.6-3.9-4.9c-0.3-0.1-0.6-0.1-0.9-0.1c-1.199,0-2.399,0.5-3.3,1.8
			c-0.7,1-1.3,2.101-1.899,3.101c-4.2,7.1-7.4,14.399-10,22c-3.101,8.8-5.301,18-7.2,27.199c-0.7,3.301-1.3,6.7-2,10.101
			c-1.2,6.6-2.4,13.3-3.7,19.899c-1.3,6.7-2.7,13.301-4.4,19.801c-0.699,2.899-1.5,5.699-2.399,8.5l-1.4,3.5
			c-1.6,4.1-0.399,6.699,2.7,6.699c0.7,0,1.5-0.1,2.4-0.399l25.5-8.2l1.8-0.6c1.3-0.4,2.8-0.601,4.3-0.601c4.1,0,8.7,1.5,11.7,3.9
			c3.2,2.6,6.5,5.2,9.8,7.7c21.8,16.6,45.2,30.6,62.5,40.3c0.3-5,2.1-9.9,4.9-14.101c2-2.899,4.399-5.5,7.3-7.5
			c-42.3-26.899-68.5-54.6-83.7-74.399c-2.8-3.601-5.2-7-7.4-10c-0.5-1-0.899-2-1.3-3c-1.8-4.601-2.899-9.2-3.3-13.7
			c-0.5-5-0.3-10,0.2-15C379.957,513.013,381.556,505.812,382.857,498.412z"/>
		<path d="M637.156,609.612c-1.299-3.899-2.5-7.899-3.5-11.899c-1.699-6.7-6.799-32.7-7.9-38.9c-0.699-3.8-1.398-7.6-2.199-11.3
			c-1.9-9.2-4.1-18.3-7.199-27.2c-2.602-7.6-5.801-14.9-10-22c-0.602-1-1.201-2.1-1.9-3.1c-0.801-1.301-2-1.801-3.301-1.801
			c-0.299,0-0.6,0-0.9,0.101c-2.199,0.2-4.299,2.1-3.898,4.899v0.101c1.299,7.399,2.898,14.7,3.6,21.899
			c0.6,5,0.699,10,0.199,15.101c-0.6,5.7-2.1,11.5-5.1,17.399c-1.301,2.601-3.6,5-5.4,7.301c-2.199,2.8-4.4,5.6-6.699,8.3
			c-5.5,6.5-11.301,12.8-17.301,18.8c-16.199,17.7-37.199,36.7-71.199,54.2c-7.5,3.899-17.701,8.1-17.701,18.2v121.899
			c0,5.5,4.1,10,9.1,10h7.5c5,0,9.102-4.5,9.102-10v-106.5c0-5.5,3.699-11.899,8.199-14.3c17-9.2,41.701-23.7,65.1-41.1
			c4.201-3.2,8.4-6.4,12.5-9.801c2.9-2.399,7.5-3.899,11.701-3.899c1.5,0,3,0.2,4.299,0.6l27.4,8.8c0.9,0.301,1.701,0.4,2.4,0.4
			c2.5,0,4.199-1.6,3.801-4.3C637.557,610.713,637.357,610.312,637.156,609.612z"/>
	</g>
</g>
<g>
</g>
<g>
</g>
<g>
</g>
<g>
</g>
<g>
</g>
<g>
</g>
<g>
</g>
<g>
</g>
<g>
</g>
<g>
</g>
<g>
</g>
<g>
</g>
<g>
</g>
<g>
</g>
<g>
</g>
</svg>
