<?xml version="1.0" encoding="iso-8859-1"?>
<!-- Generator: Adobe Illustrator 16.0.0, SVG Export Plug-In . SVG Version: 6.00 Build 0)  -->
<!DOCTYPE svg PUBLIC "-//W3C//DTD SVG 1.1//EN" "http://www.w3.org/Graphics/SVG/1.1/DTD/svg11.dtd">
<svg version="1.1" id="Capa_1" xmlns="http://www.w3.org/2000/svg" xmlns:xlink="http://www.w3.org/1999/xlink" x="0px" y="0px"
	 width="475.281px" height="475.281px" viewBox="0 0 475.281 475.281" style="enable-background:new 0 0 475.281 475.281;"
	 xml:space="preserve">
<g>
	<g>
		<path d="M127.218,81.462c0,44.825,36.337,81.154,81.156,81.154c44.815,0,81.15-36.337,81.15-81.154
			c0-44.819-36.327-81.164-81.15-81.164C163.549,0.298,127.218,36.635,127.218,81.462z M273.828,81.462
			c0,36.097-29.362,65.456-65.454,65.456c-36.091,0-65.456-29.367-65.456-65.456c0-36.091,29.358-65.465,65.456-65.465
			C244.469,15.997,273.828,45.363,273.828,81.462z"/>
		<path d="M36.938,278.587l33.771-8.387c0.517-0.125,1.012-0.185,1.475-0.185c2.914,0,3.346,2.477,3.346,3.955v162.053
			c0,11.185,9.105,20.293,20.294,20.293h212.808c-4.171-4.131-7.926-8.672-11.353-13.453H95.824c-3.77,0-6.839-3.069-6.839-6.84
			V273.971c0-9.927-7.222-17.4-16.801-17.4c-1.553,0-3.14,0.188-4.719,0.573l-33.777,8.396c-3.626,0.918-7.459-1.395-8.383-5.014
			l-11.627-45.6c-0.447-1.759-0.183-3.588,0.745-5.133c0.928-1.555,2.411-2.649,4.178-3.086l106.716-26.495
			c5.332-1.356,10.81-2.05,16.747-2.05l14.916-0.046c7.506,21.666,27.827,36.369,51.152,36.369
			c23.321,0,43.655-14.711,51.149-36.369l15.785,0.046c5.538,0,11.032,0.693,16.398,2.066l106.686,26.479
			c1.771,0.437,3.25,1.531,4.18,3.086c0.926,1.553,1.187,3.374,0.745,5.133l-11.634,45.6c-0.926,3.619-4.744,5.932-8.383,4.998
			l-33.61-8.34c-1.579-0.385-3.166-0.585-4.725-0.585c-9.574,0-16.796,7.481-16.796,17.404v18.759
			c4.309-2.637,8.761-5.065,13.453-7.062v-11.697c0-1.471,0.429-3.955,3.343-3.955c0.469,0,0.953,0.06,1.475,0.192l29.843,7.409
			c2.092-0.12,4.18-0.32,6.304-0.32c3.242,0,6.44,0.2,9.605,0.484c6.063-2.308,10.849-7.397,12.52-13.978l11.63-45.599
			c1.347-5.251,0.553-10.714-2.232-15.364c-2.773-4.645-7.213-7.935-12.479-9.237l-106.641-26.465
			c-6.408-1.641-13.033-2.473-19.701-2.473l-26.104-0.038l-1.242,5.156c-4.404,18.376-20.68,31.213-39.577,31.213
			c-18.887,0-35.163-12.837-39.582-31.213l-1.238-5.156h-24.479l-1.238,0.046c-6.59,0-13.183,0.824-19.564,2.457L15.35,193.644
			c-5.268,1.31-9.706,4.59-12.485,9.237c-2.779,4.651-3.569,10.113-2.228,15.365l11.633,45.59
			c2.308,9.041,10.427,15.349,19.745,15.349C33.672,279.185,35.327,278.992,36.938,278.587z"/>
		<path d="M184.918,372.714V258.51H166.17c0,1.002-0.291,2.521-0.862,4.568c-0.998,3.411-2.458,6.147-4.398,8.188
			c-2.817,2.998-6.5,4.989-10.997,5.987c-2.821,0.629-7.774,1.102-14.846,1.427v15.272h26.856v78.762H184.918L184.918,372.714z"/>
		<path d="M258.002,257.721c-14.543,0-24.744,5.117-30.601,15.353c-5.853,10.235-8.782,24.786-8.782,43.629
			c0,18.854,2.929,33.365,8.782,43.561c5.857,10.183,16.058,15.272,30.601,15.272c8.135,0,14.855-1.655,20.277-4.845
			c1.979-18.278,8.732-35.113,18.911-49.355c0.048-1.579,0.185-2.998,0.185-4.637c0-18.855-2.926-33.398-8.777-43.633
			C282.748,262.838,272.545,257.721,258.002,257.721z M271.11,346.834c-2.067,6.961-6.447,10.432-13.107,10.432
			c-6.661,0-11.077-3.471-13.225-10.432c-2.156-6.953-3.227-16.992-3.227-30.124c0-13.754,1.07-23.94,3.227-30.557
			c2.147-6.616,6.563-9.927,13.225-9.927c6.66,0,11.04,3.311,13.107,9.927c2.072,6.616,3.114,16.795,3.114,30.557
			C274.232,329.842,273.19,339.881,271.11,346.834z"/>
		<path d="M382.352,289.111c-14.727,0-28.597,3.521-40.972,9.613c-4.729,2.34-9.221,5.037-13.453,8.104
			c-23.299,16.883-38.515,44.245-38.515,75.223c0,23.283,8.615,44.503,22.766,60.812c4.104,4.721,8.672,9.014,13.642,12.832
			c15.669,12.051,35.233,19.288,56.532,19.288c51.323,0,92.929-41.605,92.929-92.933S433.675,289.111,382.352,289.111z
			 M425.059,406.709c5.182,5.165,5.182,13.569,0,18.734c-5.173,5.182-13.576,5.182-18.75,0l-23.957-23.948l-23.96,23.948
			c-4.637,4.645-11.834,5.09-17.012,1.427c-0.604-0.429-1.194-0.882-1.731-1.427c-5.182-5.174-5.182-13.569,0-18.734l1.731-1.743
			l22.226-22.226L341.38,360.52l-1.731-1.735c-5.182-5.174-5.182-13.577,0-18.743c0.537-0.545,1.127-0.998,1.731-1.427
			c5.178-3.662,12.383-3.222,17.012,1.427l23.96,23.957l23.957-23.957c5.182-5.182,13.577-5.182,18.75,0
			c5.182,5.182,5.182,13.569,0,18.743l-23.964,23.956L425.059,406.709z"/>
	</g>
</g>
<g>
</g>
<g>
</g>
<g>
</g>
<g>
</g>
<g>
</g>
<g>
</g>
<g>
</g>
<g>
</g>
<g>
</g>
<g>
</g>
<g>
</g>
<g>
</g>
<g>
</g>
<g>
</g>
<g>
</g>
</svg>
