<?xml version="1.0" encoding="iso-8859-1"?>
<!-- Generator: Adobe Illustrator 16.0.0, SVG Export Plug-In . SVG Version: 6.00 Build 0)  -->
<!DOCTYPE svg PUBLIC "-//W3C//DTD SVG 1.1//EN" "http://www.w3.org/Graphics/SVG/1.1/DTD/svg11.dtd">
<svg version="1.1" id="Capa_1" xmlns="http://www.w3.org/2000/svg" xmlns:xlink="http://www.w3.org/1999/xlink" x="0px" y="0px"
	 width="475.28px" height="475.279px" viewBox="0 0 475.28 475.279" style="enable-background:new 0 0 475.28 475.279;"
	 xml:space="preserve">
<g>
	<g>
		<path d="M127.208,81.453c0,44.825,36.339,81.156,81.156,81.156c44.819,0,81.163-36.339,81.163-81.156
			c0-44.819-36.336-81.156-81.163-81.156C163.54,0.297,127.208,36.634,127.208,81.453z M273.834,81.453
			c0,36.097-29.373,65.455-65.461,65.455c-36.085,0-65.456-29.366-65.456-65.455c0-36.087,29.371-65.458,65.456-65.458
			C244.462,15.996,273.834,45.366,273.834,81.453z"/>
		<path d="M95.814,442.862c-3.767,0-6.839-3.069-6.839-6.84V273.97c0-9.918-7.221-17.4-16.795-17.4
			c-1.557,0-3.144,0.188-4.719,0.573l-33.783,8.396c-3.627,0.918-7.456-1.395-8.384-5.014l-11.633-45.592
			c-0.449-1.755-0.18-3.589,0.744-5.134c0.928-1.553,2.412-2.645,4.178-3.086l106.716-26.495c5.333-1.356,10.813-2.045,16.749-2.045
			l14.913-0.05c7.506,21.668,27.83,36.374,51.155,36.374c23.321,0,43.657-14.713,51.154-36.374l15.785,0.05
			c5.534,0,11.033,0.689,16.398,2.062l106.69,26.479c1.763,0.441,3.254,1.533,4.172,3.086c0.93,1.553,1.189,3.378,0.753,5.134
			l-11.638,45.592c-0.93,3.619-4.74,5.939-8.388,5.014l-33.61-8.344c-1.578-0.389-3.166-0.597-4.721-0.597
			c-9.577,0-16.799,7.498-16.799,17.42v18.751c4.308-2.637,8.764-5.062,13.453-7.069v-11.682c0-1.475,0.433-3.971,3.346-3.971
			c0.465,0,0.95,0.067,1.471,0.196l29.844,7.413c2.096-0.128,4.18-0.32,6.304-0.32c3.242,0,6.439,0.192,9.613,0.485
			c6.056-2.301,10.841-7.402,12.512-13.986l11.63-45.588c1.358-5.254,0.553-10.716-2.225-15.363
			c-2.781-4.65-7.213-7.938-12.487-9.241l-106.642-26.465c-6.408-1.641-13.024-2.473-19.7-2.473l-26.104-0.038l-1.238,5.16
			c-4.412,18.376-20.688,31.21-39.582,31.21c-18.891,0-35.161-12.833-39.582-31.21l-1.242-5.16h-24.479l-1.222,0.03
			c-6.586,0-13.183,0.826-19.564,2.458l-106.67,26.487c-5.268,1.31-9.702,4.59-12.481,9.241c-2.779,4.647-3.573,10.109-2.232,15.363
			l11.635,45.588c2.306,9.049,10.425,15.349,19.745,15.349c1.647,0,3.304-0.192,4.913-0.589l33.774-8.396
			c0.517-0.125,1.012-0.185,1.477-0.185c2.909,0,3.342,2.477,3.342,3.955v162.053c0,11.192,9.106,20.293,20.292,20.293h212.812
			c-4.171-4.131-7.918-8.672-11.353-13.453H95.814z"/>
		<path d="M184.91,372.713V258.501h-18.747c0,0.994-0.288,2.521-0.863,4.568c-0.996,3.419-2.457,6.147-4.396,8.188
			c-2.817,2.989-6.502,4.981-10.998,5.995c-2.817,0.629-7.772,1.098-14.846,1.419v15.28h26.856v78.762H184.91z"/>
		<path d="M257.997,257.72c-14.547,0-24.746,5.117-30.601,15.353c-5.856,10.235-8.784,24.786-8.784,43.629
			c0,18.854,2.928,33.365,8.784,43.561c5.855,10.183,16.054,15.272,30.601,15.272c8.136,0,14.868-1.655,20.278-4.845
			c1.979-18.278,8.731-35.121,18.915-49.355c0.044-1.563,0.188-2.99,0.188-4.633c0-18.843-2.925-33.394-8.784-43.629
			C282.743,262.837,272.547,257.72,257.997,257.72z M271.114,346.833c-2.068,6.961-6.44,10.439-13.108,10.439
			c-6.661,0-11.079-3.479-13.229-10.439c-2.15-6.953-3.228-16.992-3.228-30.116c0-13.753,1.078-23.948,3.228-30.564
			s6.568-9.927,13.229-9.927c6.668,0,11.04,3.311,13.108,9.927c2.079,6.616,3.113,16.795,3.113,30.564
			C274.227,329.841,273.193,339.88,271.114,346.833z"/>
		<path d="M382.347,289.11c-14.728,0-28.597,3.521-40.972,9.621c-4.721,2.332-9.221,5.029-13.453,8.096
			c-23.299,16.891-38.516,44.254-38.516,75.223c0,23.291,8.624,44.503,22.771,60.812c4.1,4.721,8.668,9.014,13.638,12.832
			c15.669,12.051,35.232,19.288,56.532,19.288c51.327,0,92.933-41.605,92.933-92.933S433.674,289.11,382.347,289.11z
			 M435.534,363.776l-61.959,61.959c-0.076,0.084-0.136,0.184-0.22,0.276c-2.433,2.42-5.599,3.618-8.78,3.618
			c-3.174,0-6.348-1.206-8.776-3.618c-0.084-0.093-0.141-0.192-0.232-0.276l-14.202-14.215l-12.215-12.211
			c-0.477-0.469-0.857-0.989-1.242-1.519c-3.134-4.315-3.134-10.158,0-14.467c0.377-0.521,0.766-1.042,1.242-1.519
			c3.314-3.311,8.011-4.292,12.215-3.065c1.932,0.564,3.755,1.547,5.281,3.065l17.922,17.925l53.45-53.45
			c4.837-4.838,12.672-4.838,17.505,0C440.351,351.108,440.375,358.943,435.534,363.776z"/>
	</g>
</g>
<g>
</g>
<g>
</g>
<g>
</g>
<g>
</g>
<g>
</g>
<g>
</g>
<g>
</g>
<g>
</g>
<g>
</g>
<g>
</g>
<g>
</g>
<g>
</g>
<g>
</g>
<g>
</g>
<g>
</g>
</svg>
