<?xml version="1.0" encoding="iso-8859-1"?>
<!-- Generator: Adobe Illustrator 16.0.0, SVG Export Plug-In . SVG Version: 6.00 Build 0)  -->
<!DOCTYPE svg PUBLIC "-//W3C//DTD SVG 1.1//EN" "http://www.w3.org/Graphics/SVG/1.1/DTD/svg11.dtd">
<svg version="1.1" id="Capa_1" xmlns="http://www.w3.org/2000/svg" xmlns:xlink="http://www.w3.org/1999/xlink" x="0px" y="0px"
	 width="953.028px" height="953.028px" viewBox="0 0 953.028 953.028" style="enable-background:new 0 0 953.028 953.028;"
	 xml:space="preserve">
<g>
	<g>
		<path d="M329.133,253.082c-5.759-0.073-11.583,1.588-16.021,5.067c-15.78,12.371-12.26,32.386-5.496,48.139
			c4.398,10.245,9.213,20.352,13.827,30.515c3.608,7.948,6.678,16.718,12.744,23.422c4.254,4.701,10.919,8.065,17.618,8.962
			c0.428,1.258,0.785,2.533,0.997,3.787c4.122,24.369,17.741,50.322,35.278,68.865c9.178,9.702,25.545,20.997,24.322,35.793
			c-0.559,6.767-2.943,15.217-10.576,17.219c-4.89,1.283-10.067,0.954-15.054,1.737v19.486c0,24.042,38.98,51.989,89.236,51.989
			c50.256,0,89.235-27.947,89.235-51.989v-19.633c-4.672-0.602-9.482-0.394-14.043-1.591c-7.633-2.002-10.018-10.452-10.574-17.219
			c-1.223-14.796,15.145-26.091,24.32-35.793c17.539-18.543,31.158-44.496,35.279-68.865c0.213-1.254,0.568-2.529,0.998-3.787
			c6.699-0.897,13.365-4.261,17.617-8.962c6.066-6.704,9.137-15.474,12.744-23.422c4.613-10.164,9.43-20.27,13.826-30.515
			c6.764-15.753,10.285-35.768-5.496-48.139c-4.438-3.479-10.262-5.14-16.02-5.067c-4.115,0.052-8.945-32.494-9.574-35.683
			c-4.248-21.55-3.822-41.085-2.338-62.978c0.109-1.621-1.83-2.224-3.162-1.679l-9.984,4.077
			c-6.359-22.343-12.719-44.685-19.076-67.028c-0.318-1.121-1.982-1.917-3.086-1.163c-5.227,3.57-10.451,7.14-15.676,10.71
			c-9.459-20.627-18.918-41.253-28.379-61.88c-0.594-1.294-3.021-1.254-3.629,0c-3.561,7.338-7.121,14.677-10.68,22.015
			c-19.293-15.25-33.031-35.329-39.553-58.095c-0.279-0.973-1.291-1.433-2.244-1.372c-0.952-0.061-1.964,0.399-2.243,1.372
			c-6.521,22.766-20.26,42.845-39.554,58.095c-3.561-7.338-7.12-14.677-10.679-22.015c-0.609-1.254-3.036-1.294-3.63,0
			c-9.46,20.627-18.919,41.254-28.379,61.88c-5.225-3.57-10.449-7.14-15.675-10.71c-1.104-0.754-2.768,0.042-3.087,1.163
			c-6.358,22.343-12.717,44.685-19.075,67.028l-9.984-4.077c-1.333-0.544-3.272,0.059-3.162,1.679
			c1.483,21.894,1.909,41.428-2.339,62.978C338.076,220.587,333.246,253.134,329.133,253.082z"/>
		<path d="M164.417,653.436v289.593c0,5.523,4.477,10,10,10h604.195c5.523,0,10-4.477,10-10V653.436
			c0-85.529-69.334-154.864-154.863-154.864h-38.504c0,0-0.195,22.6-0.564,25.133h38.18c69.131,0,125.373,55.118,125.373,122.867
			c0,4.474-3.627,8.099-8.098,8.099c-4.473,0-8.1-3.625-8.1-8.099c0-58.818-48.975-106.672-109.174-106.672h-31.49h-9.121
			c-0.807,0-1.584-0.122-2.32-0.342c-2.281,4.988-5.273,9.843-8.928,14.491h30.383c0.117,0,0.232,0.005,0.352,0.006
			c32.723,0.059,59.973,8.313,78.816,23.894c19.555,16.166,29.891,39.896,29.891,68.623c0,4.474-3.627,8.099-8.098,8.099
			c-4.473,0-8.1-3.625-8.1-8.099c0-43.275-26.959-70.065-74.676-75.346c-5.768-0.638-11.822-0.981-18.186-0.981h-46.932
			c-2.061,1.585-4.213,3.124-6.459,4.61c-22.605,14.967-51.723,23.209-81.985,23.209c-30.264,0-59.38-8.242-81.986-23.209
			c-2.245-1.486-4.399-3.025-6.459-4.61h-45.919c-6.364,0-12.417,0.344-18.186,0.981c-47.718,5.279-74.677,32.07-74.677,75.346
			c0,4.474-3.626,8.099-8.098,8.099c-4.472,0-8.098-3.625-8.098-8.099c0-28.728,10.336-52.457,29.89-68.623
			c18.844-15.579,46.094-23.834,78.815-23.894c0.118,0,0.233-0.006,0.353-0.006h29.37c-3.57-4.543-6.514-9.281-8.774-14.149h-10.583
			h-31.49c-60.2,0-109.175,47.854-109.175,106.672c0,4.474-3.626,8.099-8.098,8.099c-4.472,0-8.098-3.625-8.098-8.099
			c0-67.749,56.242-122.867,125.372-122.867h37.17c-0.369-2.533-0.564-25.133-0.564-25.133h-37.492
			C233.751,498.571,164.417,567.906,164.417,653.436z M555.899,714.635c0-5.523,4.477-10,10-10h103.4c5.523,0,10,4.477,10,10v37.26
			c0,34.076-27.623,66.99-61.699,66.99s-61.701-32.914-61.701-66.99V714.635L555.899,714.635z"/>
	</g>
</g>
<g>
</g>
<g>
</g>
<g>
</g>
<g>
</g>
<g>
</g>
<g>
</g>
<g>
</g>
<g>
</g>
<g>
</g>
<g>
</g>
<g>
</g>
<g>
</g>
<g>
</g>
<g>
</g>
<g>
</g>
</svg>
