<?xml version="1.0" encoding="iso-8859-1"?>
<!-- Generator: Adobe Illustrator 16.0.0, SVG Export Plug-In . SVG Version: 6.00 Build 0)  -->
<!DOCTYPE svg PUBLIC "-//W3C//DTD SVG 1.1//EN" "http://www.w3.org/Graphics/SVG/1.1/DTD/svg11.dtd">
<svg version="1.1" id="Capa_1" xmlns="http://www.w3.org/2000/svg" xmlns:xlink="http://www.w3.org/1999/xlink" x="0px" y="0px"
	 width="956.178px" height="956.178px" viewBox="0 0 956.178 956.178" style="enable-background:new 0 0 956.178 956.178;"
	 xml:space="preserve">
<g>
	<g>
		<path d="M491.633,667.914v35.646c0,23.277,9.146,46.856,25.09,64.69c8.127,9.09,17.582,16.313,28.104,21.47
			c11.565,5.669,23.812,8.543,36.399,8.543s24.834-2.874,36.4-8.543c10.521-5.156,19.976-12.38,28.103-21.47
			c15.945-17.834,25.092-41.412,25.092-64.69v-35.646c0-22.056-17.944-40-40-40h-99.188
			C509.577,627.914,491.633,645.857,491.633,667.914z M640.821,667.914v35.646c0,32.913-26.682,64.703-59.595,64.703
			s-59.594-31.79-59.594-64.703v-35.646c0-5.523,4.477-10,10-10h99.188C636.344,657.914,640.821,662.391,640.821,667.914z"/>
		<path d="M754.604,480.477c-17.506-17.506-37.898-31.253-60.613-40.86c-23.532-9.953-48.513-15-74.246-15h-22.471
			c-0.659,6.813-0.759,13.788-0.139,20.853c0.266,3.032,0.567,6.086,0.887,9.147h21.723c88.764,0,160.72,71.957,160.72,160.721
			v244.268c0,44.382-151.188,66.572-302.376,66.572s-302.376-22.19-302.376-66.572V615.337c0-88.764,71.957-160.721,160.721-160.721
			h21.723c0.319-3.062,0.622-6.115,0.887-9.147c0.62-7.064,0.52-14.039-0.14-20.853h-22.47c-25.733,0-50.714,5.047-74.246,15
			c-22.714,9.606-43.108,23.354-60.614,40.86c-17.506,17.507-31.253,37.899-40.861,60.614c-9.953,23.532-15,48.512-15,74.246
			v244.267c0,9.028,2.538,22.572,14.631,35.824c6.897,7.56,16.013,14.133,27.869,20.101c18.402,9.261,44.05,17.149,76.23,23.447
			c56.682,11.094,132.556,17.202,213.646,17.202s156.964-6.108,213.645-17.202c32.182-6.298,57.829-14.187,76.231-23.447
			c11.856-5.967,20.972-12.541,27.869-20.101c12.093-13.252,14.631-26.796,14.631-35.824V615.337c0-25.734-5.047-50.714-15-74.246
			C785.858,518.376,772.11,497.983,754.604,480.477z"/>
		<path d="M736.639,732.723c8.284,0,15-6.716,15-15v-107.59c0-70.726-58.646-128.265-130.735-128.265h-19.608
			c0.258,1.986,0.517,3.969,0.773,5.938c0.669,5.115,1.36,10.403,2.016,15.639c0.326,2.607,0.485,5.442,0.374,8.423h16.445
			c55.545,0,100.734,44.082,100.734,98.265v107.59C721.639,726.007,728.354,732.723,736.639,732.723z"/>
		<path d="M354.11,487.807c0.259-1.97,0.517-3.951,0.774-5.938h-19.609c-72.088,0-130.734,57.539-130.734,128.265v107.59
			c0,8.284,6.716,15,15,15c8.284,0,15-6.716,15-15v-107.59c0-54.183,45.189-98.265,100.734-98.265h16.445
			c-0.112-2.98,0.047-5.815,0.374-8.423C352.751,498.21,353.441,492.921,354.11,487.807z"/>
		<path d="M608.011,678.055h-53.566c-5.522,0-10,4.478-10,10v18.175c0,20.314,16.469,39.654,36.783,39.654
			c20.315,0,36.783-19.34,36.783-39.654v-18.175C618.011,682.532,613.533,678.055,608.011,678.055z"/>
		<path d="M319.775,304.95c3.767,8.964,6.971,18.854,13.303,26.415c4.407,5.263,11.297,9.038,18.238,10.082
			c15.652,25.045,27.196,53.812,29.644,83.17c0.631,7.569,0.667,15.179,0,22.774c-0.211,2.41-0.441,4.818-0.684,7.226
			c-0.917,9.101-2.039,18.179-3.209,27.251c-1.045,8.104-2.127,16.203-3.142,24.309c-0.251,2.01-0.296,3.898-0.171,5.691
			c0.591,8.484,5.232,14.667,12.447,19.774c17.17,12.157,36.142,20.779,55.87,27.761c11.889,4.207,23.813,6.746,35.77,6.923
			c0.083-0.001,0.167-0.006,0.25-0.01c0.083,0.004,0.167,0.009,0.25,0.01c11.955-0.177,23.88-2.716,35.771-6.923
			c19.727-6.981,38.699-15.604,55.869-27.761c7.216-5.108,11.855-11.29,12.447-19.774c0.125-1.792,0.08-3.682-0.171-5.691
			c-1.015-8.106-2.097-16.206-3.142-24.309c-1.17-9.073-2.292-18.15-3.209-27.251c-0.243-2.407-0.473-4.815-0.684-7.226
			c-0.666-7.595-0.63-15.205,0-22.774c2.447-29.358,13.991-58.125,29.644-83.17c6.941-1.044,13.831-4.818,18.238-10.082
			c6.332-7.56,9.536-17.451,13.303-26.415c4.815-11.462,9.842-22.86,14.433-34.414c7.059-17.766,10.734-40.338-5.737-54.29
			c-4.534-3.84-10.457-5.717-16.342-5.717c-0.127,0-0.253,0.001-0.38,0.003c-0.003,0-0.007,0-0.01,0
			c-0.692,0-1.402-0.962-2.111-2.574c0.195-27.97,2.729-57.425-1.155-85c-2.341-16.627-7.775-32.667-14.842-47.856
			C594.037,40.222,567.385,19.118,530.6,8.1c-17.144-5.135-34.755-7.913-52.255-8.1c-0.083,0.001-0.167,0.003-0.25,0.005
			c-0.083-0.002-0.167-0.004-0.25-0.005c-17.5,0.187-35.111,2.965-52.255,8.1c-36.785,11.018-63.438,32.122-79.664,67.002
			c-7.066,15.189-12.501,31.229-14.842,47.856c-3.883,27.575-1.351,57.029-1.155,85c-0.709,1.612-1.42,2.574-2.111,2.574
			c-0.004,0-0.007,0-0.01,0c-0.127-0.002-0.254-0.003-0.38-0.003c-5.885,0-11.807,1.876-16.342,5.717
			c-16.472,13.952-12.797,36.524-5.737,54.29C309.934,282.09,314.96,293.488,319.775,304.95z"/>
	</g>
</g>
<g>
</g>
<g>
</g>
<g>
</g>
<g>
</g>
<g>
</g>
<g>
</g>
<g>
</g>
<g>
</g>
<g>
</g>
<g>
</g>
<g>
</g>
<g>
</g>
<g>
</g>
<g>
</g>
<g>
</g>
</svg>
