<?xml version="1.0" encoding="iso-8859-1"?>
<!-- Generator: Adobe Illustrator 16.0.0, SVG Export Plug-In . SVG Version: 6.00 Build 0)  -->
<!DOCTYPE svg PUBLIC "-//W3C//DTD SVG 1.1//EN" "http://www.w3.org/Graphics/SVG/1.1/DTD/svg11.dtd">
<svg version="1.1" id="Capa_1" xmlns="http://www.w3.org/2000/svg" xmlns:xlink="http://www.w3.org/1999/xlink" x="0px" y="0px"
	 width="950.002px" height="950.002px" viewBox="0 0 950.002 950.002" style="enable-background:new 0 0 950.002 950.002;"
	 xml:space="preserve">
<g>
	<g>
		<path d="M622.35,459.495h-26.637c1.061,9.475,2.301,18.999,3.518,28.312c0.236,1.807,0.475,3.639,0.715,5.478h20.035
			c73.057,0,132.49,58.31,132.49,129.981v109.223c0,8.283-6.715,15-15,15c-8.283,0-15-6.717-15-15V623.266
			c0-55.13-45.977-99.981-102.49-99.981h-20.217c-2.648,8.905-8.473,18.216-19.908,26.312
			c-17.09,12.101-36.551,21.807-61.244,30.545c-14.979,5.301-28.973,7.977-42.783,8.182l-0.328,0.005l-0.249-0.004l-0.249,0.004
			l-0.328-0.005c-13.81-0.205-27.804-2.881-42.781-8.182c-24.694-8.738-44.154-18.444-61.243-30.545
			c-11.438-8.098-17.261-17.408-19.91-26.312h-20.717c-56.513,0-102.49,44.852-102.49,99.981v109.223c0,8.284-6.716,15-15,15
			s-15-6.716-15-15V623.266c0-71.672,59.435-129.981,132.49-129.981h20.536c0.238-1.839,0.478-3.671,0.714-5.478
			c1.218-9.312,2.459-18.837,3.517-28.312h-27.135c-92.33,0-167.178,74.848-167.178,167.178v254.081
			c0,92.33,629.049,92.33,629.049,0V626.673C789.527,534.343,714.678,459.495,622.35,459.495z M669.096,703.56
			c0,23.277-9.145,46.856-25.09,64.69c-8.127,9.09-17.582,16.313-28.104,21.47c-11.566,5.669-23.812,8.543-36.4,8.543
			s-24.834-2.874-36.398-8.543c-10.521-5.156-19.977-12.38-28.104-21.47c-15.945-17.834-25.09-41.412-25.09-64.69v-35.646
			c0-22.056,17.943-40,40-40h99.188c22.057,0,40,17.944,40,40v35.646H669.096z"/>
		<path d="M629.096,657.914h-99.188c-5.523,0-10,4.477-10,10v35.646c0,32.913,26.68,64.703,59.594,64.703
			c32.912,0,59.594-31.79,59.594-64.703v-35.646C639.096,662.391,634.619,657.914,629.096,657.914z M616.285,706.229
			c0,20.314-16.467,39.654-36.783,39.654c-20.314,0-36.783-19.34-36.783-39.654v-18.175c0-5.522,4.479-10,10-10h53.566
			c5.523,0,10,4.478,10,10V706.229L616.285,706.229z"/>
		<path d="M316.938,304.95c3.766,8.964,6.97,18.854,13.302,26.415c4.408,5.263,11.297,9.038,18.239,10.082
			c19.688,31.504,32.893,68.895,29.643,105.945c-0.354,4.04-0.765,8.073-1.202,12.104c-1.222,11.282-2.705,22.535-4.175,33.789
			c-0.561,4.297-1.12,8.594-1.658,12.893c-0.862,6.899,0.588,12.439,3.755,17.107c2.124,3.131,5.014,5.875,8.521,8.358
			c17.17,12.157,36.142,20.779,55.87,27.761c11.889,4.207,23.813,6.746,35.769,6.923c0.083-0.001,0.167-0.006,0.25-0.01
			c0.083,0.004,0.167,0.009,0.25,0.01c11.956-0.177,23.879-2.716,35.77-6.923c19.727-6.981,38.701-15.604,55.871-27.761
			c3.508-2.483,6.396-5.227,8.52-8.358c3.168-4.668,4.619-10.208,3.756-17.107c-0.539-4.299-1.098-8.596-1.658-12.893
			c-1.471-11.254-2.951-22.507-4.176-33.789c-0.436-4.031-0.848-8.064-1.201-12.104c-3.25-37.05,9.955-74.44,29.643-105.944
			c6.941-1.044,13.832-4.818,18.24-10.082c6.33-7.56,9.535-17.451,13.301-26.415c4.816-11.462,9.842-22.86,14.434-34.414
			c7.061-17.766,10.734-40.338-5.736-54.29c-4.535-3.84-10.457-5.717-16.344-5.717c-0.127,0-0.252,0.001-0.379,0.003
			c-0.004,0-0.008,0-0.01,0c-0.693,0-1.402-0.962-2.111-2.574c0.195-27.97,2.729-57.425-1.154-85
			c-2.342-16.627-7.777-32.667-14.844-47.856c-16.227-34.88-42.879-55.984-79.664-67.002c-17.143-5.135-34.754-7.913-52.254-8.1
			c-0.083,0.001-0.167,0.003-0.25,0.005c-0.083-0.002-0.167-0.004-0.25-0.005c-17.5,0.187-35.111,2.965-52.255,8.1
			c-36.785,11.018-63.437,32.122-79.664,67.002c-7.065,15.189-12.501,31.229-14.842,47.856c-3.883,27.575-1.35,57.029-1.155,85
			c-0.709,1.612-1.42,2.574-2.11,2.574c-0.004,0-0.008,0-0.011,0c-0.127-0.002-0.254-0.003-0.38-0.003
			c-5.885,0-11.807,1.876-16.342,5.717c-16.472,13.952-12.797,36.524-5.737,54.29C307.096,282.09,312.122,293.488,316.938,304.95z"
			/>
	</g>
</g>
<g>
</g>
<g>
</g>
<g>
</g>
<g>
</g>
<g>
</g>
<g>
</g>
<g>
</g>
<g>
</g>
<g>
</g>
<g>
</g>
<g>
</g>
<g>
</g>
<g>
</g>
<g>
</g>
<g>
</g>
</svg>
