<?xml version="1.0" encoding="iso-8859-1"?>
<!-- Generator: Adobe Illustrator 16.0.0, SVG Export Plug-In . SVG Version: 6.00 Build 0)  -->
<!DOCTYPE svg PUBLIC "-//W3C//DTD SVG 1.1//EN" "http://www.w3.org/Graphics/SVG/1.1/DTD/svg11.dtd">
<svg version="1.1" id="Capa_1" xmlns="http://www.w3.org/2000/svg" xmlns:xlink="http://www.w3.org/1999/xlink" x="0px" y="0px"
	 width="959.998px" height="959.998px" viewBox="0 0 959.998 959.998" style="enable-background:new 0 0 959.998 959.998;"
	 xml:space="preserve">
<g>
	<g>
		<path d="M430.909,298.665c-10.793-8.722-20.03-15.861-26.745-20.781c-31.323-22.935-49.135-21.326-69.512,2.158
			c-0.238,0.287-17.732,21.368-48.678,57.362c37.449-1.613,68.72-13.679,91.22-26.248
			C397.305,299.942,408.18,297.988,430.909,298.665z"/>
		<path d="M37.37,637.379c1.373,5.614,7.2,10.32,12.976,10.52c9.629,0.333,25.305,0.871,44.434,1.514l6.954,28.913
			c1.165,4.845,6.149,8.771,11.132,8.771h35.443c4.983,0,9.967-3.928,11.132-8.771l6.394-26.586
			c13.213,0.42,26.633,0.84,39.812,1.239l6.58,27.36c1.165,4.845,6.149,8.771,11.132,8.771h35.443c4.983,0,9.967-3.928,11.132-8.771
			l6.103-25.376c11.983,0.305,23.965,0.672,35.945,1.077l6.085,25.305c1.166,4.845,6.148,8.772,11.133,8.772h35.443
			c4.981,0,9.967-3.929,11.132-8.772l5.436-22.603c63.954,2.74,127.894,5.853,191.897,6.977l6.542,27.205
			c1.166,4.845,6.148,8.771,11.132,8.771h35.444c4.982,0,9.967-3.928,11.132-8.771l6.465-26.883
			c12.657-0.119,25.312-0.343,37.965-0.683l6.388,26.559c1.166,4.845,6.148,8.771,11.132,8.771h35.442
			c4.983,0,9.968-3.928,11.133-8.771l7.175-29.834c11.26-0.766,22.516-1.657,33.753-2.722l7.83,32.557
			c1.165,4.845,6.148,8.771,11.132,8.771h35.443c4.982,0,9.967-3.928,11.132-8.771l10.248-42.61
			c14.731-2.579,29.396-5.537,43.967-8.977c14.595-3.446,29.079-7.379,43.404-11.82c5.521-1.711,9.974-7.866,9.98-13.645
			c0.019-15.745,0.051-43.77,0.051-44.367c0-8.306-3.471-18.775-7.436-25.977c-9.09-16.508-28.002-24.59-44.84-30.786
			c-25.477-9.375-52.109-15.588-78.459-21.942c-11.249-2.713-22.428-5.542-33.585-8.609c-16.737-4.601-33.427-9.37-50.129-14.093
			c-33.555-9.487-66.788-19.721-99.341-31.852c3.29-8.886-1.223-20.996-13.559-20.996c-7.6,0-12.22,4.602-13.89,10.21
			c-10.755-4.451-21.428-9.139-31.992-14.132c5.078-8.92,0.908-23.264-12.517-23.264c-7.689,0-12.33,4.712-13.948,10.411
			c-11.324-5.628-22.763-11.531-33.94-17.865c6.526-8.694,2.697-24.765-11.515-24.765c-7.204,0-11.735,4.134-13.611,9.341
			c-10.104-6.782-19.704-14.062-28.464-21.979c-6.207-5.608-12.053-11.656-19.068-16.296c-20.469-13.535-48.863-7.601-68.967,3.757
			c-30.699,17.314-99.872,38.339-158.737,20.467c-24.736-7.51-48.536-20.604-66.569-39.315
			c-9.182-9.527-16.161-20.369-22.466-31.925c-5.51-10.1-11.723-20.819-24.309-22.393c-24.824-3.104-47.586,31.792-61.179,48.147
			C22.498,341.517,3.852,385.088,0.534,430.44c-3.155,43.142,8.291,88.042,17.902,129.854
			C24.367,586.083,31.086,611.673,37.37,637.379z M47.993,367.924c86.626,59.598,216.048,95.763,371.565,125.382
			c157.008,29.909,224.76,115.965,238.396,135.531c-11.979-0.195-23.956-0.497-35.93-0.889c-23.655-0.774-47.295-1.871-70.928-3.174
			c-58.35-3.215-116.643-7.675-174.938-11.583c-4.41-0.273-8.788-0.544-13.149-0.812c-24.576-52.172-73.598-84.416-123.958-108.656
			c-50.977-24.538-111.077-39.56-152.127-80.175c-12.568-12.435-23.289-26.624-32.127-41.925
			C53.806,379.904,46.737,370.111,47.993,367.924z"/>
	</g>
</g>
<g>
</g>
<g>
</g>
<g>
</g>
<g>
</g>
<g>
</g>
<g>
</g>
<g>
</g>
<g>
</g>
<g>
</g>
<g>
</g>
<g>
</g>
<g>
</g>
<g>
</g>
<g>
</g>
<g>
</g>
</svg>
