<?xml version="1.0" encoding="iso-8859-1"?>
<!-- Generator: Adobe Illustrator 16.0.0, SVG Export Plug-In . SVG Version: 6.00 Build 0)  -->
<!DOCTYPE svg PUBLIC "-//W3C//DTD SVG 1.1//EN" "http://www.w3.org/Graphics/SVG/1.1/DTD/svg11.dtd">
<svg version="1.1" id="Capa_1" xmlns="http://www.w3.org/2000/svg" xmlns:xlink="http://www.w3.org/1999/xlink" x="0px" y="0px"
	 width="952.1px" height="952.1px" viewBox="0 0 952.1 952.1" style="enable-background:new 0 0 952.1 952.1;" xml:space="preserve"
	>
<g>
	<g>
		<path d="M464.464,486.4h-355.1c-5.1,0-9.2,4.1-9.2,9.199V942.9c0,5.1,4.1,9.199,9.2,9.199h260.2c6.2-0.1,11.2-2.799,15.5-6.6
			l323.901-315.1c-18.9-1.1-37.9-2.9-56.5-5.801c-33.4-5.1-62.701-13.199-87.301-24c-29-12.699-52.4-29.6-69.5-50.299
			C480.363,531.9,469.964,510.6,464.464,486.4z"/>
		<path d="M498.064,486.4c4.699,16.199,12.299,30.6,22.6,43c26.301,31.799,72.301,52.9,136.699,62.799
			c27.4,4.201,56.102,6.102,83.801,6.602L849.965,493.1c3.5-3.699,2.199-6.6-2.801-6.6h-28.301V15c0-8.3-6.699-15-15-15
			c-3.1,0-6,1-8.398,2.6c-0.5,0.2-1,0.4-1.5,0.7L576.664,131c-5.199,3.1-5.199,8,0,11l212.199,124.7v219.7H498.064L498.064,486.4z"
			/>
	</g>
</g>
<g>
</g>
<g>
</g>
<g>
</g>
<g>
</g>
<g>
</g>
<g>
</g>
<g>
</g>
<g>
</g>
<g>
</g>
<g>
</g>
<g>
</g>
<g>
</g>
<g>
</g>
<g>
</g>
<g>
</g>
</svg>
