<?xml version="1.0" encoding="iso-8859-1"?>
<!-- Generator: Adobe Illustrator 16.0.0, SVG Export Plug-In . SVG Version: 6.00 Build 0)  -->
<!DOCTYPE svg PUBLIC "-//W3C//DTD SVG 1.1//EN" "http://www.w3.org/Graphics/SVG/1.1/DTD/svg11.dtd">
<svg version="1.1" id="Capa_1" xmlns="http://www.w3.org/2000/svg" xmlns:xlink="http://www.w3.org/1999/xlink" x="0px" y="0px"
	 width="945.894px" height="945.894px" viewBox="0 0 945.894 945.894" style="enable-background:new 0 0 945.894 945.894;"
	 xml:space="preserve">
<g>
	<g>
		<path d="M162.827,355.193l36.1,36.101c4.4,4.399,11.5,4.399,15.9,0l48.5-48.5l48.5,48.5c4.399,4.399,11.5,4.399,15.899,0
			l36.101-36.101c4.399-4.4,4.399-11.5,0-15.9l-48.5-48.5l48.5-48.5c4.399-4.4,4.399-11.5,0-15.9l-36.101-36.1
			c-4.399-4.4-11.5-4.4-15.899,0l-48.5,48.5l-48.5-48.5c-4.4-4.4-11.5-4.4-15.9,0l-36.1,36.1c-4.4,4.4-4.4,11.5,0,15.9l48.5,48.5
			l-48.5,48.5C158.427,343.693,158.427,350.793,162.827,355.193z"/>
		<path d="M643.427,482.794l-36.1,36.1c-4.4,4.4-4.4,11.5,0,15.9l48.5,48.5l-48.5,48.5c-4.4,4.399-4.4,11.5,0,15.899l36.1,36.101
			c4.4,4.399,11.5,4.399,15.9,0l48.5-48.5l48.5,48.5c4.399,4.399,11.5,4.399,15.899,0l36.101-36.101
			c4.399-4.399,4.399-11.5,0-15.899l-48.4-48.5l48.5-48.5c4.4-4.4,4.4-11.5,0-15.9l-36.1-36.1c-4.4-4.4-11.5-4.4-15.9,0l-48.5,48.5
			l-48.5-48.5C654.927,478.394,647.827,478.394,643.427,482.794z"/>
		<circle cx="382.227" cy="826.994" r="118.9"/>
		<circle cx="803.526" cy="161.394" r="118.9"/>
		<path d="M484.927,404.794c-27.3,39.199-50,80.6-67.5,123c-29.9,72.8-33.9,123.399-34.1,125.5c-0.601,8.3,5.6,15.5,13.8,16.1
			c0.399,0,0.8,0,1.1,0c7.8,0,14.4-6,14.9-13.9c0-0.5,3.8-47.899,31.899-116.3c16.601-40.5,38.2-79.899,64.301-117.3
			c30.199-43.3,66.5-83.8,107.899-120.7l18.601,23.2l28.899-74.3c2-5.1-0.8-8.6-6.3-7.8l-78.5,12.2l18.7,23.3
			C554.927,316.494,516.727,359.193,484.927,404.794z"/>
		<path d="M24.527,329.594c4.8,73.8,25.6,145.8,61.699,213.899c61.5,115.7,145.2,179.601,148.7,182.2c2.7,2,5.9,3,9,3
			c4.5,0,9-2.1,12-6c5-6.6,3.7-16-2.899-21c-0.801-0.6-82.601-63.2-140.801-173.399c-34-64.301-53.399-132.101-57.8-201.5
			c-5.2-82.7,11.101-168.4,48.5-254.6l26.601,13.3l-4.801-79.6c-0.3-5.5-4.3-7.5-8.899-4.5l-66.601,43.9l26.801,13.4
			C36.127,150.193,18.827,241.193,24.527,329.594z"/>
	</g>
</g>
<g>
</g>
<g>
</g>
<g>
</g>
<g>
</g>
<g>
</g>
<g>
</g>
<g>
</g>
<g>
</g>
<g>
</g>
<g>
</g>
<g>
</g>
<g>
</g>
<g>
</g>
<g>
</g>
<g>
</g>
</svg>
