<?xml version="1.0" encoding="iso-8859-1"?>
<!-- Generator: Adobe Illustrator 16.0.0, SVG Export Plug-In . SVG Version: 6.00 Build 0)  -->
<!DOCTYPE svg PUBLIC "-//W3C//DTD SVG 1.1//EN" "http://www.w3.org/Graphics/SVG/1.1/DTD/svg11.dtd">
<svg version="1.1" id="Capa_1" xmlns="http://www.w3.org/2000/svg" xmlns:xlink="http://www.w3.org/1999/xlink" x="0px" y="0px"
	 width="920.825px" height="920.825px" viewBox="0 0 920.825 920.825" style="enable-background:new 0 0 920.825 920.825;"
	 xml:space="preserve">
<g>
	<g>
		<path d="M855.2,665.162l23.7-176.6c-23.7,9.2-55,17.5-93.2,24.6c-89.2,16.7-207.5,25.9-333.2,25.9s-244.1-9.2-333.2-25.9
			c-38-7.1-69.1-15.3-92.7-24.399l24.2,176.3c1,5.4,4.9,13,9.1,16.6c31.9,26.801,100.7,59,235.6,73.301v-146c0-13.801,11.2-25,25-25
			h263.8c13.8,0,25,11.199,25,25v146.3c135.5-13.9,203.8-45.601,236.7-73.601C850.3,678.162,854.2,670.562,855.2,665.162z"/>
		<path d="M898.5,343.462c-2.9,1.5-6,3-9.3,4.4c-24.601,10.9-59.4,20.601-103.5,28.9c-89.2,16.7-207.5,25.899-333.2,25.899
			s-244.1-9.199-333.2-25.899c-44.1-8.3-78.9-18-103.5-28.9c-3.2-1.399-6.3-2.9-9.2-4.4l15.2,110.5c1.9,0.899,3.9,1.899,6.2,2.899
			c22.2,9.8,55.6,19.101,96.8,26.8c87.4,16.4,203.8,25.4,327.7,25.4s240.3-9,327.7-25.4c41.2-7.699,74.7-17,96.8-26.8
			c2.4-1.1,4.6-2.1,6.6-3.1L898.5,343.462z"/>
		<path d="M28,320.462c22.2,9.8,55.6,19.1,96.8,26.8l0,0c1-0.601,2.1-1.101,3.4-1.4c72.9-17,193.7-27.1,323.1-27.1
			c131.101,0,252.8,10.3,325.5,27.7c0.9,0.199,1.8,0.6,2.601,1c0.3,0,0.5-0.101,0.8-0.101c41.2-7.7,74.7-17,96.8-26.8
			c18-8,24.9-14.7,27-18.2c0.6-1,0.8-1.7,0.8-2.2c0-2.2-5-10.3-27.8-20.4c-9.8-4.3-21.8-8.6-35.7-12.6v-15.6v-15.6v-19.4l76-45.2
			c4.7-2.8,4.7-7.4,0-10.2l-84.8-49.8c-1.9-0.8-4-1.3-6.2-1.3c-8.3,0-15,6.7-15,15v103.5v15.4v15.4c-9.8-2.3-20.2-4.4-31.1-6.5
			c-83.601-15.7-193.601-24.6-311.5-25.4v-15v-15v-15l76-45.2c4.7-2.8,4.7-7.4,0-10.2l-84.9-49.7c-1.899-0.8-4-1.3-6.2-1.3
			c-8.3,0-15,6.7-15,15v106.4v15v15c-118.699,0.6-229.8,9.6-313.899,25.4c-10.1,1.9-19.6,3.9-28.7,5.9v-15.4v-15.4v-11.6l76-45.2
			c4.7-2.8,4.7-7.4,0-10.2l-84.9-49.7c-1.9-0.8-4-1.3-6.2-1.3c-8.3,0-15,6.7-15,15v110.2v15.5v15.6c-14.9,4.2-27.8,8.7-38.1,13.3
			C5,289.663,0,297.763,0,299.962c0,0.5,0.2,1.2,0.8,2.2C3.1,305.862,10,312.462,28,320.462z"/>
		<path d="M713.2,357.662c-70.101-10.3-163.101-16.1-261.8-16.1c-98,0-190.7,5.8-260.8,16c76.4,9.9,167,15.2,261.9,15.2
			C547,372.662,637,367.463,713.2,357.662z"/>
		<path d="M325.6,614.062v143.8v28.8l-15,5l-15,5l-19.199,6.301c-5.2,1.699-9.5,7.6-9.5,13.1v18.7c0,5.5,4.5,10,10,10H628
			c5.5,0,10-4.5,10-10v-18.7c0-5.5-4.3-11.4-9.5-13.1l-19.2-6.301l-15-5l-15-5v-28.6v-144h-36.6v128.9H362.2v-128.9H325.6z"/>
	</g>
</g>
<g>
</g>
<g>
</g>
<g>
</g>
<g>
</g>
<g>
</g>
<g>
</g>
<g>
</g>
<g>
</g>
<g>
</g>
<g>
</g>
<g>
</g>
<g>
</g>
<g>
</g>
<g>
</g>
<g>
</g>
</svg>
