<?xml version="1.0" encoding="iso-8859-1"?>
<!-- Generator: Adobe Illustrator 18.0.0, SVG Export Plug-In . SVG Version: 6.00 Build 0)  -->
<!DOCTYPE svg PUBLIC "-//W3C//DTD SVG 1.1//EN" "http://www.w3.org/Graphics/SVG/1.1/DTD/svg11.dtd">
<svg version="1.1" id="Capa_1" xmlns="http://www.w3.org/2000/svg" xmlns:xlink="http://www.w3.org/1999/xlink" x="0px" y="0px"
	 viewBox="0 0 297 297" style="enable-background:new 0 0 297 297;" xml:space="preserve">
<g>
	<path d="M184.467,215.802c-5.108,0-9.264,4.156-9.264,9.264c0,5.108,4.156,9.264,9.264,9.264c5.108,0,9.264-4.156,9.264-9.264
		C193.731,219.958,189.575,215.802,184.467,215.802z"/>
	<path d="M193.731,17.983h-27.248c-4.815,0-8.719-3.904-8.719-8.719c0-5.108-4.156-9.264-9.264-9.264
		c-5.108,0-9.264,4.156-9.264,9.264c0,4.815-3.904,8.719-8.719,8.719h-27.248v18.528h90.462V17.983z"/>
	<path d="M238.871,27.248H211.17v17.984c0,4.815-3.904,8.719-8.719,8.719H94.549c-4.815,0-8.719-3.904-8.719-8.719V27.248H58.129
		c-9.681,0-17.529,7.848-17.529,17.529V279.47c0,9.681,7.848,17.53,17.529,17.53h180.743c9.681,0,17.529-7.848,17.529-17.53V44.777
		C256.401,35.096,248.553,27.248,238.871,27.248z M94.549,125.884c-2.232,0-4.463-0.852-6.166-2.553
		c-3.405-3.406-3.405-8.926,0-12.332l11.818-11.818L88.384,87.364c-3.405-3.406-3.405-8.926,0-12.332
		c3.406-3.404,8.926-3.404,12.332,0l11.818,11.818l11.818-11.818c3.406-3.404,8.926-3.404,12.332,0
		c3.405,3.406,3.405,8.926,0,12.332l-11.818,11.818l11.818,11.818c3.405,3.406,3.405,8.926,0,12.332
		c-1.703,1.702-3.934,2.553-6.166,2.553c-2.232,0-4.463-0.852-6.166-2.553l-11.818-11.818l-11.818,11.818
		C99.012,125.033,96.781,125.884,94.549,125.884z M148.262,206.917c-1.71,2.303-4.342,3.52-7.005,3.52
		c-1.808,0-3.632-0.561-5.194-1.722c-27.197-20.21-32.376-62.144-32.583-63.918c-0.558-4.783,2.867-9.113,7.649-9.672
		c4.781-0.553,9.108,2.862,9.671,7.641c0.064,0.524,4.611,36.307,25.664,51.953C150.33,197.589,151.134,203.052,148.262,206.917z
		 M184.467,251.769c-14.724,0-26.703-11.978-26.703-26.703c0-14.725,11.978-26.703,26.703-26.703
		c14.724,0,26.703,11.978,26.703,26.703C211.17,239.79,199.191,251.769,184.467,251.769z"/>
</g>
<g>
</g>
<g>
</g>
<g>
</g>
<g>
</g>
<g>
</g>
<g>
</g>
<g>
</g>
<g>
</g>
<g>
</g>
<g>
</g>
<g>
</g>
<g>
</g>
<g>
</g>
<g>
</g>
<g>
</g>
</svg>
