<?xml version="1.0" encoding="iso-8859-1"?>
<!-- Generator: Adobe Illustrator 18.0.0, SVG Export Plug-In . SVG Version: 6.00 Build 0)  -->
<!DOCTYPE svg PUBLIC "-//W3C//DTD SVG 1.1//EN" "http://www.w3.org/Graphics/SVG/1.1/DTD/svg11.dtd">
<svg version="1.1" id="Capa_1" xmlns="http://www.w3.org/2000/svg" xmlns:xlink="http://www.w3.org/1999/xlink" x="0px" y="0px"
	 viewBox="0 0 297 297" style="enable-background:new 0 0 297 297;" xml:space="preserve">
<g>
	<path d="M181.116,195.694c-14.442,0-26.191,11.749-26.191,26.191s11.749,26.191,26.191,26.191
		c14.442,0,26.191-11.749,26.191-26.191S195.558,195.694,181.116,195.694z M181.116,228.309c-3.542,0-6.424-2.882-6.424-6.424
		s2.882-6.424,6.424-6.424c3.542,0,6.424,2.882,6.424,6.424S184.658,228.309,181.116,228.309z"/>
	<path d="M246.347,32.616h-39.04v-6.424c0-5.458-4.425-9.884-9.884-9.884h-24.668C168.847,6.751,159.447,0,148.5,0
		s-20.347,6.751-24.255,16.308H99.577c-5.458,0-9.884,4.425-9.884,9.884v6.424h-39.04c-5.458,0-9.884,4.425-9.884,9.884v244.617
		c0,5.458,4.425,9.884,9.884,9.884h195.694c5.458,0,9.884-4.425,9.884-9.884V42.499C256.23,37.041,251.805,32.616,246.347,32.616z
		 M109.46,36.075h22.732c5.458,0,9.884-4.425,9.884-9.884c0-3.542,2.882-6.424,6.424-6.424s6.424,2.882,6.424,6.424
		c0,5.458,4.425,9.884,9.884,9.884h22.732v12.849h-78.08V36.075z M236.463,277.233H60.537V52.383h29.156v6.424
		c0,5.458,4.425,9.884,9.884,9.884h97.847c5.458,0,9.884-4.425,9.884-9.884v-6.424h29.156V277.233z"/>
	<path d="M115.884,121.708l9.319,9.319c1.93,1.929,4.459,2.895,6.989,2.895c2.53,0,5.059-0.965,6.989-2.895
		c3.86-3.86,3.86-10.118,0-13.978l-9.319-9.319l9.319-9.319c3.86-3.86,3.86-10.118,0-13.978c-3.861-3.859-10.117-3.859-13.978,0
		l-9.319,9.319l-9.319-9.319c-3.861-3.859-10.117-3.859-13.978,0c-3.86,3.86-3.86,10.118,0,13.978l9.319,9.319l-9.319,9.319
		c-3.86,3.86-3.86,10.118,0,13.978c1.93,1.929,4.459,2.895,6.989,2.895c2.53,0,5.059-0.965,6.989-2.895L115.884,121.708z"/>
	<path d="M147.833,192.778c-18.435-13.7-22.451-45.445-22.49-45.763c-0.642-5.413-5.548-9.289-10.961-8.654
		c-5.421,0.633-9.304,5.541-8.671,10.963c0.192,1.645,4.992,40.49,30.331,59.32c1.771,1.317,3.839,1.952,5.888,1.952
		c3.02,0,6.001-1.379,7.941-3.989C153.126,202.225,152.214,196.034,147.833,192.778z"/>
</g>
<g>
</g>
<g>
</g>
<g>
</g>
<g>
</g>
<g>
</g>
<g>
</g>
<g>
</g>
<g>
</g>
<g>
</g>
<g>
</g>
<g>
</g>
<g>
</g>
<g>
</g>
<g>
</g>
<g>
</g>
</svg>
