<?xml version="1.0" encoding="iso-8859-1"?>
<!-- Generator: Adobe Illustrator 19.0.0, SVG Export Plug-In . SVG Version: 6.00 Build 0)  -->
<svg version="1.1" id="Capa_1" xmlns="http://www.w3.org/2000/svg" xmlns:xlink="http://www.w3.org/1999/xlink" x="0px" y="0px"
	 viewBox="0 0 512.002 512.002" style="enable-background:new 0 0 512.002 512.002;" xml:space="preserve">
<g>
	<g>
		<path d="M471.299,0H40.703c-16.542,0-30,13.458-30,30v289.82c0,16.542,13.458,30,30,30h131.205l-22.471,144.881
			c-1.27,8.186,4.338,15.852,12.524,17.122c8.18,1.269,15.853-4.337,17.122-12.524L179.44,497l10.274-66.244h132.572L332.562,497
			l0.356,2.299c1.149,7.408,7.534,12.704,14.805,12.703c0.764,0,1.539-0.059,2.317-0.179c8.187-1.27,13.794-8.936,12.524-17.122
			l-22.47-144.881h131.205c16.542,0,30-13.458,30-30V30C501.299,13.458,487.841,0,471.299,0z M271.001,136.478
			c15.357,6.015,26.267,20.969,26.267,38.432s-10.909,32.417-26.267,38.432V136.478z M40.703,319.82V30h200.298v75.246
			c-32.116,6.909-56.267,35.514-56.267,69.664c0,34.15,24.15,62.755,56.267,69.664v75.246H40.703z M241.001,136.479v76.864
			c-15.357-6.015-26.267-20.969-26.267-38.432S225.643,142.494,241.001,136.479z M194.368,400.756l7.9-50.936h107.466l7.9,50.936
			H194.368z M471.299,319.82H271.001v-75.246c32.116-6.909,56.267-35.514,56.267-69.664c0-34.15-24.15-62.755-56.267-69.664V30
			h200.298l0.02,289.819C471.319,319.819,471.313,319.82,471.299,319.82z"/>
	</g>
</g>
<g>
	<g>
		<path d="M167.822,92.621l6.476-6.476c5.858-5.858,5.858-15.355,0-21.213c-5.857-5.858-15.355-5.858-21.213,0l-6.476,6.476
			l-6.476-6.476c-5.857-5.858-15.355-5.858-21.213,0c-5.858,5.858-5.858,15.355,0,21.213l6.476,6.476l-6.476,6.476
			c-5.857,5.858-5.857,15.355,0.002,21.213c2.929,2.929,6.768,4.394,10.606,4.394c3.838,0,7.678-1.464,10.606-4.394l6.476-6.476
			l6.476,6.476c2.929,2.929,6.768,4.394,10.606,4.394s7.678-1.464,10.606-4.394c5.858-5.858,5.858-15.355,0-21.213L167.822,92.621z"
			/>
	</g>
</g>
<g>
	<g>
		<path d="M137.82,174.91l6.476-6.476c5.858-5.858,5.858-15.355,0-21.213c-5.857-5.858-15.355-5.858-21.213,0l-6.476,6.476
			l-6.476-6.476c-5.857-5.858-15.355-5.858-21.213,0c-5.858,5.858-5.858,15.355,0,21.213l6.476,6.476l-6.476,6.476
			c-5.858,5.858-5.858,15.355,0,21.213c2.929,2.929,6.768,4.394,10.606,4.394c3.838,0,7.678-1.464,10.606-4.394l6.476-6.476
			l6.478,6.476c2.929,2.929,6.768,4.394,10.606,4.394s7.678-1.464,10.606-4.394c5.858-5.858,5.858-15.355,0-21.213L137.82,174.91z"
			/>
	</g>
</g>
<g>
	<g>
		<path d="M167.824,257.199l6.475-6.475c5.858-5.857,5.858-15.355,0-21.213c-5.856-5.858-15.354-5.858-21.213,0l-6.476,6.475
			l-6.476-6.475c-5.857-5.858-15.355-5.858-21.213,0c-5.858,5.858-5.858,15.355,0,21.213l6.475,6.475l-6.475,6.475
			c-5.858,5.858-5.858,15.355,0,21.213c2.929,2.929,6.768,4.394,10.606,4.394c3.838,0,7.678-1.465,10.606-4.394l6.476-6.475
			l6.476,6.475c2.929,2.929,6.768,4.394,10.606,4.394c3.838,0,7.678-1.464,10.606-4.394c5.86-5.857,5.86-15.355,0.002-21.213
			L167.824,257.199z"/>
	</g>
</g>
<g>
	<g>
		<path d="M386.603,92.621l6.476-6.476c5.858-5.858,5.858-15.355,0-21.213c-5.857-5.858-15.355-5.858-21.213,0l-6.476,6.476
			l-6.476-6.476c-5.857-5.858-15.355-5.858-21.213,0c-5.858,5.858-5.858,15.355,0,21.213l6.476,6.476l-6.476,6.476
			c-5.856,5.858-5.856,15.355,0.002,21.213c2.929,2.929,6.768,4.394,10.606,4.394c3.838,0,7.678-1.464,10.606-4.394l6.476-6.476
			l6.476,6.476c2.929,2.929,6.768,4.394,10.606,4.394c3.838,0,7.678-1.464,10.606-4.394c5.858-5.858,5.858-15.355,0-21.213
			L386.603,92.621z"/>
	</g>
</g>
<g>
	<g>
		<path d="M416.605,174.911l6.476-6.476c5.858-5.858,5.858-15.355,0-21.213c-5.857-5.858-15.355-5.858-21.213,0l-6.476,6.476
			l-6.474-6.476c-5.857-5.858-15.355-5.858-21.213,0c-5.858,5.858-5.858,15.355,0,21.213l6.476,6.476l-6.476,6.476
			c-5.858,5.858-5.858,15.355,0,21.213c2.929,2.929,6.768,4.394,10.606,4.394c3.838,0,7.678-1.464,10.606-4.394l6.476-6.476
			l6.476,6.476c2.929,2.929,6.768,4.394,10.606,4.394c3.838,0,7.678-1.464,10.606-4.394c5.858-5.858,5.858-15.355,0-21.213
			L416.605,174.911z"/>
	</g>
</g>
<g>
	<g>
		<path d="M386.604,257.2l6.475-6.475c5.858-5.857,5.858-15.355,0-21.213c-5.856-5.858-15.354-5.858-21.213,0l-6.476,6.475
			l-6.476-6.475c-5.857-5.858-15.355-5.858-21.213,0c-5.858,5.858-5.858,15.355,0,21.213l6.475,6.475l-6.475,6.475
			c-5.856,5.857-5.856,15.355,0.002,21.213c2.929,2.929,6.768,4.394,10.606,4.394c3.838,0,7.678-1.465,10.606-4.394l6.476-6.475
			l6.476,6.475c2.929,2.929,6.768,4.394,10.606,4.394c3.838,0,7.678-1.464,10.606-4.394c5.858-5.858,5.858-15.355,0-21.213
			L386.604,257.2z"/>
	</g>
</g>
<g>
</g>
<g>
</g>
<g>
</g>
<g>
</g>
<g>
</g>
<g>
</g>
<g>
</g>
<g>
</g>
<g>
</g>
<g>
</g>
<g>
</g>
<g>
</g>
<g>
</g>
<g>
</g>
<g>
</g>
</svg>
