<?xml version="1.0" encoding="iso-8859-1"?>
<!-- Generator: Adobe Illustrator 19.0.0, SVG Export Plug-In . SVG Version: 6.00 Build 0)  -->
<svg version="1.1" id="Capa_1" xmlns="http://www.w3.org/2000/svg" xmlns:xlink="http://www.w3.org/1999/xlink" x="0px" y="0px"
	 viewBox="0 0 512.002 512.002" style="enable-background:new 0 0 512.002 512.002;" xml:space="preserve">
<g>
	<g>
		<path d="M471.299,0H271.001v105.246c32.116,6.909,56.267,35.514,56.267,69.664c0,34.15-24.15,62.755-56.267,69.664V349.82h38.733
			l7.9,50.936H194.368l7.9-50.936h38.733V244.575c-32.116-6.909-56.267-35.514-56.267-69.664c0-34.15,24.15-62.755,56.267-69.664V0
			H40.703c-16.542,0-30,13.458-30,30v289.82c0,16.542,13.458,30,30,30h131.205l-22.471,144.881
			c-1.27,8.186,4.338,15.852,12.524,17.122c8.18,1.269,15.853-4.337,17.122-12.524L179.44,497l10.274-66.244h132.572L332.562,497
			l0.356,2.299c1.149,7.408,7.534,12.704,14.805,12.703c0.764,0,1.539-0.059,2.317-0.179c8.187-1.27,13.794-8.936,12.524-17.122
			l-22.47-144.881h131.205c16.542,0,30-13.458,30-30V30C501.299,13.458,487.841,0,471.299,0z M106.613,55.262
			c5.858-5.858,15.356-5.857,21.213,0l8.138,8.138l8.138-8.138c5.857-5.858,15.355-5.858,21.213,0
			c5.858,5.857,5.858,15.355,0,21.213l-8.138,8.138l8.138,8.138c5.858,5.858,5.858,15.355,0,21.213
			c-2.929,2.929-6.769,4.394-10.606,4.394c-3.839,0-7.678-1.464-10.606-4.394l-8.138-8.138l-8.138,8.138
			c-2.929,2.929-6.768,4.394-10.606,4.394c-3.838,0-7.678-1.464-10.606-4.394c-5.858-5.857-5.858-15.355,0-21.213l8.138-8.138
			l-8.14-8.138C100.755,70.617,100.755,61.12,106.613,55.262z M84.299,208.655c-3.839,0-7.678-1.464-10.606-4.394
			c-5.858-5.858-5.858-15.355,0-21.213l8.138-8.138l-8.14-8.138c-5.858-5.857-5.858-15.355,0-21.213
			c5.857-5.858,15.355-5.858,21.213,0l8.138,8.138l8.138-8.138c5.857-5.858,15.355-5.858,21.213,0
			c5.858,5.858,5.858,15.355,0,21.213l-8.138,8.138l8.138,8.138c5.858,5.857,5.858,15.355,0,21.213
			c-2.929,2.929-6.768,4.394-10.606,4.394s-7.678-1.464-10.606-4.394l-8.138-8.138l-8.138,8.138
			C91.976,207.19,88.136,208.655,84.299,208.655z M165.314,273.346c5.858,5.858,5.858,15.355,0,21.213
			c-2.929,2.929-6.769,4.394-10.606,4.394c-3.839,0-7.678-1.464-10.606-4.394l-8.138-8.138l-8.138,8.138
			c-2.929,2.929-6.768,4.394-10.606,4.394s-7.678-1.464-10.606-4.394c-5.858-5.857-5.858-15.355,0-21.213l8.138-8.138l-8.138-8.138
			c-5.858-5.858-5.858-15.355,0-21.213c5.858-5.858,15.356-5.857,21.213,0l8.138,8.138l8.138-8.138
			c5.857-5.858,15.355-5.858,21.213,0c5.858,5.857,5.858,15.355,0,21.213l-8.138,8.138L165.314,273.346z M346.688,55.262
			c5.858-5.858,15.356-5.857,21.213,0l8.138,8.138l8.138-8.138c5.857-5.858,15.355-5.858,21.213,0
			c5.858,5.857,5.858,15.355,0,21.213l-8.138,8.138l8.138,8.138c5.858,5.858,5.858,15.355,0,21.213
			c-2.929,2.929-6.769,4.394-10.606,4.394c-3.839,0-7.678-1.464-10.606-4.394l-8.138-8.138l-8.138,8.138
			c-2.929,2.929-6.768,4.394-10.606,4.394c-3.838,0-7.678-1.464-10.606-4.394c-5.858-5.857-5.858-15.355,0-21.213l8.138-8.138
			l-8.14-8.138C340.83,70.617,340.83,61.12,346.688,55.262z M405.39,273.346c5.858,5.858,5.858,15.355,0,21.213
			c-2.929,2.929-6.769,4.394-10.606,4.394c-3.839,0-7.678-1.464-10.606-4.394l-8.138-8.138l-8.138,8.138
			c-2.929,2.929-6.768,4.394-10.606,4.394c-3.838,0-7.678-1.464-10.606-4.394c-5.858-5.857-5.858-15.355,0-21.213l8.138-8.138
			l-8.14-8.138c-5.858-5.858-5.858-15.355,0-21.213c5.858-5.858,15.356-5.857,21.213,0l8.138,8.138l8.138-8.138
			c5.857-5.858,15.355-5.858,21.213,0c5.858,5.857,5.858,15.355,0,21.213l-8.138,8.138L405.39,273.346z M438.311,183.048
			c5.858,5.857,5.858,15.355,0,21.213c-2.929,2.929-6.768,4.394-10.606,4.394c-3.838,0-7.678-1.464-10.606-4.394l-8.138-8.138
			l-8.138,8.138c-2.929,2.929-6.769,4.394-10.606,4.394c-3.839,0-7.678-1.464-10.606-4.394c-5.858-5.858-5.858-15.355,0-21.213
			l8.138-8.138l-8.138-8.138c-5.858-5.857-5.858-15.355,0-21.213c5.857-5.858,15.355-5.858,21.213,0l8.138,8.138l8.138-8.138
			c5.858-5.858,15.356-5.858,21.213,0c5.858,5.858,5.858,15.355,0,21.213l-8.138,8.138L438.311,183.048z"/>
	</g>
</g>
<g>
	<g>
		<path d="M271.001,136.478v76.865c15.357-6.015,26.267-20.969,26.267-38.432S286.358,142.493,271.001,136.478z"/>
	</g>
</g>
<g>
	<g>
		<path d="M214.734,174.91c0,17.464,10.909,32.417,26.267,38.432v-76.865C225.644,142.493,214.734,157.447,214.734,174.91z"/>
	</g>
</g>
<g>
</g>
<g>
</g>
<g>
</g>
<g>
</g>
<g>
</g>
<g>
</g>
<g>
</g>
<g>
</g>
<g>
</g>
<g>
</g>
<g>
</g>
<g>
</g>
<g>
</g>
<g>
</g>
<g>
</g>
</svg>
