<?xml version="1.0" encoding="iso-8859-1"?>
<!-- Generator: Adobe Illustrator 19.0.0, SVG Export Plug-In . SVG Version: 6.00 Build 0)  -->
<svg version="1.1" id="Capa_1" xmlns="http://www.w3.org/2000/svg" xmlns:xlink="http://www.w3.org/1999/xlink" x="0px" y="0px"
	 viewBox="0 0 512 512" style="enable-background:new 0 0 512 512;" xml:space="preserve">
<g>
	<g>
		<path d="M283.562,155.007c-10.015,0-18.162,8.148-18.162,18.163v46.98c0,10.015,8.147,18.162,18.162,18.162
			c10.016,0,18.163-8.147,18.163-18.162v-46.98C301.725,163.155,293.577,155.007,283.562,155.007z"/>
	</g>
</g>
<g>
	<g>
		<path d="M507.493,166.744l-86.5-84.691c-20.142-19.722-46.76-30.583-74.95-30.583h-7.407c-0.773-0.634-1.621-1.2-2.54-1.684
			l-22.649-11.923c-7.332-3.861-16.401-1.044-20.261,6.286c-1.231,2.339-1.776,4.854-1.719,7.322h-70.935
			c0.057-2.467-0.488-4.983-1.719-7.322c-3.859-7.331-12.932-10.146-20.261-6.286l-22.649,11.923
			c-0.919,0.484-1.767,1.05-2.54,1.684h-7.407c-28.19,0-54.809,10.861-74.95,30.583l-86.5,84.691
			c-5.77,5.649-6.032,14.851-0.595,20.819l56.561,62.091c5.264,5.779,14.083,6.546,20.267,1.764l35.118-27.164l3.559,236.84
			c0.123,8.195,6.802,14.774,14.998,14.774h243.174c8.196,0,14.875-6.579,14.998-14.774l3.559-236.84l35.118,27.164
			c6.183,4.782,15.002,4.016,20.267-1.764l56.561-62.091C513.526,181.595,513.263,172.393,507.493,166.744z M210.274,253.312
			c0,8.284-6.716,15-15,15s-15-6.716-15-15V140.007c0-8.284,6.716-15,15-15s15,6.716,15,15V253.312z M331.725,220.15
			c0,26.557-21.605,48.162-48.163,48.162c-26.557,0-48.162-21.605-48.162-48.162v-46.98c0-26.557,21.605-48.163,48.162-48.163
			c26.558,0,48.163,21.605,48.163,48.163V220.15z"/>
	</g>
</g>
<g>
</g>
<g>
</g>
<g>
</g>
<g>
</g>
<g>
</g>
<g>
</g>
<g>
</g>
<g>
</g>
<g>
</g>
<g>
</g>
<g>
</g>
<g>
</g>
<g>
</g>
<g>
</g>
<g>
</g>
</svg>
