<?xml version="1.0" encoding="iso-8859-1"?>
<!-- Generator: Adobe Illustrator 16.0.0, SVG Export Plug-In . SVG Version: 6.00 Build 0)  -->
<!DOCTYPE svg PUBLIC "-//W3C//DTD SVG 1.1//EN" "http://www.w3.org/Graphics/SVG/1.1/DTD/svg11.dtd">
<svg version="1.1" id="Capa_1" xmlns="http://www.w3.org/2000/svg" xmlns:xlink="http://www.w3.org/1999/xlink" x="0px" y="0px"
	 width="968px" height="968px" viewBox="0 0 968 968" style="enable-background:new 0 0 968 968;" xml:space="preserve">
<g>
	<g>
		<path d="M892.874,429.775c-6.712-4.654-15.927-2.985-20.58,3.727l-266.425,384.26c-9.156-0.379-18.303,3.788-23.91,11.875
			l-65.814,94.922c-8.708,12.56-5.586,29.8,6.973,38.508c12.56,8.708,29.8,5.585,38.508-6.975l65.813-94.922
			c5.608-8.088,6.302-18.114,2.737-26.556L896.6,450.354C901.253,443.644,899.585,434.43,892.874,429.775z"/>
		<path d="M665.823,676.357c3.753,2.778,9.027,1.812,11.686-2.022c65.41-94.339,113.004-162.983,178.414-257.323
			c2.661-3.839,1.697-9.087-2.056-11.868C722.812,303.933,687.77,102.807,556.716,1.595c-3.751-2.78-9.027-1.812-11.686,2.021
			c-46.309,66.791-83.692,120.709-124.785,179.978c19.96,18.095,40.321,35.755,61.057,51.538
			c35.771,27.229,69.203,46.119,102.196,57.746c6.927,2.349,12.641,7.176,16.106,13.613c0.122,0.227,0.233,0.458,0.35,0.687
			c5.234-3.096,11.289-4.854,17.618-4.854c3.331,0,6.646,0.48,9.852,1.426c8.913,2.629,16.268,8.572,20.711,16.734
			s5.44,17.565,2.812,26.478L581.3,583.011C605.372,618.396,632.487,650.613,665.823,676.357z"/>
		<path d="M486.144,628.737c3.566,0,6.852-2.376,7.92-5.998c13.259-44.938,25.044-84.879,36.559-123.903
			c16.696-56.592,32.824-111.254,52.053-176.421c1.321-4.48-1.242-9.161-5.677-10.623
			c-63.238-22.248-116.677-64.984-168.249-111.619C332.932,131.617,261.146,54.636,168.181,21.931
			c-0.845-0.279-1.701-0.411-2.541-0.411c-3.565,0-6.85,2.376-7.919,5.999c-32.486,110.104-56.124,190.219-88.611,300.324
			c-1.32,4.477,1.243,9.162,5.677,10.623c156.203,54.952,252.614,234.91,408.817,289.862
			C484.449,628.605,485.304,628.737,486.144,628.737z"/>
		<path d="M631.763,341.302c2.311-7.834-2.166-16.058-9.999-18.369c-1.396-0.412-2.806-0.608-4.191-0.608
			c-6.387,0-12.278,4.17-14.178,10.607l-57.128,193.62l-75.195,254.854c-8.812,2.515-16.188,9.342-18.973,18.782l-32.687,110.783
			c-4.325,14.657,4.052,30.046,18.709,34.371c2.611,0.771,5.25,1.139,7.842,1.139c11.951,0,22.974-7.803,26.528-19.849
			l32.687-110.785c2.785-9.438,0.297-19.176-5.738-26.071l67.497-228.764L631.763,341.302z"/>
	</g>
</g>
<g>
</g>
<g>
</g>
<g>
</g>
<g>
</g>
<g>
</g>
<g>
</g>
<g>
</g>
<g>
</g>
<g>
</g>
<g>
</g>
<g>
</g>
<g>
</g>
<g>
</g>
<g>
</g>
<g>
</g>
</svg>
