<?xml version="1.0" encoding="iso-8859-1"?>
<!-- Generator: Adobe Illustrator 16.0.0, SVG Export Plug-In . SVG Version: 6.00 Build 0)  -->
<!DOCTYPE svg PUBLIC "-//W3C//DTD SVG 1.1//EN" "http://www.w3.org/Graphics/SVG/1.1/DTD/svg11.dtd">
<svg version="1.1" id="Capa_1" xmlns="http://www.w3.org/2000/svg" xmlns:xlink="http://www.w3.org/1999/xlink" x="0px" y="0px"
	 width="439.9px" height="439.9px" viewBox="0 0 439.9 439.9" style="enable-background:new 0 0 439.9 439.9;" xml:space="preserve"
	>
<g>
	<path d="M284.1,142.7L267.9,132.6l40.5-64.9L324.6,77.8L284.1,142.7z M229.5,47.8h-19.1v76.5h19.1V47.8z M171.4,132.6l-40.5-64.9
		l-16.2,10.2l40.5,64.9L171.4,132.6z M439.9,219.9l-154.9,32.5c1.9,7.701,1.9,17.201,1.9,24.9c0,63.1-51.6,114.801-114.8,114.801
		c-53.5,0-97.5-36.301-110.9-84.102c-5.7,3.801-13.4,7.602-23,7.602c-21,0-38.2-17.201-38.2-38.201S17.2,239.2,38.2,239.2
		c9.6,0,17.2,3.799,23,7.6c13.4-47.8,57.4-84.1,110.9-84.1h19.1v38.2h57.4v-38.2h191.201v57.2H439.9z M57.4,277.3
		c0-11.5-7.7-19.1-19.1-19.1s-19.1,7.6-19.1,19.1s7.7,19.1,19.1,19.1S57.4,288.8,57.4,277.3z"/>
</g>
<g>
</g>
<g>
</g>
<g>
</g>
<g>
</g>
<g>
</g>
<g>
</g>
<g>
</g>
<g>
</g>
<g>
</g>
<g>
</g>
<g>
</g>
<g>
</g>
<g>
</g>
<g>
</g>
<g>
</g>
</svg>
