<?xml version="1.0" encoding="iso-8859-1"?>
<!-- Generator: Adobe Illustrator 16.0.0, SVG Export Plug-In . SVG Version: 6.00 Build 0)  -->
<!DOCTYPE svg PUBLIC "-//W3C//DTD SVG 1.1//EN" "http://www.w3.org/Graphics/SVG/1.1/DTD/svg11.dtd">
<svg version="1.1" id="Capa_1" xmlns="http://www.w3.org/2000/svg" xmlns:xlink="http://www.w3.org/1999/xlink" x="0px" y="0px"
	 width="554.625px" height="554.625px" viewBox="0 0 554.625 554.625" style="enable-background:new 0 0 554.625 554.625;"
	 xml:space="preserve">
<g>
	<g>
		<path d="M344.25,277.312c0-34.425-24.862-61.2-57.375-66.938V344.25C319.388,338.513,344.25,311.737,344.25,277.312z"/>
		<rect y="210.375" width="76.5" height="133.875"/>
		<path d="M210.375,277.312c0,34.425,24.862,61.2,57.375,66.938V210.375C235.237,216.112,210.375,242.888,210.375,277.312z"/>
		<path d="M516.375,95.625h-229.5v95.625c42.075,3.825,76.5,42.075,76.5,86.062s-34.425,80.325-76.5,86.062V459h229.5
			c21.037,0,38.25-17.213,38.25-38.25v-57.375H459V191.25h95.625v-57.375C554.625,112.837,537.412,95.625,516.375,95.625z"/>
		<rect x="478.125" y="210.375" width="76.5" height="133.875"/>
		<path d="M0,133.875v57.375h95.625v172.125H0v57.375C0,441.787,17.212,459,38.25,459h229.5v-95.625
			c-42.075-3.825-76.5-42.075-76.5-86.062s34.425-80.325,76.5-86.062V95.625H38.25C17.212,95.625,0,112.837,0,133.875z"/>
	</g>
</g>
<g>
</g>
<g>
</g>
<g>
</g>
<g>
</g>
<g>
</g>
<g>
</g>
<g>
</g>
<g>
</g>
<g>
</g>
<g>
</g>
<g>
</g>
<g>
</g>
<g>
</g>
<g>
</g>
<g>
</g>
</svg>
