<?xml version="1.0" encoding="iso-8859-1"?>
<!-- Generator: Adobe Illustrator 16.0.0, SVG Export Plug-In . SVG Version: 6.00 Build 0)  -->
<!DOCTYPE svg PUBLIC "-//W3C//DTD SVG 1.1//EN" "http://www.w3.org/Graphics/SVG/1.1/DTD/svg11.dtd">
<svg version="1.1" id="Capa_1" xmlns="http://www.w3.org/2000/svg" xmlns:xlink="http://www.w3.org/1999/xlink" x="0px" y="0px"
	 width="980px" height="980px" viewBox="0 0 980 980" style="enable-background:new 0 0 980 980;" xml:space="preserve">
<g>
	<path d="M674.066,536.262V26.553C674.066,11.911,662.155,0,647.514,0H332.486c-14.642,0-26.553,11.912-26.553,26.553v509.709
		c0,14.055,10.978,25.588,24.809,26.49c-3.125,4.362-5.436,9.039-6.897,14.034c-2.771,9.464-4.491,27.986,6.876,87.71
		c6.508,34.19,16.626,78.138,30.073,130.62c22.833,89.109,47.75,173.307,47.999,174.146L411.978,980h194.871V665.481
		c14.513-3.03,27.223-10.52,36.701-21.818c10.576-12.608,16.644-29.358,16.644-45.956c0-12.16-3.923-24.401-11.011-34.949
		C663.049,561.893,674.066,550.343,674.066,536.262z M606.848,634.335v-64.383v-4.601c14.397,5.769,23.345,19.406,23.345,32.355
		C630.192,610.289,623.701,627.747,606.848,634.335z M576.848,950H434.411c-7.396-25.406-26.62-92.333-44.557-162.331
		c-41.787-163.078-39.052-196.191-37.219-202.456c2.505-8.555,13.444-16.32,31.029-22.398h89.107v7.137v33.568l-16.041,18.287
		c-0.219,0.25-0.43,0.507-0.632,0.771c-12.301,16.059-12.021,30.117-9.621,39.085c6.288,23.487,32.561,35.013,35.536,36.25
		c1.852,0.77,3.809,1.148,5.757,1.148c2.922,0,5.825-0.854,8.326-2.521c4.17-2.783,6.675-7.464,6.675-12.479V569.952h-15l0,0h15
		v-7.137v-13.201v-1.799v-13.47v-1.53v-62.799c0-20.422,16.615-37.038,37.037-37.038s37.037,16.615,37.037,37.038v62.799v14.689
		v0.31v14.69v0.311v7.137h15l0,0h-15v67.052v15L576.848,950L576.848,950z M335.934,30h308.133v502.814h-37.219v-62.799
		c0-36.965-30.072-67.038-67.037-67.038s-67.037,30.073-67.037,67.038v49.494v13.305h-93.824h-43.015L335.934,30L335.934,30z"/>
	<path d="M465.816,292.825h48.366c5.901,0,10.686-4.784,10.686-10.686V101.387c0-5.902-4.784-10.686-10.686-10.686h-48.366
		c-5.902,0-10.687,4.784-10.687,10.686v180.752C455.131,288.041,459.914,292.825,465.816,292.825z"/>
	<circle cx="490" cy="352.845" r="34.869"/>
</g>
<g>
</g>
<g>
</g>
<g>
</g>
<g>
</g>
<g>
</g>
<g>
</g>
<g>
</g>
<g>
</g>
<g>
</g>
<g>
</g>
<g>
</g>
<g>
</g>
<g>
</g>
<g>
</g>
<g>
</g>
</svg>
